Sneaky Times.ufo
<glyph name="exclam" format="2">
  <advance width="555"/>
  <unicode hex="0021"/>
  <note>
exclam
</note>
  <outline>
    <contour>
      <point x="169" y="1284" type="curve" smooth="yes"/>
      <point x="169" y="1267"/>
      <point x="170" y="1245"/>
      <point x="173" y="1219" type="curve" smooth="yes"/>
      <point x="177" y="1188" type="line"/>
      <point x="263" y="371" type="line"/>
      <point x="300" y="371" type="line"/>
      <point x="392" y="1180" type="line"/>
      <point x="398" y="1225" type="line" smooth="yes"/>
      <point x="401" y="1246"/>
      <point x="402" y="1267"/>
      <point x="402" y="1286" type="curve" smooth="yes"/>
      <point x="402" y="1381"/>
      <point x="357" y="1438"/>
      <point x="284" y="1438" type="curve" smooth="yes"/>
      <point x="217" y="1438"/>
      <point x="169" y="1373"/>
    </contour>
    <contour>
      <point x="167" y="86" type="curve" smooth="yes"/>
      <point x="167" y="23"/>
      <point x="219" y="-27"/>
      <point x="280" y="-27" type="curve" smooth="yes"/>
      <point x="343" y="-27"/>
      <point x="392" y="23"/>
      <point x="392" y="86" type="curve" smooth="yes"/>
      <point x="392" y="147"/>
      <point x="343" y="197"/>
      <point x="280" y="197" type="curve" smooth="yes"/>
      <point x="219" y="197"/>
      <point x="167" y="147"/>
    </contour>
  </outline>
</glyph>
<glyph name="quotedbl" format="2">
  <advance width="831"/>
  <unicode hex="0022"/>
  <note>
quotedbl
</note>
  <outline>
    <contour>
      <point x="132" y="1264" type="curve" smooth="yes"/>
      <point x="132" y="1245"/>
      <point x="140" y="1191"/>
      <point x="155" y="1100" type="curve" smooth="yes"/>
      <point x="208" y="803" type="line"/>
      <point x="251" y="803" type="line"/>
      <point x="306" y="1098" type="line"/>
      <point x="325" y="1198" type="line"/>
      <point x="329" y="1225"/>
      <point x="331" y="1251"/>
      <point x="331" y="1274" type="curve" smooth="yes"/>
      <point x="331" y="1343"/>
      <point x="291" y="1386"/>
      <point x="228" y="1386" type="curve" smooth="yes"/>
      <point x="164" y="1386"/>
      <point x="132" y="1345"/>
    </contour>
    <contour>
      <point x="497" y="1251" type="curve" smooth="yes"/>
      <point x="497" y="1232"/>
      <point x="498" y="1215"/>
      <point x="501" y="1198" type="curve" smooth="yes"/>
      <point x="521" y="1096" type="line"/>
      <point x="574" y="803" type="line"/>
      <point x="622" y="803" type="line"/>
      <point x="679" y="1096" type="line" smooth="yes"/>
      <point x="684" y="1123"/>
      <point x="699" y="1245"/>
      <point x="699" y="1274" type="curve" smooth="yes"/>
      <point x="699" y="1343"/>
      <point x="660" y="1386"/>
      <point x="599" y="1386" type="curve" smooth="yes"/>
      <point x="527" y="1386"/>
      <point x="497" y="1346"/>
    </contour>
  </outline>
</glyph>
<glyph name="numbersign" format="2">
  <advance width="1366"/>
  <unicode hex="0023"/>
  <note>
numbersign
</note>
  <outline>
    <contour>
      <point x="37" y="238" type="line"/>
      <point x="284" y="238" type="line"/>
      <point x="200" y="-166" type="line"/>
      <point x="325" y="-166" type="line"/>
      <point x="407" y="238" type="line"/>
      <point x="828" y="238" type="line"/>
      <point x="744" y="-166" type="line"/>
      <point x="867" y="-166" type="line"/>
      <point x="951" y="238" type="line"/>
      <point x="1225" y="238" type="line"/>
      <point x="1255" y="358" type="line"/>
      <point x="978" y="358" type="line"/>
      <point x="1054" y="729" type="line"/>
      <point x="1325" y="729" type="line"/>
      <point x="1355" y="850" type="line"/>
      <point x="1078" y="850" type="line"/>
      <point x="1162" y="1255" type="line"/>
      <point x="1041" y="1255" type="line"/>
      <point x="955" y="850" type="line"/>
      <point x="536" y="850" type="line"/>
      <point x="620" y="1255" type="line"/>
      <point x="495" y="1255" type="line"/>
      <point x="411" y="850" type="line"/>
      <point x="167" y="850" type="line"/>
      <point x="137" y="729" type="line"/>
      <point x="384" y="729" type="line"/>
      <point x="308" y="358" type="line"/>
      <point x="67" y="358" type="line"/>
    </contour>
    <contour>
      <point x="431" y="358" type="line"/>
      <point x="509" y="729" type="line"/>
      <point x="931" y="729" type="line"/>
      <point x="855" y="358" type="line"/>
    </contour>
  </outline>
</glyph>
<glyph name="dollar" format="2">
  <advance width="1024"/>
  <unicode hex="0024"/>
  <note>
dollar
</note>
  <outline>
    <contour>
      <point x="105" y="360" type="line"/>
      <point x="105" y="66" type="line"/>
      <point x="218" y="19"/>
      <point x="339" y="-8"/>
      <point x="470" y="-14" type="curve"/>
      <point x="470" y="-143" type="line"/>
      <point x="531" y="-143" type="line"/>
      <point x="531" y="-14" type="line"/>
      <point x="610" y="-8"/>
      <point x="680" y="12"/>
      <point x="741" y="45" type="curve" smooth="yes"/>
      <point x="862" y="112"/>
      <point x="933" y="226"/>
      <point x="933" y="362" type="curve" smooth="yes"/>
      <point x="933" y="508"/>
      <point x="859" y="628"/>
      <point x="712" y="721" type="curve" smooth="yes"/>
      <point x="544" y="827" type="line"/>
      <point x="531" y="836" type="line"/>
      <point x="531" y="1362" type="line"/>
      <point x="714" y="1345"/>
      <point x="823" y="1224"/>
      <point x="830" y="1032" type="curve"/>
      <point x="867" y="1032" type="line"/>
      <point x="867" y="1341" type="line"/>
      <point x="752" y="1394"/>
      <point x="640" y="1424"/>
      <point x="531" y="1430" type="curve"/>
      <point x="531" y="1493" type="line"/>
      <point x="470" y="1493" type="line"/>
      <point x="470" y="1430" type="line"/>
      <point x="398" y="1425"/>
      <point x="334" y="1407"/>
      <point x="279" y="1378" type="curve" smooth="yes"/>
      <point x="167" y="1318"/>
      <point x="105" y="1217"/>
      <point x="105" y="1096" type="curve" smooth="yes"/>
      <point x="105" y="932"/>
      <point x="221" y="795"/>
      <point x="470" y="662" type="curve"/>
      <point x="470" y="47" type="line"/>
      <point x="359" y="52"/>
      <point x="259" y="109"/>
      <point x="200" y="201" type="curve"/>
      <point x="171" y="242"/>
      <point x="153" y="295"/>
      <point x="144" y="360" type="curve"/>
    </contour>
    <contour>
      <point x="259" y="1153" type="curve" smooth="yes"/>
      <point x="259" y="1189"/>
      <point x="268" y="1222"/>
      <point x="286" y="1253" type="curve" smooth="yes"/>
      <point x="321" y="1313"/>
      <point x="389" y="1354"/>
      <point x="470" y="1362" type="curve"/>
      <point x="470" y="877" type="line"/>
      <point x="373" y="942"/>
      <point x="341" y="971"/>
      <point x="302" y="1028" type="curve"/>
      <point x="273" y="1067"/>
      <point x="259" y="1108"/>
    </contour>
    <contour>
      <point x="531" y="623" type="line"/>
      <point x="556" y="606" type="line"/>
      <point x="721" y="503"/>
      <point x="783" y="420"/>
      <point x="783" y="307" type="curve" smooth="yes"/>
      <point x="783" y="172"/>
      <point x="686" y="72"/>
      <point x="531" y="49" type="curve"/>
    </contour>
  </outline>
</glyph>
<glyph name="percent" format="2">
  <advance width="1298"/>
  <unicode hex="0025"/>
  <note>
percent
</note>
  <outline>
    <contour>
      <point x="106" y="-57" type="line"/>
      <point x="194" y="-57" type="line"/>
      <point x="1173" y="1436" type="line"/>
      <point x="1085" y="1436" type="line"/>
    </contour>
    <contour>
      <point x="40" y="1071" type="curve" smooth="yes"/>
      <point x="40" y="914"/>
      <point x="90" y="803"/>
      <point x="189" y="739" type="curve" smooth="yes"/>
      <point x="228" y="714"/>
      <point x="269" y="702"/>
      <point x="312" y="702" type="curve" smooth="yes"/>
      <point x="361" y="702"/>
      <point x="406" y="718"/>
      <point x="446" y="750" type="curve" smooth="yes"/>
      <point x="526" y="814"/>
      <point x="574" y="929"/>
      <point x="574" y="1069" type="curve" smooth="yes"/>
      <point x="574" y="1137"/>
      <point x="563" y="1199"/>
      <point x="540" y="1254" type="curve" smooth="yes"/>
      <point x="494" y="1364"/>
      <point x="406" y="1430"/>
      <point x="306" y="1430" type="curve" smooth="yes"/>
      <point x="257" y="1430"/>
      <point x="212" y="1414"/>
      <point x="172" y="1383" type="curve" smooth="yes"/>
      <point x="91" y="1320"/>
      <point x="40" y="1202"/>
    </contour>
    <contour>
      <point x="306" y="1399" type="curve" smooth="yes"/>
      <point x="406" y="1399"/>
      <point x="456" y="1286"/>
      <point x="456" y="1059" type="curve" smooth="yes"/>
      <point x="456" y="952"/>
      <point x="444" y="871"/>
      <point x="419" y="818" type="curve" smooth="yes"/>
      <point x="393" y="763"/>
      <point x="357" y="735"/>
      <point x="310" y="735" type="curve" smooth="yes"/>
      <point x="209" y="735"/>
      <point x="159" y="846"/>
      <point x="159" y="1067" type="curve" smooth="yes"/>
      <point x="159" y="1288"/>
      <point x="208" y="1399"/>
    </contour>
    <contour>
      <point x="743" y="356" type="curve" smooth="yes"/>
      <point x="743" y="246"/>
      <point x="769" y="158"/>
      <point x="821" y="92" type="curve" smooth="yes"/>
      <point x="874" y="24"/>
      <point x="937" y="-12"/>
      <point x="1013" y="-12" type="curve" smooth="yes"/>
      <point x="1063" y="-12"/>
      <point x="1108" y="4"/>
      <point x="1149" y="36" type="curve" smooth="yes"/>
      <point x="1229" y="99"/>
      <point x="1278" y="213"/>
      <point x="1278" y="354" type="curve" smooth="yes"/>
      <point x="1278" y="422"/>
      <point x="1266" y="484"/>
      <point x="1243" y="539" type="curve" smooth="yes"/>
      <point x="1197" y="649"/>
      <point x="1110" y="715"/>
      <point x="1007" y="715" type="curve" smooth="yes"/>
      <point x="959" y="715"/>
      <point x="915" y="699"/>
      <point x="875" y="668" type="curve" smooth="yes"/>
      <point x="793" y="605"/>
      <point x="743" y="487"/>
    </contour>
    <contour>
      <point x="862" y="352" type="curve" smooth="yes"/>
      <point x="862" y="575"/>
      <point x="910" y="686"/>
      <point x="1007" y="686" type="curve" smooth="yes"/>
      <point x="1108" y="686"/>
      <point x="1159" y="572"/>
      <point x="1159" y="344" type="curve" smooth="yes"/>
      <point x="1159" y="241"/>
      <point x="1146" y="161"/>
      <point x="1121" y="104" type="curve" smooth="yes"/>
      <point x="1096" y="48"/>
      <point x="1060" y="20"/>
      <point x="1011" y="20" type="curve" smooth="yes"/>
      <point x="912" y="20"/>
      <point x="862" y="131"/>
    </contour>
  </outline>
</glyph>
<glyph name="ampersand" format="2">
  <advance width="1579"/>
  <unicode hex="0026"/>
  <note>
ampersand
</note>
  <outline>
    <contour>
      <point x="1510" y="279" type="line"/>
      <point x="1491" y="192"/>
      <point x="1423" y="133"/>
      <point x="1342" y="133" type="curve" smooth="yes"/>
      <point x="1237" y="133"/>
      <point x="1142" y="190"/>
      <point x="1021" y="326" type="curve"/>
      <point x="1033" y="342" type="line" smooth="yes"/>
      <point x="1112" y="447"/>
      <point x="1146" y="504"/>
      <point x="1201" y="612" type="curve" smooth="yes"/>
      <point x="1273" y="757"/>
      <point x="1300" y="797"/>
      <point x="1355" y="840" type="curve"/>
      <point x="1384" y="859"/>
      <point x="1423" y="872"/>
      <point x="1472" y="877" type="curve"/>
      <point x="1472" y="913" type="line"/>
      <point x="1039" y="913" type="line"/>
      <point x="1039" y="877" type="line"/>
      <point x="1100" y="869"/>
      <point x="1136" y="826"/>
      <point x="1136" y="758" type="curve" smooth="yes"/>
      <point x="1136" y="653"/>
      <point x="1071" y="502"/>
      <point x="972" y="387" type="curve"/>
      <point x="933" y="442"/>
      <point x="880" y="522"/>
      <point x="814" y="627" type="curve" smooth="yes"/>
      <point x="775" y="692"/>
      <point x="738" y="758"/>
      <point x="704" y="825" type="curve"/>
      <point x="772" y="857"/>
      <point x="828" y="890"/>
      <point x="871" y="924" type="curve" smooth="yes"/>
      <point x="957" y="991"/>
      <point x="1019" y="1093"/>
      <point x="1019" y="1194" type="curve" smooth="yes"/>
      <point x="1019" y="1239"/>
      <point x="1007" y="1281"/>
      <point x="983" y="1318" type="curve" smooth="yes"/>
      <point x="935" y="1392"/>
      <point x="842" y="1438"/>
      <point x="742" y="1438" type="curve" smooth="yes"/>
      <point x="679" y="1438"/>
      <point x="623" y="1423"/>
      <point x="572" y="1394" type="curve" smooth="yes"/>
      <point x="470" y="1334"/>
      <point x="407" y="1222"/>
      <point x="407" y="1094" type="curve" smooth="yes"/>
      <point x="407" y="1053"/>
      <point x="409" y="1018"/>
      <point x="413" y="990" type="curve" smooth="yes"/>
      <point x="421" y="934"/>
      <point x="444" y="874"/>
      <point x="484" y="791" type="curve"/>
      <point x="385" y="736"/>
      <point x="305" y="683"/>
      <point x="244" y="632" type="curve" smooth="yes"/>
      <point x="122" y="528"/>
      <point x="67" y="422"/>
      <point x="67" y="291" type="curve"/>
      <point x="71" y="287" type="line" smooth="yes"/>
      <point x="74" y="284"/>
      <point x="79" y="282"/>
      <point x="88" y="282" type="curve"/>
      <point x="92" y="281"/>
      <point x="95" y="280"/>
      <point x="97" y="279" type="curve"/>
      <point x="98" y="278"/>
      <point x="98" y="277"/>
      <point x="98" y="276" type="curve" smooth="yes"/>
      <point x="98" y="274" type="line" smooth="yes"/>
      <point x="98" y="273"/>
      <point x="100" y="272"/>
      <point x="100" y="272" type="curve"/>
      <point x="101" y="271"/>
      <point x="101" y="269"/>
      <point x="100" y="268" type="curve"/>
      <point x="98" y="265" type="line"/>
      <point x="96" y="264" type="line"/>
      <point x="92" y="264" type="line"/>
      <point x="104" y="259" type="line"/>
      <point x="105" y="258"/>
      <point x="105" y="257"/>
      <point x="105" y="256" type="curve"/>
      <point x="104" y="255"/>
      <point x="104" y="255"/>
      <point x="104" y="256" type="curve"/>
      <point x="103" y="256"/>
      <point x="103" y="256"/>
      <point x="102" y="256" type="curve"/>
      <point x="96" y="258" type="line"/>
      <point x="90" y="260" type="line"/>
      <point x="94" y="257" type="line"/>
      <point x="96" y="255" type="line"/>
      <point x="96" y="255"/>
      <point x="96" y="255"/>
      <point x="97" y="254" type="curve"/>
      <point x="97" y="253"/>
      <point x="96" y="252"/>
      <point x="95" y="252" type="curve" smooth="yes"/>
      <point x="95" y="252"/>
      <point x="95" y="252"/>
      <point x="95" y="253" type="curve"/>
      <point x="95" y="253"/>
      <point x="95" y="253"/>
      <point x="94" y="253" type="curve"/>
      <point x="87" y="258" type="line"/>
      <point x="87" y="257" type="line" smooth="yes"/>
      <point x="87" y="256"/>
      <point x="85" y="255"/>
      <point x="84" y="256" type="curve"/>
      <point x="78" y="263" type="line"/>
      <point x="74" y="269"/>
      <point x="70" y="273"/>
      <point x="67" y="276" type="curve"/>
      <point x="70" y="219"/>
      <point x="86" y="168"/>
      <point x="116" y="122" type="curve" smooth="yes"/>
      <point x="176" y="29"/>
      <point x="286" y="-31"/>
      <point x="419" y="-31" type="curve" smooth="yes"/>
      <point x="536" y="-31"/>
      <point x="647" y="2"/>
      <point x="753" y="68" type="curve" smooth="yes"/>
      <point x="790" y="92"/>
      <point x="831" y="126"/>
      <point x="878" y="170" type="curve"/>
      <point x="1022" y="22"/>
      <point x="1117" y="-31"/>
      <point x="1238" y="-31" type="curve" smooth="yes"/>
      <point x="1342" y="-31"/>
      <point x="1451" y="35"/>
      <point x="1500" y="131" type="curve"/>
      <point x="1524" y="174"/>
      <point x="1528" y="186"/>
      <point x="1543" y="254" type="curve"/>
    </contour>
    <contour>
      <point x="744" y="1368" type="curve" smooth="yes"/>
      <point x="839" y="1368"/>
      <point x="898" y="1298"/>
      <point x="898" y="1186" type="curve" smooth="yes"/>
      <point x="898" y="1058"/>
      <point x="831" y="970"/>
      <point x="671" y="889" type="curve"/>
      <point x="620" y="986"/>
      <point x="595" y="1081"/>
      <point x="595" y="1174" type="curve" smooth="yes"/>
      <point x="595" y="1298"/>
      <point x="649" y="1368"/>
    </contour>
    <contour>
      <point x="538" y="98" type="curve" smooth="yes"/>
      <point x="493" y="98"/>
      <point x="450" y="111"/>
      <point x="411" y="137" type="curve" smooth="yes"/>
      <point x="332" y="188"/>
      <point x="280" y="281"/>
      <point x="280" y="381" type="curve" smooth="yes"/>
      <point x="280" y="522"/>
      <point x="365" y="646"/>
      <point x="513" y="719" type="curve"/>
      <point x="521" y="702" type="line"/>
      <point x="573" y="603"/>
      <point x="638" y="493"/>
      <point x="716" y="373" type="curve" smooth="yes"/>
      <point x="749" y="322"/>
      <point x="786" y="274"/>
      <point x="826" y="227" type="curve"/>
      <point x="743" y="148"/>
      <point x="631" y="98"/>
    </contour>
    <contour>
      <point x="94" y="275" type="line"/>
      <point x="91" y="277"/>
      <point x="88" y="277"/>
      <point x="86" y="275" type="curve" smooth="yes"/>
      <point x="85" y="274"/>
      <point x="85" y="273"/>
      <point x="85" y="272" type="curve"/>
      <point x="86" y="270" type="line"/>
      <point x="90" y="268" type="line"/>
      <point x="95" y="268" type="line"/>
      <point x="96" y="270" type="line"/>
      <point x="95" y="272"/>
      <point x="95" y="273"/>
      <point x="96" y="274" type="curve"/>
    </contour>
  </outline>
</glyph>
<glyph name="quotesingle" format="2">
  <advance width="362"/>
  <unicode hex="0027"/>
  <note>
quotesingle
</note>
  <outline>
    <contour>
      <point x="81" y="1253" type="curve" smooth="yes"/>
      <point x="81" y="1226"/>
      <point x="82" y="1209"/>
      <point x="85" y="1200" type="curve"/>
      <point x="103" y="1100" type="line"/>
      <point x="157" y="803" type="line"/>
      <point x="202" y="803" type="line"/>
      <point x="255" y="1098" type="line"/>
      <point x="273" y="1200" type="line" smooth="yes"/>
      <point x="279" y="1241"/>
      <point x="282" y="1266"/>
      <point x="282" y="1274" type="curve" smooth="yes"/>
      <point x="282" y="1343"/>
      <point x="241" y="1386"/>
      <point x="177" y="1386" type="curve" smooth="yes"/>
      <point x="110" y="1386"/>
      <point x="81" y="1345"/>
    </contour>
  </outline>
</glyph>
<glyph name="parenleft" format="2">
  <advance width="681"/>
  <unicode hex="0028"/>
  <note>
parenleft
</note>
  <outline>
    <contour>
      <point x="91" y="520" type="curve" smooth="yes"/>
      <point x="91" y="244"/>
      <point x="182" y="-12"/>
      <point x="345" y="-195" type="curve" smooth="yes"/>
      <point x="413" y="-270"/>
      <point x="516" y="-353"/>
      <point x="624" y="-416" type="curve" smooth="yes"/>
      <point x="650" y="-432" type="line"/>
      <point x="650" y="-393" type="line"/>
      <point x="399" y="-249"/>
      <point x="286" y="38"/>
      <point x="286" y="526" type="curve" smooth="yes"/>
      <point x="286" y="1001"/>
      <point x="399" y="1283"/>
      <point x="650" y="1434" type="curve"/>
      <point x="650" y="1468" type="line"/>
      <point x="533" y="1409"/>
      <point x="433" y="1332"/>
      <point x="350" y="1237" type="curve" smooth="yes"/>
      <point x="182" y="1047"/>
      <point x="91" y="800"/>
    </contour>
  </outline>
</glyph>
<glyph name="parenright" format="2">
  <advance width="681"/>
  <unicode hex="0029"/>
  <note>
parenright
</note>
  <outline>
    <contour>
      <point x="32" y="-432" type="line"/>
      <point x="149" y="-373"/>
      <point x="249" y="-296"/>
      <point x="332" y="-201" type="curve" smooth="yes"/>
      <point x="499" y="-12"/>
      <point x="589" y="237"/>
      <point x="589" y="516" type="curve" smooth="yes"/>
      <point x="589" y="792"/>
      <point x="498" y="1050"/>
      <point x="337" y="1229" type="curve" smooth="yes"/>
      <point x="276" y="1297"/>
      <point x="174" y="1381"/>
      <point x="58" y="1452" type="curve" smooth="yes"/>
      <point x="32" y="1468" type="line"/>
      <point x="32" y="1430" type="line"/>
      <point x="283" y="1285"/>
      <point x="396" y="1000"/>
      <point x="396" y="516" type="curve" smooth="yes"/>
      <point x="396" y="35"/>
      <point x="284" y="-248"/>
      <point x="32" y="-397" type="curve"/>
    </contour>
  </outline>
</glyph>
<glyph name="asterisk" format="2">
  <advance width="1024"/>
  <unicode hex="002A"/>
  <note>
asterisk
</note>
  <outline>
    <contour>
      <point x="144" y="883" type="curve" smooth="yes"/>
      <point x="144" y="846"/>
      <point x="181" y="811"/>
      <point x="222" y="811" type="curve" smooth="yes"/>
      <point x="270" y="811"/>
      <point x="308" y="834"/>
      <point x="368" y="899" type="curve" smooth="yes"/>
      <point x="409" y="944"/>
      <point x="435" y="972"/>
      <point x="446" y="982" type="curve" smooth="yes"/>
      <point x="463" y="997"/>
      <point x="481" y="1010"/>
      <point x="499" y="1020" type="curve"/>
      <point x="496" y="979"/>
      <point x="485" y="931"/>
      <point x="466" y="877" type="curve" smooth="yes"/>
      <point x="451" y="833"/>
      <point x="441" y="803"/>
      <point x="437" y="786" type="curve" smooth="yes"/>
      <point x="433" y="769"/>
      <point x="431" y="752"/>
      <point x="431" y="733" type="curve" smooth="yes"/>
      <point x="431" y="680"/>
      <point x="468" y="635"/>
      <point x="513" y="635" type="curve" smooth="yes"/>
      <point x="558" y="635"/>
      <point x="593" y="680"/>
      <point x="593" y="737" type="curve" smooth="yes"/>
      <point x="593" y="760"/>
      <point x="583" y="804"/>
      <point x="564" y="868" type="curve" smooth="yes"/>
      <point x="542" y="935"/>
      <point x="531" y="983"/>
      <point x="531" y="1012" type="curve" smooth="yes"/>
      <point x="531" y="1020" type="line"/>
      <point x="564" y="999"/>
      <point x="587" y="978"/>
      <point x="646" y="913" type="curve" smooth="yes"/>
      <point x="715" y="837"/>
      <point x="755" y="811"/>
      <point x="802" y="811" type="curve" smooth="yes"/>
      <point x="845" y="811"/>
      <point x="878" y="844"/>
      <point x="878" y="885" type="curve" smooth="yes"/>
      <point x="878" y="941"/>
      <point x="825" y="979"/>
      <point x="712" y="1006" type="curve" smooth="yes"/>
      <point x="628" y="1024" type="line" smooth="yes"/>
      <point x="600" y="1031"/>
      <point x="574" y="1042"/>
      <point x="550" y="1055" type="curve"/>
      <point x="583" y="1068"/>
      <point x="633" y="1082"/>
      <point x="701" y="1098" type="curve" smooth="yes"/>
      <point x="766" y="1113"/>
      <point x="811" y="1129"/>
      <point x="838" y="1148" type="curve" smooth="yes"/>
      <point x="865" y="1166"/>
      <point x="878" y="1190"/>
      <point x="878" y="1221" type="curve" smooth="yes"/>
      <point x="878" y="1260"/>
      <point x="843" y="1294"/>
      <point x="802" y="1294" type="curve" smooth="yes"/>
      <point x="759" y="1294"/>
      <point x="709" y="1262"/>
      <point x="652" y="1198" type="curve" smooth="yes"/>
      <point x="592" y="1130"/>
      <point x="583" y="1122"/>
      <point x="531" y="1087" type="curve"/>
      <point x="533" y="1095" type="line"/>
      <point x="534" y="1096"/>
      <point x="534" y="1099"/>
      <point x="534" y="1102" type="curve"/>
      <point x="535" y="1120"/>
      <point x="537" y="1139"/>
      <point x="541" y="1158" type="curve"/>
      <point x="574" y="1274" type="line" smooth="yes"/>
      <point x="587" y="1316"/>
      <point x="593" y="1350"/>
      <point x="593" y="1376" type="curve" smooth="yes"/>
      <point x="593" y="1433"/>
      <point x="560" y="1477"/>
      <point x="513" y="1477" type="curve" smooth="yes"/>
      <point x="466" y="1477"/>
      <point x="431" y="1433"/>
      <point x="431" y="1376" type="curve" smooth="yes"/>
      <point x="431" y="1359"/>
      <point x="437" y="1329"/>
      <point x="448" y="1286" type="curve"/>
      <point x="480" y="1194" type="line" smooth="yes"/>
      <point x="493" y="1157"/>
      <point x="499" y="1121"/>
      <point x="499" y="1087" type="curve"/>
      <point x="468" y="1106"/>
      <point x="444" y="1126"/>
      <point x="427" y="1145" type="curve"/>
      <point x="355" y="1219" type="line" smooth="yes"/>
      <point x="307" y="1269"/>
      <point x="263" y="1294"/>
      <point x="222" y="1294" type="curve" smooth="yes"/>
      <point x="179" y="1294"/>
      <point x="144" y="1262"/>
      <point x="144" y="1221" type="curve" smooth="yes"/>
      <point x="144" y="1164"/>
      <point x="195" y="1126"/>
      <point x="296" y="1106" type="curve" smooth="yes"/>
      <point x="390" y="1085" type="line" smooth="yes"/>
      <point x="413" y="1080"/>
      <point x="440" y="1070"/>
      <point x="472" y="1055" type="curve"/>
      <point x="439" y="1036"/>
      <point x="429" y="1032"/>
      <point x="378" y="1020" type="curve" smooth="yes"/>
      <point x="278" y="999"/>
      <point x="214" y="980"/>
      <point x="186" y="963" type="curve" smooth="yes"/>
      <point x="158" y="946"/>
      <point x="144" y="920"/>
    </contour>
  </outline>
</glyph>
<glyph name="plus" format="2">
  <advance width="1366"/>
  <unicode hex="002B"/>
  <note>
plus
</note>
  <outline>
    <contour>
      <point x="142" y="608" type="line"/>
      <point x="634" y="608" type="line"/>
      <point x="634" y="121" type="line"/>
      <point x="726" y="121" type="line"/>
      <point x="726" y="608" type="line"/>
      <point x="1220" y="608" type="line"/>
      <point x="1220" y="702" type="line"/>
      <point x="726" y="702" type="line"/>
      <point x="726" y="1194" type="line"/>
      <point x="634" y="1194" type="line"/>
      <point x="634" y="702" type="line"/>
      <point x="142" y="702" type="line"/>
    </contour>
  </outline>
</glyph>
<glyph name="hyphen" format="2">
  <advance width="681"/>
  <unicode hex="002D"/>
  <note>
hyphen
</note>
  <outline>
    <contour>
      <point x="85" y="395" type="line"/>
      <point x="595" y="395" type="line"/>
      <point x="595" y="557" type="line"/>
      <point x="85" y="557" type="line"/>
    </contour>
  </outline>
</glyph>
<glyph name="period" format="2">
  <advance width="555"/>
  <unicode hex="002E"/>
  <note>
period
</note>
  <outline>
    <contour>
      <point x="196" y="6" type="curve" smooth="yes"/>
      <point x="218" y="-16"/>
      <point x="244" y="-27"/>
      <point x="275" y="-27" type="curve" smooth="yes"/>
      <point x="338" y="-27"/>
      <point x="390" y="23"/>
      <point x="390" y="86" type="curve" smooth="yes"/>
      <point x="390" y="149"/>
      <point x="338" y="199"/>
      <point x="275" y="199" type="curve" smooth="yes"/>
      <point x="214" y="199"/>
      <point x="163" y="149"/>
      <point x="163" y="86" type="curve" smooth="yes"/>
      <point x="163" y="55"/>
      <point x="174" y="28"/>
    </contour>
  </outline>
</glyph>
<glyph name="slash" format="2">
  <advance width="575"/>
  <unicode hex="002F"/>
  <note>
slash
</note>
  <outline>
    <contour>
      <point x="2" y="-29" type="line"/>
      <point x="84" y="-29" type="line"/>
      <point x="573" y="1423" type="line"/>
      <point x="494" y="1423" type="line"/>
    </contour>
  </outline>
</glyph>
<glyph name="zero" format="2">
  <advance width="1024"/>
  <unicode hex="0030"/>
  <note>
zero
</note>
  <outline>
    <contour>
      <point x="65" y="711" type="curve" smooth="yes"/>
      <point x="65" y="482"/>
      <point x="103" y="324"/>
      <point x="194" y="184" type="curve" smooth="yes"/>
      <point x="283" y="49"/>
      <point x="398" y="-25"/>
      <point x="519" y="-25" type="curve" smooth="yes"/>
      <point x="619" y="-25"/>
      <point x="722" y="36"/>
      <point x="802" y="147" type="curve" smooth="yes"/>
      <point x="909" y="291"/>
      <point x="955" y="460"/>
      <point x="955" y="705" type="curve" smooth="yes"/>
      <point x="955" y="918"/>
      <point x="923" y="1059"/>
      <point x="843" y="1196" type="curve" smooth="yes"/>
      <point x="756" y="1344"/>
      <point x="631" y="1430"/>
      <point x="503" y="1430" type="curve" smooth="yes"/>
      <point x="376" y="1430"/>
      <point x="250" y="1334"/>
      <point x="163" y="1174" type="curve" smooth="yes"/>
      <point x="94" y="1043"/>
      <point x="65" y="907"/>
    </contour>
    <contour>
      <point x="263" y="711" type="curve" smooth="yes"/>
      <point x="263" y="1150"/>
      <point x="344" y="1370"/>
      <point x="505" y="1370" type="curve" smooth="yes"/>
      <point x="614" y="1370"/>
      <point x="695" y="1268"/>
      <point x="726" y="1092" type="curve" smooth="yes"/>
      <point x="747" y="975"/>
      <point x="757" y="841"/>
      <point x="757" y="692" type="curve" smooth="yes"/>
      <point x="757" y="483"/>
      <point x="736" y="322"/>
      <point x="695" y="209" type="curve" smooth="yes"/>
      <point x="653" y="97"/>
      <point x="592" y="41"/>
      <point x="513" y="41" type="curve" smooth="yes"/>
      <point x="438" y="41"/>
      <point x="364" y="107"/>
      <point x="325" y="207" type="curve" smooth="yes"/>
      <point x="284" y="316"/>
      <point x="263" y="484"/>
    </contour>
  </outline>
</glyph>
<glyph name="one" format="2">
  <advance width="1024"/>
  <unicode hex="0031"/>
  <note>
one
</note>
  <outline>
    <contour>
      <point x="777" y="0" type="line"/>
      <point x="777" y="37" type="line"/>
      <point x="765" y="37" type="line" smooth="yes"/>
      <point x="723" y="37"/>
      <point x="691" y="42"/>
      <point x="669" y="53" type="curve"/>
      <point x="624" y="73"/>
      <point x="605" y="119"/>
      <point x="605" y="207" type="curve" smooth="yes"/>
      <point x="605" y="1430" type="line"/>
      <point x="568" y="1430" type="line"/>
      <point x="461" y="1376" type="line"/>
      <point x="465" y="1374" type="line"/>
      <point x="468" y="1373"/>
      <point x="471" y="1373"/>
      <point x="475" y="1373" type="curve"/>
      <point x="479" y="1372"/>
      <point x="482" y="1371"/>
      <point x="484" y="1370" type="curve"/>
      <point x="485" y="1369"/>
      <point x="485" y="1368"/>
      <point x="485" y="1367" type="curve" smooth="yes"/>
      <point x="485" y="1365" type="line" smooth="yes"/>
      <point x="485" y="1364"/>
      <point x="487" y="1363"/>
      <point x="487" y="1363" type="curve"/>
      <point x="488" y="1362"/>
      <point x="488" y="1360"/>
      <point x="487" y="1359" type="curve"/>
      <point x="485" y="1356" type="line"/>
      <point x="483" y="1355" type="line"/>
      <point x="479" y="1355" type="line"/>
      <point x="491" y="1350" type="line"/>
      <point x="492" y="1349"/>
      <point x="492" y="1348"/>
      <point x="492" y="1347" type="curve"/>
      <point x="491" y="1346"/>
      <point x="491" y="1346"/>
      <point x="491" y="1347" type="curve"/>
      <point x="490" y="1347"/>
      <point x="490" y="1347"/>
      <point x="489" y="1347" type="curve"/>
      <point x="483" y="1349" type="line"/>
      <point x="477" y="1351" type="line"/>
      <point x="481" y="1348" type="line"/>
      <point x="483" y="1346" type="line"/>
      <point x="483" y="1346"/>
      <point x="483" y="1346"/>
      <point x="484" y="1345" type="curve"/>
      <point x="484" y="1344"/>
      <point x="483" y="1343"/>
      <point x="482" y="1343" type="curve" smooth="yes"/>
      <point x="482" y="1343"/>
      <point x="482" y="1343"/>
      <point x="482" y="1344" type="curve"/>
      <point x="482" y="1344"/>
      <point x="482" y="1344"/>
      <point x="481" y="1344" type="curve"/>
      <point x="474" y="1349" type="line"/>
      <point x="474" y="1348" type="line" smooth="yes"/>
      <point x="474" y="1347"/>
      <point x="472" y="1346"/>
      <point x="471" y="1347" type="curve"/>
      <point x="465" y="1354" type="line"/>
      <point x="459" y="1362" type="line"/>
      <point x="455" y="1366"/>
      <point x="452" y="1369"/>
      <point x="449" y="1370" type="curve"/>
      <point x="237" y="1264" type="line"/>
      <point x="255" y="1231" type="line"/>
      <point x="294" y="1253"/>
      <point x="326" y="1264"/>
      <point x="351" y="1264" type="curve" smooth="yes"/>
      <point x="385" y="1264"/>
      <point x="407" y="1252"/>
      <point x="417" y="1227" type="curve"/>
      <point x="426" y="1200"/>
      <point x="431" y="1144"/>
      <point x="431" y="1057" type="curve" smooth="yes"/>
      <point x="431" y="203" type="line" smooth="yes"/>
      <point x="431" y="158"/>
      <point x="426" y="124"/>
      <point x="417" y="101" type="curve" smooth="yes"/>
      <point x="397" y="54"/>
      <point x="353" y="37"/>
      <point x="261" y="37" type="curve" smooth="yes"/>
      <point x="255" y="37" type="line"/>
      <point x="255" y="0" type="line"/>
    </contour>
    <contour>
      <point x="481" y="1366" type="line"/>
      <point x="478" y="1368"/>
      <point x="475" y="1368"/>
      <point x="473" y="1366" type="curve" smooth="yes"/>
      <point x="472" y="1365"/>
      <point x="472" y="1364"/>
      <point x="472" y="1363" type="curve"/>
      <point x="473" y="1361" type="line"/>
      <point x="477" y="1359" type="line"/>
      <point x="482" y="1359" type="line"/>
      <point x="483" y="1361" type="line"/>
      <point x="482" y="1363"/>
      <point x="482" y="1364"/>
      <point x="483" y="1365" type="curve"/>
    </contour>
  </outline>
</glyph>
<glyph name="two" format="2">
  <advance width="1024"/>
  <unicode hex="0032"/>
  <note>
two
</note>
  <outline>
    <contour>
      <point x="869" y="0" type="line"/>
      <point x="970" y="262" type="line"/>
      <point x="931" y="262" type="line"/>
      <point x="888" y="182"/>
      <point x="826" y="152"/>
      <point x="706" y="152" type="curve" smooth="yes"/>
      <point x="253" y="152" type="line"/>
      <point x="315" y="207"/>
      <point x="366" y="256"/>
      <point x="407" y="299" type="curve"/>
      <point x="479" y="368"/>
      <point x="599" y="497"/>
      <point x="703" y="630" type="curve" smooth="yes"/>
      <point x="807" y="762"/>
      <point x="884" y="888"/>
      <point x="884" y="1057" type="curve" smooth="yes"/>
      <point x="884" y="1124"/>
      <point x="867" y="1187"/>
      <point x="832" y="1244" type="curve" smooth="yes"/>
      <point x="763" y="1358"/>
      <point x="639" y="1423"/>
      <point x="508" y="1430" type="curve"/>
      <point x="501" y="1424" type="line"/>
      <point x="490" y="1414" type="line"/>
      <point x="484" y="1406" type="line"/>
      <point x="478" y="1399" type="line"/>
      <point x="477" y="1398"/>
      <point x="475" y="1399"/>
      <point x="475" y="1400" type="curve" smooth="yes"/>
      <point x="475" y="1401" type="line"/>
      <point x="468" y="1396" type="line"/>
      <point x="467" y="1395"/>
      <point x="465" y="1397"/>
      <point x="466" y="1398" type="curve"/>
      <point x="466" y="1398"/>
      <point x="466" y="1398"/>
      <point x="466" y="1398" type="curve"/>
      <point x="468" y="1400" type="line"/>
      <point x="472" y="1403" type="line"/>
      <point x="466" y="1401" type="line"/>
      <point x="460" y="1399" type="line"/>
      <point x="459" y="1399"/>
      <point x="459" y="1399"/>
      <point x="459" y="1399" type="curve"/>
      <point x="458" y="1398"/>
      <point x="458" y="1398"/>
      <point x="457" y="1399" type="curve"/>
      <point x="457" y="1400"/>
      <point x="457" y="1401"/>
      <point x="458" y="1402" type="curve"/>
      <point x="470" y="1407" type="line"/>
      <point x="466" y="1407" type="line"/>
      <point x="464" y="1408" type="line"/>
      <point x="462" y="1411" type="line"/>
      <point x="461" y="1412"/>
      <point x="461" y="1414"/>
      <point x="462" y="1415" type="curve"/>
      <point x="462" y="1415"/>
      <point x="464" y="1416"/>
      <point x="464" y="1417" type="curve" smooth="yes"/>
      <point x="464" y="1419" type="line" smooth="yes"/>
      <point x="464" y="1420"/>
      <point x="464" y="1421"/>
      <point x="465" y="1422" type="curve"/>
      <point x="467" y="1423"/>
      <point x="470" y="1424"/>
      <point x="475" y="1425" type="curve"/>
      <point x="483" y="1425"/>
      <point x="488" y="1427"/>
      <point x="491" y="1430" type="curve"/>
      <point x="278" y="1430"/>
      <point x="154" y="1310"/>
      <point x="99" y="1047" type="curve"/>
      <point x="136" y="1047" type="line"/>
      <point x="198" y="1194"/>
      <point x="292" y="1268"/>
      <point x="419" y="1268" type="curve" smooth="yes"/>
      <point x="474" y="1268"/>
      <point x="525" y="1255"/>
      <point x="570" y="1229" type="curve" smooth="yes"/>
      <point x="660" y="1177"/>
      <point x="714" y="1077"/>
      <point x="714" y="965" type="curve" smooth="yes"/>
      <point x="714" y="814"/>
      <point x="659" y="687"/>
      <point x="515" y="504" type="curve" smooth="yes"/>
      <point x="382" y="339"/>
      <point x="272" y="228"/>
      <point x="83" y="61" type="curve" smooth="yes"/>
      <point x="56" y="37" type="line"/>
      <point x="56" y="0" type="line"/>
    </contour>
    <contour>
      <point x="467" y="1411" type="line"/>
      <point x="472" y="1411" type="line"/>
      <point x="476" y="1413" type="line"/>
      <point x="477" y="1415" type="line"/>
      <point x="477" y="1416"/>
      <point x="477" y="1417"/>
      <point x="476" y="1418" type="curve" smooth="yes"/>
      <point x="474" y="1420"/>
      <point x="471" y="1420"/>
      <point x="468" y="1418" type="curve"/>
      <point x="466" y="1417" type="line"/>
      <point x="467" y="1416"/>
      <point x="467" y="1415"/>
      <point x="466" y="1413" type="curve"/>
    </contour>
  </outline>
</glyph>
<glyph name="three" format="2">
  <advance width="1024"/>
  <unicode hex="0033"/>
  <note>
three
</note>
  <outline>
    <contour>
      <point x="640" y="831" type="curve"/>
      <point x="772" y="946"/>
      <point x="822" y="1032"/>
      <point x="822" y="1145" type="curve" smooth="yes"/>
      <point x="822" y="1197"/>
      <point x="808" y="1245"/>
      <point x="780" y="1289" type="curve" smooth="yes"/>
      <point x="724" y="1377"/>
      <point x="622" y="1430"/>
      <point x="503" y="1430" type="curve" smooth="yes"/>
      <point x="445" y="1430"/>
      <point x="390" y="1416"/>
      <point x="338" y="1388" type="curve" smooth="yes"/>
      <point x="234" y="1332"/>
      <point x="179" y="1245"/>
      <point x="138" y="1128" type="curve"/>
      <point x="173" y="1114" type="line"/>
      <point x="229" y="1227"/>
      <point x="311" y="1284"/>
      <point x="419" y="1284" type="curve" smooth="yes"/>
      <point x="466" y="1284"/>
      <point x="507" y="1274"/>
      <point x="544" y="1255" type="curve" smooth="yes"/>
      <point x="617" y="1215"/>
      <point x="661" y="1143"/>
      <point x="661" y="1051" type="curve" smooth="yes"/>
      <point x="661" y="942"/>
      <point x="597" y="837"/>
      <point x="493" y="782" type="curve"/>
      <point x="450" y="757"/>
      <point x="428" y="750"/>
      <point x="341" y="733" type="curve"/>
      <point x="341" y="694" type="line"/>
      <point x="357" y="694" type="line" smooth="yes"/>
      <point x="485" y="694"/>
      <point x="568" y="666"/>
      <point x="636" y="601" type="curve" smooth="yes"/>
      <point x="704" y="536"/>
      <point x="742" y="444"/>
      <point x="742" y="344" type="curve" smooth="yes"/>
      <point x="742" y="292"/>
      <point x="732" y="244"/>
      <point x="711" y="201" type="curve" smooth="yes"/>
      <point x="669" y="113"/>
      <point x="590" y="59"/>
      <point x="499" y="59" type="curve" smooth="yes"/>
      <point x="472" y="59"/>
      <point x="446" y="63"/>
      <point x="423" y="71" type="curve" smooth="yes"/>
      <point x="404" y="77"/>
      <point x="359" y="98"/>
      <point x="288" y="133" type="curve" smooth="yes"/>
      <point x="249" y="151"/>
      <point x="219" y="160"/>
      <point x="198" y="160" type="curve" smooth="yes"/>
      <point x="175" y="160"/>
      <point x="156" y="152"/>
      <point x="140" y="136" type="curve"/>
      <point x="144" y="132" type="line" smooth="yes"/>
      <point x="147" y="129"/>
      <point x="152" y="127"/>
      <point x="161" y="127" type="curve"/>
      <point x="165" y="126"/>
      <point x="168" y="125"/>
      <point x="170" y="124" type="curve"/>
      <point x="171" y="123"/>
      <point x="171" y="122"/>
      <point x="171" y="121" type="curve" smooth="yes"/>
      <point x="171" y="119" type="line" smooth="yes"/>
      <point x="171" y="118"/>
      <point x="173" y="117"/>
      <point x="173" y="117" type="curve"/>
      <point x="174" y="116"/>
      <point x="174" y="114"/>
      <point x="173" y="113" type="curve"/>
      <point x="171" y="110" type="line"/>
      <point x="169" y="109" type="line"/>
      <point x="165" y="109" type="line"/>
      <point x="177" y="104" type="line"/>
      <point x="178" y="103"/>
      <point x="178" y="102"/>
      <point x="178" y="101" type="curve"/>
      <point x="177" y="100"/>
      <point x="177" y="100"/>
      <point x="177" y="101" type="curve"/>
      <point x="176" y="101"/>
      <point x="176" y="101"/>
      <point x="175" y="101" type="curve"/>
      <point x="169" y="103" type="line"/>
      <point x="163" y="105" type="line"/>
      <point x="167" y="102" type="line"/>
      <point x="169" y="100" type="line"/>
      <point x="169" y="100"/>
      <point x="169" y="100"/>
      <point x="170" y="99" type="curve"/>
      <point x="170" y="98"/>
      <point x="169" y="97"/>
      <point x="168" y="97" type="curve" smooth="yes"/>
      <point x="168" y="97"/>
      <point x="168" y="97"/>
      <point x="168" y="98" type="curve"/>
      <point x="168" y="98"/>
      <point x="168" y="98"/>
      <point x="167" y="98" type="curve"/>
      <point x="160" y="103" type="line"/>
      <point x="160" y="102" type="line" smooth="yes"/>
      <point x="160" y="101"/>
      <point x="158" y="100"/>
      <point x="157" y="101" type="curve"/>
      <point x="151" y="108" type="line"/>
      <point x="145" y="116" type="line"/>
      <point x="139" y="122"/>
      <point x="135" y="125"/>
      <point x="134" y="126" type="curve"/>
      <point x="132" y="127" type="line"/>
      <point x="123" y="112"/>
      <point x="118" y="97"/>
      <point x="118" y="84" type="curve" smooth="yes"/>
      <point x="118" y="16"/>
      <point x="197" y="-25"/>
      <point x="333" y="-25" type="curve" smooth="yes"/>
      <point x="439" y="-25"/>
      <point x="535" y="-4"/>
      <point x="620" y="37" type="curve" smooth="yes"/>
      <point x="790" y="120"/>
      <point x="890" y="273"/>
      <point x="890" y="457" type="curve" smooth="yes"/>
      <point x="890" y="633"/>
      <point x="803" y="763"/>
    </contour>
    <contour>
      <point x="167" y="120" type="line"/>
      <point x="164" y="122"/>
      <point x="161" y="122"/>
      <point x="159" y="120" type="curve" smooth="yes"/>
      <point x="158" y="119"/>
      <point x="158" y="118"/>
      <point x="158" y="117" type="curve"/>
      <point x="159" y="115" type="line"/>
      <point x="163" y="113" type="line"/>
      <point x="168" y="113" type="line"/>
      <point x="169" y="115" type="line"/>
      <point x="168" y="117"/>
      <point x="168" y="118"/>
      <point x="169" y="119" type="curve"/>
    </contour>
  </outline>
</glyph>
<glyph name="four" format="2">
  <advance width="1024"/>
  <unicode hex="0034"/>
  <note>
four
</note>
  <outline>
    <contour>
      <point x="978" y="354" type="line"/>
      <point x="978" y="510" type="line"/>
      <point x="787" y="510" type="line"/>
      <point x="787" y="1430" type="line"/>
      <point x="681" y="1430" type="line"/>
      <point x="315" y="906" type="line"/>
      <point x="319" y="902" type="line" smooth="yes"/>
      <point x="322" y="899"/>
      <point x="327" y="897"/>
      <point x="336" y="897" type="curve"/>
      <point x="340" y="896"/>
      <point x="343" y="895"/>
      <point x="345" y="894" type="curve"/>
      <point x="346" y="893"/>
      <point x="346" y="892"/>
      <point x="346" y="891" type="curve" smooth="yes"/>
      <point x="346" y="889" type="line" smooth="yes"/>
      <point x="346" y="888"/>
      <point x="348" y="887"/>
      <point x="348" y="887" type="curve"/>
      <point x="349" y="886"/>
      <point x="349" y="884"/>
      <point x="348" y="883" type="curve"/>
      <point x="346" y="880" type="line"/>
      <point x="344" y="879" type="line"/>
      <point x="340" y="879" type="line"/>
      <point x="352" y="874" type="line"/>
      <point x="353" y="873"/>
      <point x="353" y="872"/>
      <point x="353" y="871" type="curve"/>
      <point x="352" y="870"/>
      <point x="352" y="870"/>
      <point x="352" y="871" type="curve"/>
      <point x="351" y="871"/>
      <point x="351" y="871"/>
      <point x="350" y="871" type="curve"/>
      <point x="344" y="873" type="line"/>
      <point x="338" y="875" type="line"/>
      <point x="342" y="872" type="line"/>
      <point x="344" y="870" type="line"/>
      <point x="344" y="870"/>
      <point x="344" y="870"/>
      <point x="345" y="869" type="curve"/>
      <point x="345" y="868"/>
      <point x="344" y="867"/>
      <point x="343" y="867" type="curve" smooth="yes"/>
      <point x="343" y="867"/>
      <point x="343" y="867"/>
      <point x="343" y="868" type="curve"/>
      <point x="343" y="868"/>
      <point x="343" y="868"/>
      <point x="342" y="868" type="curve"/>
      <point x="335" y="873" type="line"/>
      <point x="335" y="872" type="line" smooth="yes"/>
      <point x="335" y="871"/>
      <point x="333" y="870"/>
      <point x="332" y="871" type="curve"/>
      <point x="326" y="878" type="line"/>
      <point x="320" y="886" type="line"/>
      <point x="320" y="886"/>
      <point x="316" y="889"/>
      <point x="308" y="896" type="curve"/>
      <point x="44" y="518" type="line"/>
      <point x="44" y="354" type="line"/>
      <point x="617" y="354" type="line"/>
      <point x="617" y="0" type="line"/>
      <point x="787" y="0" type="line"/>
      <point x="787" y="354" type="line"/>
    </contour>
    <contour>
      <point x="613" y="1204" type="line"/>
      <point x="617" y="1204" type="line"/>
      <point x="617" y="510" type="line"/>
      <point x="130" y="510" type="line"/>
    </contour>
    <contour>
      <point x="338" y="883" type="line"/>
      <point x="343" y="883" type="line"/>
      <point x="344" y="885" type="line"/>
      <point x="343" y="887"/>
      <point x="343" y="888"/>
      <point x="344" y="889" type="curve"/>
      <point x="342" y="890" type="line"/>
      <point x="339" y="892"/>
      <point x="336" y="892"/>
      <point x="334" y="890" type="curve" smooth="yes"/>
      <point x="333" y="889"/>
      <point x="333" y="888"/>
      <point x="333" y="887" type="curve"/>
      <point x="334" y="885" type="line"/>
    </contour>
  </outline>
</glyph>
<glyph name="five" format="2">
  <advance width="1024"/>
  <unicode hex="0035"/>
  <note>
five
</note>
  <outline>
    <contour>
      <point x="597" y="965" type="curve" smooth="yes"/>
      <point x="501" y="1010"/>
      <point x="463" y="1022"/>
      <point x="339" y="1047" type="curve"/>
      <point x="433" y="1249" type="line"/>
      <point x="847" y="1249" type="line"/>
      <point x="923" y="1407" type="line"/>
      <point x="433" y="1407" type="line"/>
      <point x="236" y="1000" type="line"/>
      <point x="240" y="996" type="line" smooth="yes"/>
      <point x="243" y="993"/>
      <point x="248" y="991"/>
      <point x="257" y="991" type="curve"/>
      <point x="261" y="990"/>
      <point x="264" y="989"/>
      <point x="266" y="988" type="curve"/>
      <point x="267" y="987"/>
      <point x="267" y="986"/>
      <point x="267" y="985" type="curve" smooth="yes"/>
      <point x="267" y="983" type="line" smooth="yes"/>
      <point x="267" y="982"/>
      <point x="269" y="981"/>
      <point x="269" y="981" type="curve"/>
      <point x="270" y="980"/>
      <point x="270" y="978"/>
      <point x="269" y="977" type="curve"/>
      <point x="267" y="974" type="line"/>
      <point x="265" y="973" type="line"/>
      <point x="261" y="973" type="line"/>
      <point x="273" y="968" type="line"/>
      <point x="274" y="967"/>
      <point x="274" y="966"/>
      <point x="274" y="965" type="curve"/>
      <point x="273" y="964"/>
      <point x="273" y="964"/>
      <point x="273" y="965" type="curve"/>
      <point x="272" y="965"/>
      <point x="272" y="965"/>
      <point x="271" y="965" type="curve"/>
      <point x="265" y="967" type="line"/>
      <point x="259" y="969" type="line"/>
      <point x="263" y="966" type="line"/>
      <point x="265" y="964" type="line"/>
      <point x="265" y="964"/>
      <point x="265" y="964"/>
      <point x="266" y="963" type="curve"/>
      <point x="266" y="962"/>
      <point x="265" y="961"/>
      <point x="264" y="961" type="curve" smooth="yes"/>
      <point x="264" y="961"/>
      <point x="264" y="961"/>
      <point x="264" y="962" type="curve"/>
      <point x="264" y="962"/>
      <point x="264" y="962"/>
      <point x="263" y="962" type="curve"/>
      <point x="256" y="967" type="line"/>
      <point x="256" y="966" type="line" smooth="yes"/>
      <point x="256" y="965"/>
      <point x="254" y="964"/>
      <point x="253" y="965" type="curve"/>
      <point x="247" y="972" type="line"/>
      <point x="241" y="980" type="line"/>
      <point x="234" y="987"/>
      <point x="231" y="990"/>
      <point x="231" y="990" type="curve"/>
      <point x="175" y="874" type="line"/>
      <point x="289" y="871"/>
      <point x="391" y="850"/>
      <point x="482" y="809" type="curve" smooth="yes"/>
      <point x="663" y="728"/>
      <point x="771" y="582"/>
      <point x="771" y="406" type="curve" smooth="yes"/>
      <point x="771" y="351"/>
      <point x="757" y="298"/>
      <point x="730" y="247" type="curve" smooth="yes"/>
      <point x="674" y="146"/>
      <point x="576" y="80"/>
      <point x="472" y="80" type="curve" smooth="yes"/>
      <point x="422" y="80"/>
      <point x="372" y="97"/>
      <point x="321" y="131" type="curve" smooth="yes"/>
      <point x="284" y="154" type="line" smooth="yes"/>
      <point x="255" y="173"/>
      <point x="227" y="182"/>
      <point x="198" y="182" type="curve" smooth="yes"/>
      <point x="157" y="182"/>
      <point x="126" y="152"/>
      <point x="126" y="111" type="curve" smooth="yes"/>
      <point x="126" y="88"/>
      <point x="136" y="66"/>
      <point x="157" y="45" type="curve" smooth="yes"/>
      <point x="197" y="3"/>
      <point x="269" y="-25"/>
      <point x="349" y="-25" type="curve" smooth="yes"/>
      <point x="490" y="-25"/>
      <point x="636" y="34"/>
      <point x="737" y="131" type="curve" smooth="yes"/>
      <point x="838" y="228"/>
      <point x="900" y="366"/>
      <point x="900" y="502" type="curve" smooth="yes"/>
      <point x="900" y="697"/>
      <point x="784" y="873"/>
    </contour>
    <contour>
      <point x="263" y="984" type="line"/>
      <point x="260" y="986"/>
      <point x="257" y="986"/>
      <point x="255" y="984" type="curve" smooth="yes"/>
      <point x="254" y="983"/>
      <point x="254" y="982"/>
      <point x="254" y="981" type="curve"/>
      <point x="255" y="979" type="line"/>
      <point x="259" y="977" type="line"/>
      <point x="264" y="977" type="line"/>
      <point x="265" y="979" type="line"/>
      <point x="264" y="981"/>
      <point x="264" y="982"/>
      <point x="265" y="983" type="curve"/>
    </contour>
  </outline>
</glyph>
<glyph name="six" format="2">
  <advance width="1024"/>
  <unicode hex="0036"/>
  <note>
six
</note>
  <outline>
    <contour>
      <point x="783" y="831" type="curve" smooth="yes"/>
      <point x="730" y="866"/>
      <point x="669" y="883"/>
      <point x="601" y="883" type="curve" smooth="yes"/>
      <point x="506" y="883"/>
      <point x="412" y="846"/>
      <point x="320" y="773" type="curve"/>
      <point x="317" y="770"/>
      <point x="315" y="768"/>
      <point x="314" y="766" type="curve" smooth="yes"/>
      <point x="313" y="764"/>
      <point x="311" y="762"/>
      <point x="309" y="760" type="curve"/>
      <point x="303" y="752" type="line"/>
      <point x="297" y="745" type="line"/>
      <point x="296" y="744"/>
      <point x="294" y="745"/>
      <point x="294" y="746" type="curve" smooth="yes"/>
      <point x="294" y="747" type="line"/>
      <point x="287" y="742" type="line"/>
      <point x="286" y="741"/>
      <point x="284" y="743"/>
      <point x="285" y="744" type="curve"/>
      <point x="285" y="744"/>
      <point x="285" y="744"/>
      <point x="285" y="744" type="curve"/>
      <point x="287" y="746" type="line"/>
      <point x="291" y="749" type="line"/>
      <point x="285" y="747" type="line"/>
      <point x="279" y="745" type="line"/>
      <point x="278" y="745"/>
      <point x="278" y="745"/>
      <point x="278" y="745" type="curve"/>
      <point x="277" y="744"/>
      <point x="277" y="744"/>
      <point x="276" y="745" type="curve"/>
      <point x="276" y="746"/>
      <point x="276" y="747"/>
      <point x="277" y="748" type="curve"/>
      <point x="289" y="753" type="line"/>
      <point x="285" y="753" type="line"/>
      <point x="283" y="754" type="line"/>
      <point x="281" y="757" type="line"/>
      <point x="280" y="758"/>
      <point x="280" y="760"/>
      <point x="281" y="761" type="curve"/>
      <point x="281" y="761"/>
      <point x="283" y="762"/>
      <point x="283" y="763" type="curve" smooth="yes"/>
      <point x="283" y="765" type="line" smooth="yes"/>
      <point x="283" y="766"/>
      <point x="283" y="767"/>
      <point x="284" y="768" type="curve"/>
      <point x="286" y="769"/>
      <point x="289" y="770"/>
      <point x="294" y="771" type="curve"/>
      <point x="302" y="771"/>
      <point x="307" y="773"/>
      <point x="310" y="776" type="curve" smooth="yes"/>
      <point x="314" y="780" type="line"/>
      <point x="352" y="922"/>
      <point x="408" y="1040"/>
      <point x="482" y="1135" type="curve" smooth="yes"/>
      <point x="557" y="1232"/>
      <point x="662" y="1317"/>
      <point x="751" y="1354" type="curve" smooth="yes"/>
      <point x="811" y="1381"/>
      <point x="840" y="1386"/>
      <point x="927" y="1389" type="curve"/>
      <point x="927" y="1430" type="line"/>
      <point x="882" y="1430" type="line" smooth="yes"/>
      <point x="682" y="1430"/>
      <point x="476" y="1331"/>
      <point x="331" y="1170" type="curve" smooth="yes"/>
      <point x="184" y="1009"/>
      <point x="95" y="782"/>
      <point x="95" y="561" type="curve" smooth="yes"/>
      <point x="95" y="450"/>
      <point x="114" y="350"/>
      <point x="153" y="263" type="curve" smooth="yes"/>
      <point x="229" y="83"/>
      <point x="371" y="-25"/>
      <point x="534" y="-25" type="curve" smooth="yes"/>
      <point x="610" y="-25"/>
      <point x="681" y="-3"/>
      <point x="746" y="42" type="curve" smooth="yes"/>
      <point x="876" y="130"/>
      <point x="955" y="297"/>
      <point x="955" y="477" type="curve" smooth="yes"/>
      <point x="955" y="633"/>
      <point x="891" y="762"/>
    </contour>
    <contour>
      <point x="673" y="79" type="curve" smooth="yes"/>
      <point x="640" y="52"/>
      <point x="601" y="39"/>
      <point x="556" y="39" type="curve" smooth="yes"/>
      <point x="505" y="39"/>
      <point x="459" y="61"/>
      <point x="418" y="104" type="curve" smooth="yes"/>
      <point x="337" y="190"/>
      <point x="286" y="353"/>
      <point x="286" y="541" type="curve" smooth="yes"/>
      <point x="286" y="588"/>
      <point x="291" y="644"/>
      <point x="300" y="711" type="curve"/>
      <point x="388" y="771"/>
      <point x="445" y="793"/>
      <point x="513" y="793" type="curve" smooth="yes"/>
      <point x="632" y="793"/>
      <point x="712" y="716"/>
      <point x="753" y="561" type="curve" smooth="yes"/>
      <point x="769" y="495"/>
      <point x="777" y="429"/>
      <point x="777" y="362" type="curve" smooth="yes"/>
      <point x="777" y="231"/>
      <point x="740" y="131"/>
    </contour>
    <contour>
      <point x="286" y="757" type="line"/>
      <point x="291" y="757" type="line"/>
      <point x="295" y="759" type="line"/>
      <point x="296" y="761" type="line"/>
      <point x="296" y="762"/>
      <point x="296" y="763"/>
      <point x="295" y="764" type="curve" smooth="yes"/>
      <point x="293" y="766"/>
      <point x="290" y="766"/>
      <point x="287" y="764" type="curve"/>
      <point x="285" y="763" type="line"/>
      <point x="286" y="762"/>
      <point x="286" y="761"/>
      <point x="285" y="759" type="curve"/>
    </contour>
  </outline>
</glyph>
<glyph name="seven" format="2">
  <advance width="1024"/>
  <unicode hex="0037"/>
  <note>
seven
</note>
  <outline>
    <contour>
      <point x="787" y="1245" type="line"/>
      <point x="374" y="-25" type="line"/>
      <point x="493" y="-25" type="line"/>
      <point x="945" y="1407" type="line"/>
      <point x="216" y="1407" type="line"/>
      <point x="220" y="1403" type="line" smooth="yes"/>
      <point x="223" y="1400"/>
      <point x="228" y="1398"/>
      <point x="237" y="1398" type="curve"/>
      <point x="241" y="1397"/>
      <point x="244" y="1396"/>
      <point x="246" y="1395" type="curve"/>
      <point x="247" y="1394"/>
      <point x="247" y="1393"/>
      <point x="247" y="1392" type="curve" smooth="yes"/>
      <point x="247" y="1390" type="line" smooth="yes"/>
      <point x="247" y="1389"/>
      <point x="249" y="1388"/>
      <point x="249" y="1388" type="curve"/>
      <point x="250" y="1387"/>
      <point x="250" y="1385"/>
      <point x="249" y="1384" type="curve"/>
      <point x="247" y="1381" type="line"/>
      <point x="245" y="1380" type="line"/>
      <point x="241" y="1380" type="line"/>
      <point x="253" y="1375" type="line"/>
      <point x="254" y="1374"/>
      <point x="254" y="1373"/>
      <point x="254" y="1372" type="curve"/>
      <point x="253" y="1371"/>
      <point x="253" y="1371"/>
      <point x="253" y="1372" type="curve"/>
      <point x="252" y="1372"/>
      <point x="252" y="1372"/>
      <point x="251" y="1372" type="curve"/>
      <point x="245" y="1374" type="line"/>
      <point x="239" y="1376" type="line"/>
      <point x="243" y="1373" type="line"/>
      <point x="245" y="1371" type="line"/>
      <point x="245" y="1371"/>
      <point x="245" y="1371"/>
      <point x="246" y="1370" type="curve"/>
      <point x="246" y="1369"/>
      <point x="245" y="1368"/>
      <point x="244" y="1368" type="curve" smooth="yes"/>
      <point x="244" y="1368"/>
      <point x="244" y="1368"/>
      <point x="244" y="1369" type="curve"/>
      <point x="244" y="1369"/>
      <point x="244" y="1369"/>
      <point x="243" y="1369" type="curve"/>
      <point x="236" y="1374" type="line"/>
      <point x="236" y="1373" type="line" smooth="yes"/>
      <point x="236" y="1372"/>
      <point x="234" y="1371"/>
      <point x="233" y="1372" type="curve"/>
      <point x="227" y="1379" type="line"/>
      <point x="221" y="1387" type="line"/>
      <point x="220" y="1388"/>
      <point x="218" y="1390"/>
      <point x="215" y="1393" type="curve"/>
      <point x="212" y="1395"/>
      <point x="210" y="1397"/>
      <point x="209" y="1399" type="curve"/>
      <point x="85" y="1090" type="line"/>
      <point x="120" y="1075" type="line"/>
      <point x="196" y="1196"/>
      <point x="267" y="1245"/>
      <point x="374" y="1245" type="curve" smooth="yes"/>
    </contour>
    <contour>
      <point x="243" y="1391" type="line"/>
      <point x="240" y="1393"/>
      <point x="237" y="1393"/>
      <point x="235" y="1391" type="curve" smooth="yes"/>
      <point x="234" y="1390"/>
      <point x="234" y="1389"/>
      <point x="234" y="1388" type="curve"/>
      <point x="235" y="1386" type="line"/>
      <point x="239" y="1384" type="line"/>
      <point x="244" y="1384" type="line"/>
      <point x="245" y="1386" type="line"/>
      <point x="244" y="1388"/>
      <point x="244" y="1389"/>
      <point x="245" y="1390" type="curve"/>
    </contour>
  </outline>
</glyph>
<glyph name="eight" format="2">
  <advance width="1024"/>
  <unicode hex="0038"/>
  <note>
eight
</note>
  <outline>
    <contour>
      <point x="118" y="326" type="curve" smooth="yes"/>
      <point x="118" y="263"/>
      <point x="136" y="204"/>
      <point x="171" y="151" type="curve" smooth="yes"/>
      <point x="241" y="43"/>
      <point x="370" y="-25"/>
      <point x="513" y="-25" type="curve" smooth="yes"/>
      <point x="584" y="-25"/>
      <point x="650" y="-9"/>
      <point x="710" y="23" type="curve" smooth="yes"/>
      <point x="829" y="87"/>
      <point x="902" y="204"/>
      <point x="902" y="336" type="curve" smooth="yes"/>
      <point x="902" y="388"/>
      <point x="893" y="436"/>
      <point x="874" y="480" type="curve" smooth="yes"/>
      <point x="837" y="567"/>
      <point x="753" y="656"/>
      <point x="601" y="772" type="curve"/>
      <point x="589" y="782" type="line"/>
      <point x="788" y="905"/>
      <point x="871" y="1007"/>
      <point x="871" y="1128" type="curve" smooth="yes"/>
      <point x="871" y="1181"/>
      <point x="854" y="1231"/>
      <point x="821" y="1278" type="curve" smooth="yes"/>
      <point x="754" y="1370"/>
      <point x="630" y="1430"/>
      <point x="501" y="1430" type="curve" smooth="yes"/>
      <point x="433" y="1430"/>
      <point x="371" y="1416"/>
      <point x="315" y="1387" type="curve" smooth="yes"/>
      <point x="202" y="1330"/>
      <point x="134" y="1224"/>
      <point x="134" y="1100" type="curve" smooth="yes"/>
      <point x="134" y="916"/>
      <point x="263" y="818"/>
      <point x="372" y="733" type="curve" smooth="yes"/>
      <point x="392" y="717" type="line"/>
      <point x="372" y="701" type="line" smooth="yes"/>
      <point x="317" y="658"/>
      <point x="273" y="620"/>
      <point x="241" y="588" type="curve" smooth="yes"/>
      <point x="177" y="524"/>
      <point x="118" y="434"/>
    </contour>
    <contour>
      <point x="280" y="1161" type="curve" smooth="yes"/>
      <point x="280" y="1201"/>
      <point x="290" y="1237"/>
      <point x="309" y="1270" type="curve" smooth="yes"/>
      <point x="348" y="1334"/>
      <point x="418" y="1374"/>
      <point x="503" y="1374" type="curve" smooth="yes"/>
      <point x="648" y="1374"/>
      <point x="732" y="1286"/>
      <point x="732" y="1130" type="curve" smooth="yes"/>
      <point x="732" y="1011"/>
      <point x="678" y="927"/>
      <point x="538" y="823" type="curve"/>
      <point x="466" y="883" type="line" smooth="yes"/>
      <point x="334" y="987"/>
      <point x="280" y="1069"/>
    </contour>
    <contour>
      <point x="269" y="342" type="curve" smooth="yes"/>
      <point x="269" y="474"/>
      <point x="320" y="576"/>
      <point x="439" y="680" type="curve"/>
      <point x="523" y="608" type="line" smooth="yes"/>
      <point x="699" y="459"/>
      <point x="763" y="367"/>
      <point x="763" y="264" type="curve" smooth="yes"/>
      <point x="763" y="222"/>
      <point x="753" y="184"/>
      <point x="732" y="149" type="curve" smooth="yes"/>
      <point x="691" y="80"/>
      <point x="614" y="37"/>
      <point x="525" y="37" type="curve" smooth="yes"/>
      <point x="476" y="37"/>
      <point x="432" y="50"/>
      <point x="393" y="76" type="curve" smooth="yes"/>
      <point x="316" y="128"/>
      <point x="269" y="225"/>
    </contour>
  </outline>
</glyph>
<glyph name="nine" format="2">
  <advance width="1024"/>
  <unicode hex="0039"/>
  <note>
nine
</note>
  <outline>
    <contour>
      <point x="720" y="1355" type="curve" smooth="yes"/>
      <point x="653" y="1405"/>
      <point x="578" y="1430"/>
      <point x="493" y="1430" type="curve" smooth="yes"/>
      <point x="341" y="1430"/>
      <point x="203" y="1337"/>
      <point x="130" y="1186" type="curve" smooth="yes"/>
      <point x="94" y="1113"/>
      <point x="74" y="1025"/>
      <point x="74" y="936" type="curve" smooth="yes"/>
      <point x="74" y="862"/>
      <point x="88" y="793"/>
      <point x="117" y="729" type="curve" smooth="yes"/>
      <point x="173" y="601"/>
      <point x="291" y="522"/>
      <point x="427" y="522" type="curve" smooth="yes"/>
      <point x="520" y="522"/>
      <point x="611" y="554"/>
      <point x="702" y="618" type="curve"/>
      <point x="704" y="619"/>
      <point x="706" y="621"/>
      <point x="709" y="624" type="curve"/>
      <point x="711" y="627"/>
      <point x="713" y="629"/>
      <point x="714" y="630" type="curve"/>
      <point x="720" y="638" type="line"/>
      <point x="726" y="645" type="line"/>
      <point x="727" y="646"/>
      <point x="729" y="645"/>
      <point x="729" y="644" type="curve" smooth="yes"/>
      <point x="729" y="643" type="line"/>
      <point x="736" y="648" type="line"/>
      <point x="737" y="649"/>
      <point x="739" y="647"/>
      <point x="739" y="647" type="curve"/>
      <point x="738" y="646"/>
      <point x="738" y="646"/>
      <point x="738" y="646" type="curve"/>
      <point x="736" y="644" type="line"/>
      <point x="732" y="641" type="line"/>
      <point x="738" y="643" type="line"/>
      <point x="744" y="645" type="line"/>
      <point x="745" y="645"/>
      <point x="745" y="645"/>
      <point x="746" y="646" type="curve"/>
      <point x="746" y="646"/>
      <point x="746" y="646"/>
      <point x="747" y="645" type="curve"/>
      <point x="747" y="644"/>
      <point x="747" y="643"/>
      <point x="746" y="642" type="curve"/>
      <point x="734" y="637" type="line"/>
      <point x="738" y="637" type="line"/>
      <point x="740" y="636" type="line"/>
      <point x="742" y="633" type="line"/>
      <point x="743" y="632"/>
      <point x="743" y="630"/>
      <point x="742" y="629" type="curve"/>
      <point x="742" y="629"/>
      <point x="740" y="628"/>
      <point x="740" y="627" type="curve" smooth="yes"/>
      <point x="740" y="625" type="line" smooth="yes"/>
      <point x="740" y="624"/>
      <point x="740" y="623"/>
      <point x="739" y="622" type="curve"/>
      <point x="737" y="621"/>
      <point x="734" y="620"/>
      <point x="730" y="620" type="curve"/>
      <point x="725" y="619"/>
      <point x="722" y="619"/>
      <point x="719" y="618" type="curve"/>
      <point x="718" y="618"/>
      <point x="717" y="618"/>
      <point x="715" y="617" type="curve" smooth="yes"/>
      <point x="713" y="616"/>
      <point x="711" y="613"/>
      <point x="710" y="610" type="curve"/>
      <point x="667" y="446"/>
      <point x="588" y="307"/>
      <point x="474" y="193" type="curve" smooth="yes"/>
      <point x="357" y="73"/>
      <point x="246" y="22"/>
      <point x="93" y="18" type="curve"/>
      <point x="93" y="-18" type="line"/>
      <point x="116" y="-23"/>
      <point x="135" y="-25"/>
      <point x="149" y="-25" type="curve" smooth="yes"/>
      <point x="346" y="-25"/>
      <point x="550" y="75"/>
      <point x="697" y="238" type="curve" smooth="yes"/>
      <point x="844" y="401"/>
      <point x="933" y="627"/>
      <point x="933" y="846" type="curve" smooth="yes"/>
      <point x="933" y="1069"/>
      <point x="855" y="1255"/>
    </contour>
    <contour>
      <point x="728" y="698" type="curve"/>
      <point x="653" y="641"/>
      <point x="582" y="612"/>
      <point x="517" y="612" type="curve" smooth="yes"/>
      <point x="425" y="612"/>
      <point x="349" y="664"/>
      <point x="310" y="756" type="curve" smooth="yes"/>
      <point x="271" y="843"/>
      <point x="251" y="946"/>
      <point x="251" y="1065" type="curve" smooth="yes"/>
      <point x="251" y="1126"/>
      <point x="260" y="1179"/>
      <point x="279" y="1225" type="curve" smooth="yes"/>
      <point x="315" y="1316"/>
      <point x="383" y="1368"/>
      <point x="474" y="1368" type="curve" smooth="yes"/>
      <point x="528" y="1368"/>
      <point x="575" y="1347"/>
      <point x="615" y="1306" type="curve" smooth="yes"/>
      <point x="695" y="1223"/>
      <point x="740" y="1063"/>
      <point x="740" y="856" type="curve" smooth="yes"/>
      <point x="740" y="808"/>
      <point x="736" y="755"/>
    </contour>
    <contour>
      <point x="737" y="633" type="line"/>
      <point x="732" y="633" type="line"/>
      <point x="728" y="631" type="line"/>
      <point x="727" y="629" type="line"/>
      <point x="727" y="628"/>
      <point x="727" y="627"/>
      <point x="728" y="626" type="curve" smooth="yes"/>
      <point x="730" y="624"/>
      <point x="733" y="624"/>
      <point x="736" y="626" type="curve"/>
      <point x="738" y="627" type="line"/>
      <point x="737" y="628"/>
      <point x="737" y="629"/>
      <point x="738" y="631" type="curve"/>
    </contour>
  </outline>
</glyph>
<glyph name="colon" format="2">
  <advance width="555"/>
  <unicode hex="003A"/>
  <note>
colon
</note>
  <outline>
    <contour>
      <point x="200" y="783" type="curve" smooth="yes"/>
      <point x="221" y="761"/>
      <point x="247" y="750"/>
      <point x="278" y="750" type="curve" smooth="yes"/>
      <point x="339" y="750"/>
      <point x="390" y="801"/>
      <point x="390" y="862" type="curve" smooth="yes"/>
      <point x="390" y="923"/>
      <point x="339" y="973"/>
      <point x="278" y="973" type="curve" smooth="yes"/>
      <point x="217" y="973"/>
      <point x="167" y="923"/>
      <point x="167" y="862" type="curve" smooth="yes"/>
      <point x="167" y="831"/>
      <point x="178" y="805"/>
    </contour>
    <contour>
      <point x="199" y="6" type="curve" smooth="yes"/>
      <point x="221" y="-16"/>
      <point x="247" y="-27"/>
      <point x="278" y="-27" type="curve" smooth="yes"/>
      <point x="341" y="-27"/>
      <point x="392" y="23"/>
      <point x="392" y="86" type="curve" smooth="yes"/>
      <point x="392" y="149"/>
      <point x="341" y="199"/>
      <point x="278" y="199" type="curve" smooth="yes"/>
      <point x="217" y="199"/>
      <point x="165" y="149"/>
      <point x="165" y="86" type="curve" smooth="yes"/>
      <point x="165" y="55"/>
      <point x="176" y="28"/>
    </contour>
  </outline>
</glyph>
<glyph name="semicolon" format="2">
  <advance width="555"/>
  <unicode hex="003B"/>
  <note>
semicolon
</note>
  <outline>
    <contour>
      <point x="165" y="862" type="curve" smooth="yes"/>
      <point x="165" y="799"/>
      <point x="217" y="750"/>
      <point x="278" y="750" type="curve" smooth="yes"/>
      <point x="339" y="750"/>
      <point x="390" y="799"/>
      <point x="390" y="862" type="curve" smooth="yes"/>
      <point x="390" y="923"/>
      <point x="339" y="973"/>
      <point x="278" y="973" type="curve" smooth="yes"/>
      <point x="217" y="973"/>
      <point x="165" y="923"/>
    </contour>
    <contour>
      <point x="126" y="-342" type="line"/>
      <point x="324" y="-271"/>
      <point x="423" y="-159"/>
      <point x="423" y="-4" type="curve" smooth="yes"/>
      <point x="423" y="36"/>
      <point x="416" y="72"/>
      <point x="402" y="103" type="curve" smooth="yes"/>
      <point x="373" y="166"/>
      <point x="320" y="203"/>
      <point x="257" y="203" type="curve" smooth="yes"/>
      <point x="185" y="203"/>
      <point x="128" y="150"/>
      <point x="128" y="82" type="curve" smooth="yes"/>
      <point x="128" y="23"/>
      <point x="178" y="-27"/>
      <point x="235" y="-27" type="curve" smooth="yes"/>
      <point x="248" y="-27"/>
      <point x="263" y="-23"/>
      <point x="282" y="-16" type="curve"/>
      <point x="304" y="-2" type="line"/>
      <point x="310" y="1"/>
      <point x="316" y="2"/>
      <point x="321" y="2" type="curve" smooth="yes"/>
      <point x="340" y="2"/>
      <point x="351" y="-16"/>
      <point x="351" y="-45" type="curve" smooth="yes"/>
      <point x="351" y="-70"/>
      <point x="338" y="-120"/>
      <point x="323" y="-147" type="curve" smooth="yes"/>
      <point x="284" y="-219"/>
      <point x="230" y="-262"/>
      <point x="126" y="-303" type="curve"/>
    </contour>
  </outline>
</glyph>
<glyph name="less" format="2">
  <advance width="1368"/>
  <unicode hex="003C"/>
  <note>
less
</note>
  <outline>
    <contour>
      <point x="146" y="616" type="line"/>
      <point x="1220" y="160" type="line"/>
      <point x="1220" y="262" type="line"/>
      <point x="269" y="657" type="line"/>
      <point x="1220" y="1051" type="line"/>
      <point x="1220" y="1153" type="line"/>
      <point x="146" y="700" type="line"/>
    </contour>
  </outline>
</glyph>
<glyph name="equal" format="2">
  <advance width="1366"/>
  <unicode hex="003D"/>
  <note>
equal
</note>
  <outline>
    <contour>
      <point x="144" y="846" type="line"/>
      <point x="1220" y="846" type="line"/>
      <point x="1220" y="940" type="line"/>
      <point x="144" y="940" type="line"/>
    </contour>
    <contour>
      <point x="144" y="381" type="line"/>
      <point x="1220" y="381" type="line"/>
      <point x="1220" y="475" type="line"/>
      <point x="144" y="475" type="line"/>
    </contour>
  </outline>
</glyph>
<glyph name="greater" format="2">
  <advance width="1366"/>
  <unicode hex="003E"/>
  <note>
greater
</note>
  <outline>
    <contour>
      <point x="146" y="160" type="line"/>
      <point x="1220" y="614" type="line"/>
      <point x="1220" y="698" type="line"/>
      <point x="146" y="1153" type="line"/>
      <point x="146" y="1051" type="line"/>
      <point x="1095" y="655" type="line"/>
      <point x="146" y="262" type="line"/>
    </contour>
  </outline>
</glyph>
<glyph name="question" format="2">
  <advance width="788"/>
  <unicode hex="003F"/>
  <note>
question
</note>
  <outline>
    <contour>
      <point x="574" y="1395" type="curve" smooth="yes"/>
      <point x="521" y="1424"/>
      <point x="463" y="1438"/>
      <point x="398" y="1438" type="curve" smooth="yes"/>
      <point x="335" y="1438"/>
      <point x="276" y="1425"/>
      <point x="222" y="1398" type="curve" smooth="yes"/>
      <point x="114" y="1345"/>
      <point x="46" y="1245"/>
      <point x="46" y="1137" type="curve" smooth="yes"/>
      <point x="46" y="1111"/>
      <point x="52" y="1086"/>
      <point x="63" y="1062" type="curve" smooth="yes"/>
      <point x="85" y="1014"/>
      <point x="122" y="983"/>
      <point x="163" y="983" type="curve" smooth="yes"/>
      <point x="181" y="983"/>
      <point x="198" y="990"/>
      <point x="213" y="1004" type="curve"/>
      <point x="209" y="1008" type="line" smooth="yes"/>
      <point x="206" y="1011"/>
      <point x="201" y="1013"/>
      <point x="193" y="1014" type="curve"/>
      <point x="188" y="1014"/>
      <point x="185" y="1015"/>
      <point x="183" y="1016" type="curve"/>
      <point x="182" y="1017"/>
      <point x="182" y="1018"/>
      <point x="182" y="1019" type="curve" smooth="yes"/>
      <point x="182" y="1021" type="line" smooth="yes"/>
      <point x="182" y="1022"/>
      <point x="180" y="1023"/>
      <point x="180" y="1023" type="curve"/>
      <point x="179" y="1024"/>
      <point x="179" y="1026"/>
      <point x="180" y="1027" type="curve"/>
      <point x="182" y="1030" type="line"/>
      <point x="184" y="1031" type="line"/>
      <point x="188" y="1031" type="line"/>
      <point x="176" y="1036" type="line"/>
      <point x="175" y="1037"/>
      <point x="175" y="1038"/>
      <point x="175" y="1039" type="curve"/>
      <point x="176" y="1040"/>
      <point x="176" y="1040"/>
      <point x="177" y="1040" type="curve"/>
      <point x="177" y="1039"/>
      <point x="177" y="1039"/>
      <point x="178" y="1039" type="curve"/>
      <point x="184" y="1037" type="line"/>
      <point x="190" y="1035" type="line"/>
      <point x="186" y="1038" type="line"/>
      <point x="184" y="1040" type="line"/>
      <point x="184" y="1040"/>
      <point x="184" y="1041"/>
      <point x="184" y="1042" type="curve"/>
      <point x="183" y="1043"/>
      <point x="184" y="1043"/>
      <point x="185" y="1043" type="curve"/>
      <point x="185" y="1043"/>
      <point x="185" y="1043"/>
      <point x="186" y="1043" type="curve"/>
      <point x="186" y="1043"/>
      <point x="186" y="1043"/>
      <point x="186" y="1042" type="curve"/>
      <point x="193" y="1037" type="line"/>
      <point x="193" y="1038" type="line" smooth="yes"/>
      <point x="193" y="1039"/>
      <point x="195" y="1040"/>
      <point x="196" y="1039" type="curve"/>
      <point x="202" y="1032" type="line"/>
      <point x="208" y="1024" type="line"/>
      <point x="214" y="1018"/>
      <point x="218" y="1015"/>
      <point x="219" y="1014" type="curve"/>
      <point x="221" y="1013" type="line"/>
      <point x="234" y="1030"/>
      <point x="241" y="1048"/>
      <point x="241" y="1067" type="curve" smooth="yes"/>
      <point x="241" y="1082"/>
      <point x="236" y="1101"/>
      <point x="226" y="1124" type="curve"/>
      <point x="189" y="1192" type="line"/>
      <point x="180" y="1213"/>
      <point x="175" y="1228"/>
      <point x="175" y="1239" type="curve" smooth="yes"/>
      <point x="175" y="1261"/>
      <point x="183" y="1283"/>
      <point x="199" y="1304" type="curve" smooth="yes"/>
      <point x="231" y="1346"/>
      <point x="285" y="1374"/>
      <point x="341" y="1374" type="curve" smooth="yes"/>
      <point x="383" y="1374"/>
      <point x="421" y="1362"/>
      <point x="454" y="1337" type="curve" smooth="yes"/>
      <point x="520" y="1288"/>
      <point x="558" y="1194"/>
      <point x="558" y="1079" type="curve" smooth="yes"/>
      <point x="558" y="1039"/>
      <point x="555" y="1004"/>
      <point x="550" y="974" type="curve" smooth="yes"/>
      <point x="538" y="913"/>
      <point x="523" y="879"/>
      <point x="464" y="748" type="curve" smooth="yes"/>
      <point x="448" y="713" type="line" smooth="yes"/>
      <point x="396" y="598"/>
      <point x="370" y="490"/>
      <point x="370" y="389" type="curve"/>
      <point x="372" y="334" type="line"/>
      <point x="409" y="334" type="line"/>
      <point x="409" y="348" type="line" smooth="yes"/>
      <point x="409" y="389"/>
      <point x="413" y="428"/>
      <point x="420" y="465" type="curve" smooth="yes"/>
      <point x="434" y="539"/>
      <point x="465" y="602"/>
      <point x="564" y="725" type="curve" smooth="yes"/>
      <point x="613" y="784"/>
      <point x="650" y="835"/>
      <point x="676" y="876" type="curve" smooth="yes"/>
      <point x="728" y="958"/>
      <point x="747" y="1024"/>
      <point x="747" y="1116" type="curve" smooth="yes"/>
      <point x="747" y="1235"/>
      <point x="682" y="1338"/>
    </contour>
    <contour>
      <point x="186" y="1020" type="line"/>
      <point x="189" y="1018"/>
      <point x="192" y="1018"/>
      <point x="194" y="1020" type="curve" smooth="yes"/>
      <point x="195" y="1021"/>
      <point x="195" y="1022"/>
      <point x="195" y="1023" type="curve"/>
      <point x="194" y="1025" type="line"/>
      <point x="190" y="1027" type="line"/>
      <point x="185" y="1027" type="line"/>
      <point x="184" y="1025" type="line"/>
      <point x="185" y="1023"/>
      <point x="185" y="1022"/>
      <point x="184" y="1021" type="curve"/>
    </contour>
    <contour>
      <point x="398" y="199" type="curve" smooth="yes"/>
      <point x="335" y="199"/>
      <point x="286" y="147"/>
      <point x="286" y="86" type="curve" smooth="yes"/>
      <point x="286" y="23"/>
      <point x="335" y="-27"/>
      <point x="398" y="-27" type="curve" smooth="yes"/>
      <point x="459" y="-27"/>
      <point x="511" y="23"/>
      <point x="511" y="86" type="curve" smooth="yes"/>
      <point x="511" y="147"/>
      <point x="459" y="199"/>
    </contour>
  </outline>
</glyph>
<glyph name="at" format="2">
  <advance width="1878"/>
  <unicode hex="0040"/>
  <note>
at
</note>
  <outline>
    <contour>
      <point x="95" y="444" type="curve" smooth="yes"/>
      <point x="95" y="135"/>
      <point x="222" y="-94"/>
      <point x="398" y="-242" type="curve" smooth="yes"/>
      <point x="551" y="-371"/>
      <point x="751" y="-442"/>
      <point x="968" y="-442" type="curve" smooth="yes"/>
      <point x="1101" y="-442"/>
      <point x="1226" y="-417"/>
      <point x="1343" y="-366" type="curve" smooth="yes"/>
      <point x="1578" y="-265"/>
      <point x="1754" y="-73"/>
      <point x="1834" y="172" type="curve"/>
      <point x="1777" y="172" type="line"/>
      <point x="1625" y="-183"/>
      <point x="1336" y="-381"/>
      <point x="972" y="-381" type="curve" smooth="yes"/>
      <point x="822" y="-381"/>
      <point x="687" y="-347"/>
      <point x="568" y="-279" type="curve" smooth="yes"/>
      <point x="328" y="-144"/>
      <point x="189" y="109"/>
      <point x="189" y="418" type="curve" smooth="yes"/>
      <point x="189" y="673"/>
      <point x="282" y="921"/>
      <point x="439" y="1094" type="curve" smooth="yes"/>
      <point x="595" y="1267"/>
      <point x="819" y="1370"/>
      <point x="1050" y="1370" type="curve" smooth="yes"/>
      <point x="1174" y="1370"/>
      <point x="1285" y="1344"/>
      <point x="1384" y="1292" type="curve" smooth="yes"/>
      <point x="1580" y="1187"/>
      <point x="1695" y="991"/>
      <point x="1695" y="754" type="curve" smooth="yes"/>
      <point x="1695" y="569"/>
      <point x="1629" y="376"/>
      <point x="1521" y="248" type="curve" smooth="yes"/>
      <point x="1453" y="164"/>
      <point x="1349" y="102"/>
      <point x="1273" y="102" type="curve" smooth="yes"/>
      <point x="1230" y="102"/>
      <point x="1197" y="135"/>
      <point x="1197" y="180" type="curve" smooth="yes"/>
      <point x="1197" y="184" type="line"/>
      <point x="1198" y="211"/>
      <point x="1209" y="264"/>
      <point x="1230" y="344" type="curve" smooth="yes"/>
      <point x="1291" y="559" type="line"/>
      <point x="1408" y="958" type="line"/>
      <point x="1250" y="936" type="line"/>
      <point x="1220" y="825" type="line"/>
      <point x="1216" y="825" type="line"/>
      <point x="1196" y="918"/>
      <point x="1139" y="965"/>
      <point x="1046" y="965" type="curve" smooth="yes"/>
      <point x="958" y="965"/>
      <point x="850" y="906"/>
      <point x="747" y="803" type="curve" smooth="yes"/>
      <point x="596" y="648"/>
      <point x="495" y="432"/>
      <point x="495" y="264" type="curve" smooth="yes"/>
      <point x="495" y="220"/>
      <point x="503" y="180"/>
      <point x="519" y="145" type="curve" smooth="yes"/>
      <point x="550" y="74"/>
      <point x="606" y="31"/>
      <point x="675" y="31" type="curve" smooth="yes"/>
      <point x="749" y="31"/>
      <point x="826" y="67"/>
      <point x="906" y="139" type="curve" smooth="yes"/>
      <point x="967" y="196"/>
      <point x="989" y="220"/>
      <point x="1064" y="315" type="curve"/>
      <point x="1068" y="311" type="line"/>
      <point x="1057" y="262"/>
      <point x="1052" y="215"/>
      <point x="1052" y="170" type="curve" smooth="yes"/>
      <point x="1052" y="77"/>
      <point x="1103" y="31"/>
      <point x="1205" y="31" type="curve" smooth="yes"/>
      <point x="1336" y="31"/>
      <point x="1459" y="91"/>
      <point x="1559" y="197" type="curve" smooth="yes"/>
      <point x="1658" y="303"/>
      <point x="1756" y="486"/>
      <point x="1756" y="737" type="curve" smooth="yes"/>
      <point x="1756" y="871"/>
      <point x="1726" y="990"/>
      <point x="1667" y="1094" type="curve" smooth="yes"/>
      <point x="1547" y="1302"/>
      <point x="1320" y="1423"/>
      <point x="1041" y="1423" type="curve" smooth="yes"/>
      <point x="788" y="1423"/>
      <point x="541" y="1317"/>
      <point x="369" y="1140" type="curve" smooth="yes"/>
      <point x="197" y="963"/>
      <point x="95" y="708"/>
    </contour>
    <contour>
      <point x="652" y="295" type="curve" smooth="yes"/>
      <point x="652" y="383"/>
      <point x="701" y="524"/>
      <point x="774" y="655" type="curve" smooth="yes"/>
      <point x="846" y="786"/>
      <point x="947" y="918"/>
      <point x="1056" y="918" type="curve" smooth="yes"/>
      <point x="1129" y="918"/>
      <point x="1181" y="857"/>
      <point x="1181" y="770" type="curve" smooth="yes"/>
      <point x="1181" y="713"/>
      <point x="1166" y="638"/>
      <point x="1136" y="545" type="curve" smooth="yes"/>
      <point x="1108" y="458"/>
      <point x="1088" y="417"/>
      <point x="1033" y="344" type="curve" smooth="yes"/>
      <point x="936" y="216"/>
      <point x="848" y="152"/>
      <point x="767" y="152" type="curve" smooth="yes"/>
      <point x="746" y="152"/>
      <point x="727" y="158"/>
      <point x="710" y="171" type="curve"/>
      <point x="674" y="196"/>
      <point x="652" y="242"/>
    </contour>
  </outline>
</glyph>
<glyph name="B" format="2">
  <advance width="1366"/>
  <unicode hex="0042"/>
  <note>
B
</note>
  <outline>
    <contour>
      <point x="1189" y="598" type="curve" smooth="yes"/>
      <point x="1132" y="663"/>
      <point x="1072" y="692"/>
      <point x="957" y="716" type="curve"/>
      <point x="954" y="717"/>
      <point x="952" y="716"/>
      <point x="951" y="714" type="curve"/>
      <point x="949" y="711"/>
      <point x="948" y="710"/>
      <point x="947" y="709" type="curve" smooth="yes"/>
      <point x="945" y="707"/>
      <point x="943" y="704"/>
      <point x="941" y="701" type="curve"/>
      <point x="938" y="697"/>
      <point x="936" y="694"/>
      <point x="934" y="693" type="curve"/>
      <point x="933" y="693"/>
      <point x="932" y="693"/>
      <point x="931" y="694" type="curve"/>
      <point x="929" y="695" type="line"/>
      <point x="926" y="694" type="line"/>
      <point x="925" y="694"/>
      <point x="924" y="695"/>
      <point x="923" y="696" type="curve"/>
      <point x="921" y="699" type="line"/>
      <point x="921" y="702" type="line"/>
      <point x="923" y="705" type="line"/>
      <point x="915" y="698" type="line"/>
      <point x="913" y="697"/>
      <point x="911" y="697"/>
      <point x="910" y="698" type="curve" smooth="yes"/>
      <point x="909" y="699"/>
      <point x="909" y="699"/>
      <point x="910" y="700" type="curve"/>
      <point x="911" y="700"/>
      <point x="911" y="700"/>
      <point x="911" y="700" type="curve" smooth="yes"/>
      <point x="911" y="700"/>
      <point x="913" y="702"/>
      <point x="916" y="705" type="curve"/>
      <point x="921" y="709" type="line"/>
      <point x="916" y="707" type="line"/>
      <point x="913" y="706" type="line"/>
      <point x="913" y="706"/>
      <point x="913" y="706"/>
      <point x="912" y="706" type="curve" smooth="yes"/>
      <point x="911" y="706"/>
      <point x="911" y="706"/>
      <point x="910" y="707" type="curve" smooth="yes"/>
      <point x="909" y="708"/>
      <point x="912" y="709"/>
      <point x="913" y="709" type="curve"/>
      <point x="917" y="711"/>
      <point x="920" y="712"/>
      <point x="921" y="712" type="curve"/>
      <point x="920" y="713"/>
      <point x="919" y="715"/>
      <point x="920" y="716" type="curve"/>
      <point x="924" y="717"/>
      <point x="927" y="718"/>
      <point x="929" y="718" type="curve" smooth="yes"/>
      <point x="930" y="718"/>
      <point x="934" y="719"/>
      <point x="939" y="720" type="curve"/>
      <point x="955" y="725" type="line"/>
      <point x="1114" y="764"/>
      <point x="1209" y="880"/>
      <point x="1209" y="1032" type="curve" smooth="yes"/>
      <point x="1209" y="1157"/>
      <point x="1142" y="1268"/>
      <point x="1025" y="1333" type="curve" smooth="yes"/>
      <point x="932" y="1382"/>
      <point x="805" y="1407"/>
      <point x="646" y="1407" type="curve" smooth="yes"/>
      <point x="83" y="1407" type="line"/>
      <point x="83" y="1368" type="line"/>
      <point x="95" y="1368" type="line" smooth="yes"/>
      <point x="146" y="1367"/>
      <point x="184" y="1362"/>
      <point x="211" y="1351" type="curve" smooth="yes"/>
      <point x="264" y="1330"/>
      <point x="286" y="1281"/>
      <point x="286" y="1192" type="curve" smooth="yes"/>
      <point x="286" y="215" type="line" smooth="yes"/>
      <point x="286" y="170"/>
      <point x="280" y="135"/>
      <point x="268" y="110" type="curve" smooth="yes"/>
      <point x="244" y="59"/>
      <point x="190" y="38"/>
      <point x="95" y="37" type="curve" smooth="yes"/>
      <point x="83" y="37" type="line"/>
      <point x="83" y="0" type="line"/>
      <point x="728" y="-2" type="line" smooth="yes"/>
      <point x="915" y="-2"/>
      <point x="1046" y="32"/>
      <point x="1134" y="100" type="curve" smooth="yes"/>
      <point x="1223" y="168"/>
      <point x="1273" y="266"/>
      <point x="1273" y="377" type="curve" smooth="yes"/>
      <point x="1273" y="462"/>
      <point x="1245" y="536"/>
    </contour>
    <contour>
      <point x="509" y="778" type="line"/>
      <point x="509" y="1327" type="line"/>
      <point x="558" y="1335"/>
      <point x="599" y="1339"/>
      <point x="634" y="1339" type="curve" smooth="yes"/>
      <point x="699" y="1339"/>
      <point x="758" y="1326"/>
      <point x="810" y="1301" type="curve" smooth="yes"/>
      <point x="913" y="1250"/>
      <point x="974" y="1156"/>
      <point x="974" y="1040" type="curve" smooth="yes"/>
      <point x="974" y="985"/>
      <point x="961" y="936"/>
      <point x="935" y="893" type="curve" smooth="yes"/>
      <point x="883" y="806"/>
      <point x="786" y="756"/>
      <point x="667" y="756" type="curve" smooth="yes"/>
      <point x="636" y="756"/>
      <point x="595" y="761"/>
      <point x="544" y="772" type="curve"/>
    </contour>
    <contour>
      <point x="931" y="707" type="curve" smooth="yes"/>
      <point x="930" y="707"/>
      <point x="929" y="706"/>
      <point x="928" y="705" type="curve"/>
      <point x="925" y="700" type="line"/>
      <point x="926" y="698" type="line"/>
      <point x="927" y="697"/>
      <point x="928" y="697"/>
      <point x="929" y="698" type="curve"/>
      <point x="930" y="698"/>
      <point x="930" y="698"/>
      <point x="930" y="697" type="curve"/>
      <point x="932" y="698" type="line"/>
      <point x="940" y="701"/>
      <point x="936" y="707"/>
    </contour>
    <contour>
      <point x="854" y="110" type="curve" smooth="yes"/>
      <point x="802" y="85"/>
      <point x="743" y="72"/>
      <point x="677" y="72" type="curve" smooth="yes"/>
      <point x="601" y="72"/>
      <point x="574" y="75"/>
      <point x="509" y="98" type="curve"/>
      <point x="509" y="682" type="line"/>
      <point x="539" y="686"/>
      <point x="571" y="688"/>
      <point x="605" y="688" type="curve" smooth="yes"/>
      <point x="686" y="688"/>
      <point x="758" y="675"/>
      <point x="821" y="650" type="curve" smooth="yes"/>
      <point x="945" y="598"/>
      <point x="1015" y="500"/>
      <point x="1015" y="375" type="curve" smooth="yes"/>
      <point x="1015" y="255"/>
      <point x="957" y="161"/>
    </contour>
  </outline>
</glyph>
<glyph name="C" format="2">
  <advance width="1546"/>
  <unicode hex="0043"/>
  <note>
C
</note>
  <outline>
    <contour>
      <point x="1524" y="490" type="line"/>
      <point x="1472" y="388"/>
      <point x="1413" y="304"/>
      <point x="1346" y="237" type="curve" smooth="yes"/>
      <point x="1213" y="103"/>
      <point x="1064" y="41"/>
      <point x="915" y="41" type="curve" smooth="yes"/>
      <point x="904" y="41"/>
      <point x="888" y="42"/>
      <point x="867" y="43" type="curve"/>
      <point x="754" y="53"/>
      <point x="659" y="90"/>
      <point x="580" y="155" type="curve" smooth="yes"/>
      <point x="423" y="283"/>
      <point x="345" y="484"/>
      <point x="345" y="680" type="curve" smooth="yes"/>
      <point x="345" y="911"/>
      <point x="396" y="1085"/>
      <point x="499" y="1204" type="curve" smooth="yes"/>
      <point x="587" y="1303"/>
      <point x="731" y="1366"/>
      <point x="871" y="1366" type="curve" smooth="yes"/>
      <point x="998" y="1366"/>
      <point x="1134" y="1315"/>
      <point x="1222" y="1235" type="curve" smooth="yes"/>
      <point x="1297" y="1164"/>
      <point x="1338" y="1083"/>
      <point x="1361" y="963" type="curve"/>
      <point x="1396" y="963" type="line"/>
      <point x="1361" y="1440" type="line"/>
      <point x="1326" y="1440" type="line"/>
      <point x="1324" y="1432" type="line" smooth="yes"/>
      <point x="1307" y="1372"/>
      <point x="1284" y="1347"/>
      <point x="1249" y="1347" type="curve" smooth="yes"/>
      <point x="1235" y="1347"/>
      <point x="1216" y="1352"/>
      <point x="1191" y="1362" type="curve"/>
      <point x="1085" y="1413"/>
      <point x="972" y="1438"/>
      <point x="853" y="1438" type="curve" smooth="yes"/>
      <point x="646" y="1438"/>
      <point x="446" y="1356"/>
      <point x="309" y="1219" type="curve" smooth="yes"/>
      <point x="168" y="1080"/>
      <point x="85" y="887"/>
      <point x="85" y="684" type="curve"/>
      <point x="89" y="680" type="line" smooth="yes"/>
      <point x="92" y="677"/>
      <point x="97" y="675"/>
      <point x="106" y="675" type="curve"/>
      <point x="110" y="674"/>
      <point x="113" y="673"/>
      <point x="115" y="672" type="curve"/>
      <point x="116" y="671"/>
      <point x="116" y="670"/>
      <point x="116" y="669" type="curve" smooth="yes"/>
      <point x="116" y="667" type="line" smooth="yes"/>
      <point x="116" y="666"/>
      <point x="118" y="665"/>
      <point x="118" y="665" type="curve"/>
      <point x="119" y="664"/>
      <point x="119" y="662"/>
      <point x="118" y="661" type="curve"/>
      <point x="116" y="658" type="line"/>
      <point x="114" y="657" type="line"/>
      <point x="110" y="657" type="line"/>
      <point x="122" y="652" type="line"/>
      <point x="123" y="651"/>
      <point x="123" y="650"/>
      <point x="123" y="649" type="curve"/>
      <point x="122" y="648"/>
      <point x="122" y="648"/>
      <point x="122" y="649" type="curve"/>
      <point x="121" y="649"/>
      <point x="121" y="649"/>
      <point x="120" y="649" type="curve"/>
      <point x="114" y="651" type="line"/>
      <point x="108" y="653" type="line"/>
      <point x="112" y="650" type="line"/>
      <point x="114" y="648" type="line"/>
      <point x="114" y="648"/>
      <point x="114" y="648"/>
      <point x="115" y="647" type="curve"/>
      <point x="115" y="646"/>
      <point x="114" y="645"/>
      <point x="113" y="645" type="curve" smooth="yes"/>
      <point x="113" y="645"/>
      <point x="113" y="645"/>
      <point x="113" y="646" type="curve"/>
      <point x="113" y="646"/>
      <point x="113" y="646"/>
      <point x="112" y="646" type="curve"/>
      <point x="105" y="651" type="line"/>
      <point x="105" y="650" type="line" smooth="yes"/>
      <point x="105" y="649"/>
      <point x="103" y="648"/>
      <point x="102" y="649" type="curve"/>
      <point x="96" y="656" type="line"/>
      <point x="85" y="670" type="line"/>
      <point x="89" y="395"/>
      <point x="223" y="174"/>
      <point x="443" y="51" type="curve" smooth="yes"/>
      <point x="663" y="-72"/>
      <point x="912" y="-72"/>
      <point x="1090" y="-3" type="curve" smooth="yes"/>
      <point x="1268" y="66"/>
      <point x="1430" y="222"/>
      <point x="1545" y="469" type="curve"/>
    </contour>
    <contour>
      <point x="112" y="668" type="line"/>
      <point x="109" y="670"/>
      <point x="106" y="670"/>
      <point x="104" y="668" type="curve" smooth="yes"/>
      <point x="103" y="667"/>
      <point x="103" y="666"/>
      <point x="103" y="665" type="curve"/>
      <point x="104" y="663" type="line"/>
      <point x="108" y="661" type="line"/>
      <point x="113" y="661" type="line"/>
      <point x="114" y="663" type="line"/>
      <point x="113" y="665"/>
      <point x="113" y="666"/>
      <point x="114" y="667" type="curve"/>
    </contour>
  </outline>
</glyph>
<glyph name="D" format="2">
  <advance width="1685"/>
  <unicode hex="0044"/>
  <note>
D
</note>
  <outline>
    <contour>
      <point x="1453" y="1137" type="curve" smooth="yes"/>
      <point x="1357" y="1258"/>
      <point x="1233" y="1329"/>
      <point x="1145" y="1362" type="curve" smooth="yes"/>
      <point x="1057" y="1394"/>
      <point x="968" y="1404"/>
      <point x="783" y="1407" type="curve" smooth="yes"/>
      <point x="65" y="1407" type="line"/>
      <point x="65" y="1368" type="line"/>
      <point x="81" y="1368" type="line" smooth="yes"/>
      <point x="181" y="1365"/>
      <point x="230" y="1345"/>
      <point x="254" y="1297" type="curve"/>
      <point x="265" y="1271"/>
      <point x="271" y="1236"/>
      <point x="271" y="1192" type="curve" smooth="yes"/>
      <point x="271" y="215" type="line" smooth="yes"/>
      <point x="271" y="170"/>
      <point x="265" y="135"/>
      <point x="253" y="110" type="curve" smooth="yes"/>
      <point x="229" y="59"/>
      <point x="176" y="38"/>
      <point x="81" y="37" type="curve" smooth="yes"/>
      <point x="65" y="37" type="line"/>
      <point x="65" y="0" type="line"/>
      <point x="718" y="-2" type="line" smooth="yes"/>
      <point x="1001" y="-2"/>
      <point x="1195" y="56"/>
      <point x="1351" y="181" type="curve"/>
      <point x="1348" y="184" type="line" smooth="yes"/>
      <point x="1345" y="187"/>
      <point x="1340" y="189"/>
      <point x="1332" y="190" type="curve"/>
      <point x="1327" y="190"/>
      <point x="1324" y="191"/>
      <point x="1322" y="192" type="curve"/>
      <point x="1321" y="193"/>
      <point x="1321" y="194"/>
      <point x="1321" y="195" type="curve" smooth="yes"/>
      <point x="1321" y="197" type="line" smooth="yes"/>
      <point x="1321" y="198"/>
      <point x="1319" y="199"/>
      <point x="1319" y="199" type="curve"/>
      <point x="1318" y="200"/>
      <point x="1318" y="202"/>
      <point x="1319" y="203" type="curve"/>
      <point x="1321" y="206" type="line"/>
      <point x="1323" y="207" type="line"/>
      <point x="1327" y="207" type="line"/>
      <point x="1315" y="212" type="line"/>
      <point x="1314" y="213"/>
      <point x="1314" y="214"/>
      <point x="1314" y="215" type="curve"/>
      <point x="1315" y="216"/>
      <point x="1315" y="216"/>
      <point x="1316" y="216" type="curve"/>
      <point x="1316" y="215"/>
      <point x="1316" y="215"/>
      <point x="1317" y="215" type="curve"/>
      <point x="1323" y="213" type="line"/>
      <point x="1329" y="211" type="line"/>
      <point x="1325" y="214" type="line"/>
      <point x="1323" y="216" type="line"/>
      <point x="1323" y="216"/>
      <point x="1323" y="217"/>
      <point x="1323" y="218" type="curve"/>
      <point x="1322" y="219"/>
      <point x="1323" y="219"/>
      <point x="1324" y="219" type="curve"/>
      <point x="1324" y="219"/>
      <point x="1324" y="219"/>
      <point x="1325" y="219" type="curve"/>
      <point x="1325" y="219"/>
      <point x="1325" y="219"/>
      <point x="1325" y="218" type="curve"/>
      <point x="1332" y="213" type="line"/>
      <point x="1332" y="214" type="line" smooth="yes"/>
      <point x="1332" y="215"/>
      <point x="1334" y="216"/>
      <point x="1335" y="215" type="curve"/>
      <point x="1341" y="208" type="line"/>
      <point x="1347" y="200" type="line"/>
      <point x="1353" y="194"/>
      <point x="1357" y="191"/>
      <point x="1358" y="190" type="curve"/>
      <point x="1360" y="189" type="line"/>
      <point x="1516" y="317"/>
      <point x="1603" y="498"/>
      <point x="1603" y="702" type="curve" smooth="yes"/>
      <point x="1603" y="861"/>
      <point x="1549" y="1013"/>
    </contour>
    <contour>
      <point x="1045" y="149" type="curve" smooth="yes"/>
      <point x="950" y="98"/>
      <point x="839" y="72"/>
      <point x="712" y="72" type="curve" smooth="yes"/>
      <point x="636" y="72"/>
      <point x="563" y="82"/>
      <point x="493" y="102" type="curve"/>
      <point x="493" y="1296" type="line"/>
      <point x="568" y="1319"/>
      <point x="645" y="1331"/>
      <point x="722" y="1331" type="curve" smooth="yes"/>
      <point x="842" y="1331"/>
      <point x="949" y="1304"/>
      <point x="1044" y="1251" type="curve" smooth="yes"/>
      <point x="1232" y="1143"/>
      <point x="1342" y="941"/>
      <point x="1342" y="692" type="curve" smooth="yes"/>
      <point x="1342" y="444"/>
      <point x="1236" y="252"/>
    </contour>
    <contour>
      <point x="1325" y="196" type="line"/>
      <point x="1328" y="194"/>
      <point x="1331" y="194"/>
      <point x="1333" y="196" type="curve" smooth="yes"/>
      <point x="1334" y="197"/>
      <point x="1334" y="198"/>
      <point x="1334" y="199" type="curve"/>
      <point x="1333" y="201" type="line"/>
      <point x="1329" y="203" type="line"/>
      <point x="1324" y="203" type="line"/>
      <point x="1323" y="201" type="line"/>
      <point x="1324" y="199"/>
      <point x="1324" y="198"/>
      <point x="1323" y="197" type="curve"/>
    </contour>
  </outline>
</glyph>
<glyph name="E" format="2">
  <advance width="1366"/>
  <unicode hex="0045"/>
  <note>
E
</note>
  <outline>
    <contour>
      <point x="1205" y="0" type="line"/>
      <point x="1359" y="448" type="line"/>
      <point x="1322" y="448" type="line"/>
      <point x="1188" y="120"/>
      <point x="1068" y="80"/>
      <point x="893" y="80" type="curve" smooth="yes"/>
      <point x="591" y="80" type="line" smooth="yes"/>
      <point x="562" y="80"/>
      <point x="540" y="86"/>
      <point x="526" y="97" type="curve"/>
      <point x="523" y="95" type="line"/>
      <point x="512" y="86" type="line"/>
      <point x="506" y="78" type="line"/>
      <point x="500" y="71" type="line"/>
      <point x="499" y="70"/>
      <point x="497" y="71"/>
      <point x="497" y="72" type="curve" smooth="yes"/>
      <point x="497" y="73" type="line"/>
      <point x="490" y="68" type="line"/>
      <point x="489" y="67"/>
      <point x="487" y="69"/>
      <point x="488" y="70" type="curve" smooth="yes"/>
      <point x="490" y="72" type="line"/>
      <point x="494" y="75" type="line"/>
      <point x="482" y="71" type="line"/>
      <point x="481" y="71" type="line"/>
      <point x="480" y="70"/>
      <point x="480" y="70"/>
      <point x="479" y="71" type="curve"/>
      <point x="479" y="72"/>
      <point x="479" y="73"/>
      <point x="480" y="74" type="curve"/>
      <point x="492" y="79" type="line"/>
      <point x="488" y="79" type="line"/>
      <point x="486" y="80" type="line"/>
      <point x="484" y="83" type="line"/>
      <point x="483" y="84"/>
      <point x="483" y="86"/>
      <point x="484" y="87" type="curve"/>
      <point x="484" y="87"/>
      <point x="486" y="88"/>
      <point x="486" y="89" type="curve" smooth="yes"/>
      <point x="486" y="91" type="line" smooth="yes"/>
      <point x="486" y="92"/>
      <point x="486" y="93"/>
      <point x="487" y="94" type="curve"/>
      <point x="489" y="95"/>
      <point x="492" y="96"/>
      <point x="497" y="97" type="curve"/>
      <point x="505" y="97"/>
      <point x="510" y="99"/>
      <point x="513" y="102" type="curve" smooth="yes"/>
      <point x="517" y="106" type="line"/>
      <point x="504" y="123"/>
      <point x="497" y="152"/>
      <point x="497" y="193" type="curve" smooth="yes"/>
      <point x="497" y="700" type="line"/>
      <point x="851" y="700" type="line" smooth="yes"/>
      <point x="992" y="700"/>
      <point x="1044" y="655"/>
      <point x="1064" y="472" type="curve"/>
      <point x="1101" y="472" type="line"/>
      <point x="1050" y="997" type="line"/>
      <point x="1013" y="997" type="line"/>
      <point x="1033" y="846"/>
      <point x="991" y="782"/>
      <point x="859" y="782" type="curve" smooth="yes"/>
      <point x="497" y="782" type="line"/>
      <point x="497" y="1325" type="line"/>
      <point x="925" y="1325" type="line"/>
      <point x="974" y="1323" type="line" smooth="yes"/>
      <point x="1105" y="1318"/>
      <point x="1170" y="1182"/>
      <point x="1190" y="1026" type="curve"/>
      <point x="1225" y="1026" type="line"/>
      <point x="1189" y="1407" type="line"/>
      <point x="73" y="1407" type="line"/>
      <point x="73" y="1368" type="line"/>
      <point x="85" y="1368" type="line" smooth="yes"/>
      <point x="185" y="1365"/>
      <point x="234" y="1345"/>
      <point x="258" y="1297" type="curve"/>
      <point x="269" y="1271"/>
      <point x="275" y="1236"/>
      <point x="275" y="1192" type="curve" smooth="yes"/>
      <point x="275" y="215" type="line" smooth="yes"/>
      <point x="275" y="170"/>
      <point x="269" y="135"/>
      <point x="257" y="110" type="curve" smooth="yes"/>
      <point x="233" y="59"/>
      <point x="180" y="38"/>
      <point x="85" y="37" type="curve" smooth="yes"/>
      <point x="73" y="37" type="line"/>
      <point x="73" y="0" type="line"/>
    </contour>
    <contour>
      <point x="489" y="83" type="line"/>
      <point x="494" y="83" type="line"/>
      <point x="498" y="85" type="line"/>
      <point x="499" y="87" type="line"/>
      <point x="499" y="88"/>
      <point x="499" y="89"/>
      <point x="498" y="90" type="curve" smooth="yes"/>
      <point x="496" y="92"/>
      <point x="493" y="92"/>
      <point x="490" y="90" type="curve"/>
      <point x="488" y="89" type="line"/>
      <point x="489" y="88"/>
      <point x="489" y="87"/>
      <point x="488" y="85" type="curve"/>
    </contour>
  </outline>
</glyph>
<glyph name="F" format="2">
  <advance width="1315"/>
  <unicode hex="0046"/>
  <note>
F
</note>
  <outline>
    <contour>
      <point x="1219" y="1034" type="curve"/>
      <point x="1255" y="1034" type="line"/>
      <point x="1221" y="1407" type="line"/>
      <point x="87" y="1407" type="line"/>
      <point x="87" y="1368" type="line"/>
      <point x="93" y="1368" type="line" smooth="yes"/>
      <point x="144" y="1367"/>
      <point x="183" y="1361"/>
      <point x="210" y="1350" type="curve" smooth="yes"/>
      <point x="264" y="1328"/>
      <point x="284" y="1280"/>
      <point x="284" y="1192" type="curve" smooth="yes"/>
      <point x="284" y="760" type="line"/>
      <point x="288" y="756" type="line" smooth="yes"/>
      <point x="291" y="753"/>
      <point x="296" y="751"/>
      <point x="305" y="751" type="curve"/>
      <point x="309" y="750"/>
      <point x="312" y="749"/>
      <point x="314" y="748" type="curve"/>
      <point x="315" y="747"/>
      <point x="315" y="746"/>
      <point x="315" y="745" type="curve" smooth="yes"/>
      <point x="315" y="743" type="line" smooth="yes"/>
      <point x="315" y="742"/>
      <point x="317" y="741"/>
      <point x="317" y="741" type="curve"/>
      <point x="318" y="740"/>
      <point x="318" y="738"/>
      <point x="317" y="737" type="curve"/>
      <point x="315" y="734" type="line"/>
      <point x="313" y="733" type="line"/>
      <point x="309" y="733" type="line"/>
      <point x="321" y="728" type="line"/>
      <point x="322" y="727"/>
      <point x="322" y="726"/>
      <point x="322" y="725" type="curve"/>
      <point x="321" y="724"/>
      <point x="321" y="724"/>
      <point x="321" y="725" type="curve"/>
      <point x="320" y="725"/>
      <point x="320" y="725"/>
      <point x="319" y="725" type="curve"/>
      <point x="313" y="727" type="line"/>
      <point x="307" y="729" type="line"/>
      <point x="311" y="726" type="line"/>
      <point x="313" y="724" type="line"/>
      <point x="313" y="724"/>
      <point x="313" y="724"/>
      <point x="314" y="723" type="curve"/>
      <point x="314" y="722"/>
      <point x="313" y="721"/>
      <point x="312" y="721" type="curve" smooth="yes"/>
      <point x="312" y="721"/>
      <point x="312" y="721"/>
      <point x="312" y="722" type="curve"/>
      <point x="312" y="722"/>
      <point x="312" y="722"/>
      <point x="311" y="722" type="curve"/>
      <point x="304" y="727" type="line"/>
      <point x="304" y="726" type="line" smooth="yes"/>
      <point x="304" y="725"/>
      <point x="302" y="724"/>
      <point x="301" y="725" type="curve"/>
      <point x="295" y="732" type="line"/>
      <point x="289" y="740" type="line"/>
      <point x="284" y="745" type="line"/>
      <point x="284" y="215" type="line" smooth="yes"/>
      <point x="284" y="170"/>
      <point x="278" y="136"/>
      <point x="267" y="111" type="curve" smooth="yes"/>
      <point x="243" y="61"/>
      <point x="189" y="38"/>
      <point x="93" y="37" type="curve" smooth="yes"/>
      <point x="87" y="37" type="line"/>
      <point x="87" y="0" type="line"/>
      <point x="708" y="0" type="line"/>
      <point x="708" y="37" type="line"/>
      <point x="697" y="37" type="line" smooth="yes"/>
      <point x="648" y="38"/>
      <point x="611" y="44"/>
      <point x="584" y="55" type="curve" smooth="yes"/>
      <point x="531" y="77"/>
      <point x="509" y="124"/>
      <point x="509" y="215" type="curve" smooth="yes"/>
      <point x="509" y="700" type="line"/>
      <point x="764" y="700" type="line" smooth="yes"/>
      <point x="952" y="700"/>
      <point x="988" y="668"/>
      <point x="1012" y="462" type="curve"/>
      <point x="1049" y="462" type="line"/>
      <point x="989" y="991" type="line"/>
      <point x="952" y="991" type="line"/>
      <point x="972" y="828"/>
      <point x="946" y="784"/>
      <point x="766" y="784" type="curve" smooth="yes"/>
      <point x="509" y="784" type="line"/>
      <point x="509" y="1337" type="line"/>
      <point x="881" y="1337" type="line" smooth="yes"/>
      <point x="1105" y="1337"/>
      <point x="1170" y="1238"/>
    </contour>
    <contour>
      <point x="311" y="744" type="line"/>
      <point x="308" y="746"/>
      <point x="305" y="746"/>
      <point x="303" y="744" type="curve" smooth="yes"/>
      <point x="302" y="743"/>
      <point x="302" y="742"/>
      <point x="302" y="741" type="curve"/>
      <point x="303" y="739" type="line"/>
      <point x="307" y="737" type="line"/>
      <point x="312" y="737" type="line"/>
      <point x="313" y="739" type="line"/>
      <point x="312" y="741"/>
      <point x="312" y="742"/>
      <point x="313" y="743" type="curve"/>
    </contour>
  </outline>
</glyph>
<glyph name="G" format="2">
  <advance width="1685"/>
  <unicode hex="0047"/>
  <note>
G
</note>
  <outline>
    <contour>
      <point x="1480" y="668"/>
      <point x="1511" y="713"/>
      <point x="1666" y="719" type="curve"/>
      <point x="1666" y="756" type="line"/>
      <point x="962" y="756" type="line"/>
      <point x="962" y="719" type="line"/>
      <point x="1237" y="719"/>
      <point x="1256" y="681"/>
      <point x="1256" y="530" type="curve"/>
      <point x="1261" y="535" type="line"/>
      <point x="1267" y="543" type="line"/>
      <point x="1273" y="550" type="line"/>
      <point x="1274" y="551"/>
      <point x="1276" y="550"/>
      <point x="1276" y="549" type="curve" smooth="yes"/>
      <point x="1276" y="548" type="line"/>
      <point x="1283" y="553" type="line"/>
      <point x="1284" y="554"/>
      <point x="1286" y="552"/>
      <point x="1286" y="552" type="curve"/>
      <point x="1285" y="551"/>
      <point x="1285" y="551"/>
      <point x="1285" y="551" type="curve"/>
      <point x="1283" y="549" type="line"/>
      <point x="1279" y="546" type="line"/>
      <point x="1285" y="548" type="line"/>
      <point x="1291" y="550" type="line"/>
      <point x="1292" y="550"/>
      <point x="1292" y="550"/>
      <point x="1293" y="551" type="curve"/>
      <point x="1293" y="551"/>
      <point x="1293" y="551"/>
      <point x="1294" y="550" type="curve"/>
      <point x="1294" y="549"/>
      <point x="1294" y="548"/>
      <point x="1293" y="547" type="curve"/>
      <point x="1281" y="542" type="line"/>
      <point x="1285" y="542" type="line"/>
      <point x="1287" y="541" type="line"/>
      <point x="1289" y="538" type="line"/>
      <point x="1290" y="537"/>
      <point x="1290" y="535"/>
      <point x="1289" y="534" type="curve"/>
      <point x="1289" y="534"/>
      <point x="1287" y="533"/>
      <point x="1287" y="532" type="curve" smooth="yes"/>
      <point x="1287" y="530" type="line" smooth="yes"/>
      <point x="1287" y="529"/>
      <point x="1287" y="528"/>
      <point x="1286" y="527" type="curve"/>
      <point x="1284" y="526"/>
      <point x="1281" y="525"/>
      <point x="1277" y="525" type="curve"/>
      <point x="1268" y="524"/>
      <point x="1263" y="522"/>
      <point x="1260" y="519" type="curve" smooth="yes"/>
      <point x="1256" y="515" type="line"/>
      <point x="1256" y="150" type="line"/>
      <point x="1147" y="77"/>
      <point x="1058" y="47"/>
      <point x="943" y="47" type="curve" smooth="yes"/>
      <point x="830" y="47"/>
      <point x="728" y="75"/>
      <point x="637" y="132" type="curve" smooth="yes"/>
      <point x="456" y="244"/>
      <point x="345" y="455"/>
      <point x="345" y="702" type="curve" smooth="yes"/>
      <point x="345" y="831"/>
      <point x="369" y="946"/>
      <point x="416" y="1046" type="curve" smooth="yes"/>
      <point x="511" y="1245"/>
      <point x="689" y="1359"/>
      <point x="910" y="1362" type="curve" smooth="yes"/>
      <point x="1235" y="1366"/>
      <point x="1351" y="1237"/>
      <point x="1475" y="927" type="curve"/>
      <point x="1511" y="927" type="line"/>
      <point x="1433" y="1438" type="line"/>
      <point x="1394" y="1438" type="line"/>
      <point x="1385" y="1373"/>
      <point x="1362" y="1341"/>
      <point x="1324" y="1341" type="curve" smooth="yes"/>
      <point x="1311" y="1341"/>
      <point x="1288" y="1347"/>
      <point x="1256" y="1360" type="curve"/>
      <point x="1141" y="1412"/>
      <point x="1022" y="1438"/>
      <point x="898" y="1438" type="curve" smooth="yes"/>
      <point x="679" y="1438"/>
      <point x="470" y="1355"/>
      <point x="322" y="1214" type="curve" smooth="yes"/>
      <point x="174" y="1074"/>
      <point x="87" y="870"/>
      <point x="87" y="662" type="curve" smooth="yes"/>
      <point x="87" y="470"/>
      <point x="166" y="306"/>
      <point x="323" y="170" type="curve" smooth="yes"/>
      <point x="487" y="29"/>
      <point x="666" y="-31"/>
      <point x="923" y="-31" type="curve" smooth="yes"/>
      <point x="1066" y="-31"/>
      <point x="1166" y="-17"/>
      <point x="1273" y="22" type="curve" smooth="yes"/>
      <point x="1372" y="58"/>
      <point x="1459" y="104"/>
      <point x="1558" y="175" type="curve"/>
      <point x="1558" y="188" type="line"/>
      <point x="1480" y="188" type="line"/>
      <point x="1480" y="504" type="line" smooth="yes"/>
    </contour>
    <contour>
      <point x="1284" y="538" type="line"/>
      <point x="1279" y="538" type="line"/>
      <point x="1275" y="536" type="line"/>
      <point x="1274" y="534" type="line"/>
      <point x="1274" y="533"/>
      <point x="1274" y="532"/>
      <point x="1275" y="531" type="curve" smooth="yes"/>
      <point x="1277" y="529"/>
      <point x="1280" y="529"/>
      <point x="1283" y="531" type="curve"/>
      <point x="1285" y="532" type="line"/>
      <point x="1284" y="533"/>
      <point x="1284" y="534"/>
      <point x="1285" y="536" type="curve"/>
    </contour>
  </outline>
</glyph>
<glyph name="H" format="2">
  <advance width="1685"/>
  <unicode hex="0048"/>
  <note>
H
</note>
  <outline>
    <contour>
      <point x="1488" y="1350" type="curve" smooth="yes"/>
      <point x="1515" y="1361"/>
      <point x="1553" y="1367"/>
      <point x="1603" y="1368" type="curve" smooth="yes"/>
      <point x="1617" y="1368" type="line"/>
      <point x="1617" y="1407" type="line"/>
      <point x="982" y="1407" type="line"/>
      <point x="982" y="1368" type="line"/>
      <point x="1000" y="1368" type="line" smooth="yes"/>
      <point x="1051" y="1367"/>
      <point x="1089" y="1361"/>
      <point x="1116" y="1350" type="curve" smooth="yes"/>
      <point x="1169" y="1329"/>
      <point x="1191" y="1280"/>
      <point x="1191" y="1192" type="curve" smooth="yes"/>
      <point x="1191" y="766" type="line"/>
      <point x="837" y="766" type="line"/>
      <point x="841" y="762" type="line" smooth="yes"/>
      <point x="844" y="759"/>
      <point x="849" y="757"/>
      <point x="858" y="757" type="curve"/>
      <point x="862" y="756"/>
      <point x="865" y="755"/>
      <point x="867" y="754" type="curve"/>
      <point x="868" y="753"/>
      <point x="868" y="752"/>
      <point x="868" y="751" type="curve" smooth="yes"/>
      <point x="868" y="749" type="line" smooth="yes"/>
      <point x="868" y="748"/>
      <point x="870" y="747"/>
      <point x="870" y="747" type="curve"/>
      <point x="871" y="746"/>
      <point x="871" y="744"/>
      <point x="870" y="743" type="curve"/>
      <point x="868" y="740" type="line"/>
      <point x="866" y="739" type="line"/>
      <point x="862" y="739" type="line"/>
      <point x="874" y="734" type="line"/>
      <point x="875" y="733"/>
      <point x="875" y="732"/>
      <point x="875" y="731" type="curve"/>
      <point x="874" y="730"/>
      <point x="874" y="730"/>
      <point x="874" y="731" type="curve"/>
      <point x="873" y="731"/>
      <point x="873" y="731"/>
      <point x="872" y="731" type="curve"/>
      <point x="866" y="733" type="line"/>
      <point x="860" y="735" type="line"/>
      <point x="864" y="732" type="line"/>
      <point x="866" y="730" type="line"/>
      <point x="866" y="730"/>
      <point x="866" y="730"/>
      <point x="867" y="729" type="curve"/>
      <point x="867" y="728"/>
      <point x="866" y="727"/>
      <point x="865" y="727" type="curve" smooth="yes"/>
      <point x="865" y="727"/>
      <point x="865" y="727"/>
      <point x="865" y="728" type="curve"/>
      <point x="865" y="728"/>
      <point x="865" y="728"/>
      <point x="864" y="728" type="curve"/>
      <point x="857" y="733" type="line"/>
      <point x="857" y="732" type="line" smooth="yes"/>
      <point x="857" y="731"/>
      <point x="855" y="730"/>
      <point x="854" y="731" type="curve"/>
      <point x="848" y="738" type="line"/>
      <point x="842" y="746" type="line"/>
      <point x="841" y="747"/>
      <point x="837" y="750"/>
      <point x="832" y="755" type="curve"/>
      <point x="827" y="759"/>
      <point x="823" y="763"/>
      <point x="822" y="766" type="curve"/>
      <point x="499" y="766" type="line"/>
      <point x="499" y="1192" type="line" smooth="yes"/>
      <point x="499" y="1237"/>
      <point x="505" y="1272"/>
      <point x="517" y="1297" type="curve" smooth="yes"/>
      <point x="541" y="1346"/>
      <point x="592" y="1367"/>
      <point x="689" y="1368" type="curve" smooth="yes"/>
      <point x="706" y="1368" type="line"/>
      <point x="706" y="1407" type="line"/>
      <point x="75" y="1407" type="line"/>
      <point x="75" y="1368" type="line"/>
      <point x="85" y="1368" type="line" smooth="yes"/>
      <point x="136" y="1367"/>
      <point x="174" y="1362"/>
      <point x="201" y="1351" type="curve" smooth="yes"/>
      <point x="254" y="1330"/>
      <point x="275" y="1281"/>
      <point x="275" y="1192" type="curve" smooth="yes"/>
      <point x="275" y="215" type="line" smooth="yes"/>
      <point x="275" y="170"/>
      <point x="269" y="134"/>
      <point x="258" y="109" type="curve" smooth="yes"/>
      <point x="234" y="58"/>
      <point x="183" y="38"/>
      <point x="87" y="37" type="curve" smooth="yes"/>
      <point x="75" y="37" type="line"/>
      <point x="75" y="0" type="line"/>
      <point x="706" y="0" type="line"/>
      <point x="706" y="37" type="line"/>
      <point x="689" y="37" type="line" smooth="yes"/>
      <point x="640" y="38"/>
      <point x="602" y="45"/>
      <point x="575" y="56" type="curve" smooth="yes"/>
      <point x="522" y="78"/>
      <point x="499" y="126"/>
      <point x="499" y="215" type="curve" smooth="yes"/>
      <point x="499" y="680" type="line"/>
      <point x="1191" y="680" type="line"/>
      <point x="1191" y="215" type="line" smooth="yes"/>
      <point x="1191" y="167"/>
      <point x="1185" y="131"/>
      <point x="1173" y="107" type="curve" smooth="yes"/>
      <point x="1149" y="58"/>
      <point x="1094" y="40"/>
      <point x="982" y="37" type="curve"/>
      <point x="982" y="0" type="line"/>
      <point x="1617" y="0" type="line"/>
      <point x="1617" y="37" type="line"/>
      <point x="1603" y="37" type="line" smooth="yes"/>
      <point x="1554" y="38"/>
      <point x="1516" y="45"/>
      <point x="1489" y="56" type="curve" smooth="yes"/>
      <point x="1435" y="78"/>
      <point x="1412" y="126"/>
      <point x="1412" y="215" type="curve" smooth="yes"/>
      <point x="1412" y="1192" type="line" smooth="yes"/>
      <point x="1412" y="1283"/>
      <point x="1433" y="1329"/>
    </contour>
    <contour>
      <point x="864" y="750" type="line"/>
      <point x="861" y="752"/>
      <point x="858" y="752"/>
      <point x="856" y="750" type="curve" smooth="yes"/>
      <point x="855" y="749"/>
      <point x="855" y="748"/>
      <point x="855" y="747" type="curve"/>
      <point x="856" y="745" type="line"/>
      <point x="860" y="743" type="line"/>
      <point x="865" y="743" type="line"/>
      <point x="866" y="745" type="line"/>
      <point x="865" y="747"/>
      <point x="865" y="748"/>
      <point x="866" y="749" type="curve"/>
    </contour>
  </outline>
</glyph>
<glyph name="J" format="2">
  <advance width="897"/>
  <unicode hex="004A"/>
  <note>
J
</note>
  <outline>
    <contour>
      <point x="851" y="1368" type="line"/>
      <point x="851" y="1407" type="line"/>
      <point x="224" y="1407" type="line"/>
      <point x="224" y="1368" type="line"/>
      <point x="241" y="1368" type="line" smooth="yes"/>
      <point x="341" y="1365"/>
      <point x="390" y="1345"/>
      <point x="414" y="1297" type="curve"/>
      <point x="425" y="1271"/>
      <point x="431" y="1236"/>
      <point x="431" y="1192" type="curve" smooth="yes"/>
      <point x="431" y="223" type="line" smooth="yes"/>
      <point x="431" y="159"/>
      <point x="425" y="113"/>
      <point x="414" y="84" type="curve"/>
      <point x="418" y="80" type="line" smooth="yes"/>
      <point x="421" y="77"/>
      <point x="426" y="75"/>
      <point x="435" y="75" type="curve"/>
      <point x="439" y="74"/>
      <point x="442" y="73"/>
      <point x="444" y="72" type="curve"/>
      <point x="445" y="71"/>
      <point x="445" y="70"/>
      <point x="445" y="69" type="curve" smooth="yes"/>
      <point x="445" y="67" type="line" smooth="yes"/>
      <point x="445" y="66"/>
      <point x="447" y="65"/>
      <point x="447" y="65" type="curve"/>
      <point x="448" y="64"/>
      <point x="448" y="62"/>
      <point x="447" y="61" type="curve"/>
      <point x="445" y="58" type="line"/>
      <point x="443" y="57" type="line"/>
      <point x="439" y="57" type="line"/>
      <point x="451" y="52" type="line"/>
      <point x="452" y="51"/>
      <point x="452" y="50"/>
      <point x="452" y="49" type="curve"/>
      <point x="451" y="48"/>
      <point x="451" y="48"/>
      <point x="451" y="49" type="curve"/>
      <point x="450" y="49"/>
      <point x="450" y="49"/>
      <point x="449" y="49" type="curve"/>
      <point x="443" y="51" type="line"/>
      <point x="437" y="53" type="line"/>
      <point x="441" y="50" type="line"/>
      <point x="443" y="48" type="line"/>
      <point x="443" y="48"/>
      <point x="443" y="48"/>
      <point x="444" y="47" type="curve"/>
      <point x="444" y="46"/>
      <point x="443" y="45"/>
      <point x="442" y="45" type="curve" smooth="yes"/>
      <point x="442" y="45"/>
      <point x="442" y="45"/>
      <point x="442" y="46" type="curve"/>
      <point x="442" y="46"/>
      <point x="442" y="46"/>
      <point x="441" y="46" type="curve"/>
      <point x="434" y="51" type="line"/>
      <point x="434" y="50" type="line" smooth="yes"/>
      <point x="434" y="49"/>
      <point x="432" y="48"/>
      <point x="431" y="49" type="curve"/>
      <point x="425" y="56" type="line"/>
      <point x="419" y="64" type="line"/>
      <point x="418" y="65"/>
      <point x="414" y="68"/>
      <point x="408" y="72" type="curve"/>
      <point x="397" y="53"/>
      <point x="380" y="43"/>
      <point x="357" y="43" type="curve" smooth="yes"/>
      <point x="324" y="43"/>
      <point x="299" y="67"/>
      <point x="267" y="131" type="curve" smooth="yes"/>
      <point x="231" y="200"/>
      <point x="198" y="227"/>
      <point x="146" y="227" type="curve" smooth="yes"/>
      <point x="87" y="227"/>
      <point x="44" y="182"/>
      <point x="44" y="123" type="curve" smooth="yes"/>
      <point x="44" y="94"/>
      <point x="54" y="67"/>
      <point x="74" y="44" type="curve" smooth="yes"/>
      <point x="113" y="-3"/>
      <point x="188" y="-31"/>
      <point x="275" y="-31" type="curve" smooth="yes"/>
      <point x="351" y="-31"/>
      <point x="418" y="-12"/>
      <point x="475" y="26" type="curve" smooth="yes"/>
      <point x="589" y="102"/>
      <point x="652" y="245"/>
      <point x="652" y="434" type="curve" smooth="yes"/>
      <point x="652" y="1192" type="line" smooth="yes"/>
      <point x="652" y="1237"/>
      <point x="658" y="1272"/>
      <point x="670" y="1297" type="curve" smooth="yes"/>
      <point x="693" y="1347"/>
      <point x="743" y="1367"/>
      <point x="843" y="1368" type="curve" smooth="yes"/>
    </contour>
    <contour>
      <point x="441" y="68" type="line"/>
      <point x="438" y="70"/>
      <point x="435" y="70"/>
      <point x="433" y="68" type="curve" smooth="yes"/>
      <point x="432" y="67"/>
      <point x="432" y="66"/>
      <point x="432" y="65" type="curve"/>
      <point x="433" y="63" type="line"/>
      <point x="437" y="61" type="line"/>
      <point x="442" y="61" type="line"/>
      <point x="443" y="63" type="line"/>
      <point x="442" y="65"/>
      <point x="442" y="66"/>
      <point x="443" y="67" type="curve"/>
    </contour>
  </outline>
</glyph>
<glyph name="K" format="2">
  <advance width="1685"/>
  <unicode hex="004B"/>
  <note>
K
</note>
  <outline>
    <contour>
      <point x="1674" y="0" type="line"/>
      <point x="1674" y="37" type="line"/>
      <point x="1646" y="37" type="line" smooth="yes"/>
      <point x="1603" y="37"/>
      <point x="1563" y="44"/>
      <point x="1526" y="58" type="curve" smooth="yes"/>
      <point x="1453" y="85"/>
      <point x="1381" y="141"/>
      <point x="1250" y="268" type="curve" smooth="yes"/>
      <point x="735" y="777" type="line"/>
      <point x="724" y="788" type="line"/>
      <point x="747" y="809" type="line" smooth="yes"/>
      <point x="799" y="854"/>
      <point x="829" y="881"/>
      <point x="837" y="889" type="curve"/>
      <point x="890" y="936"/>
      <point x="969" y="1014"/>
      <point x="1074" y="1124" type="curve" smooth="yes"/>
      <point x="1208" y="1268"/>
      <point x="1314" y="1370"/>
      <point x="1441" y="1370" type="curve"/>
      <point x="1446" y="1369" type="line"/>
      <point x="1447" y="1368"/>
      <point x="1448" y="1368"/>
      <point x="1451" y="1368" type="curve"/>
      <point x="1451" y="1407" type="line"/>
      <point x="937" y="1407" type="line"/>
      <point x="937" y="1368" type="line"/>
      <point x="1006" y="1366"/>
      <point x="1062" y="1357"/>
      <point x="1062" y="1305" type="curve" smooth="yes"/>
      <point x="1062" y="1189"/>
      <point x="841" y="984"/>
      <point x="515" y="723" type="curve"/>
      <point x="515" y="1192" type="line" smooth="yes"/>
      <point x="515" y="1331"/>
      <point x="562" y="1367"/>
      <point x="724" y="1368" type="curve"/>
      <point x="724" y="1407" type="line"/>
      <point x="81" y="1407" type="line"/>
      <point x="81" y="1368" type="line"/>
      <point x="101" y="1368" type="line" smooth="yes"/>
      <point x="151" y="1367"/>
      <point x="189" y="1361"/>
      <point x="216" y="1350" type="curve" smooth="yes"/>
      <point x="269" y="1328"/>
      <point x="292" y="1281"/>
      <point x="292" y="1192" type="curve" smooth="yes"/>
      <point x="292" y="215" type="line" smooth="yes"/>
      <point x="292" y="167"/>
      <point x="286" y="131"/>
      <point x="274" y="107" type="curve" smooth="yes"/>
      <point x="250" y="58"/>
      <point x="196" y="40"/>
      <point x="81" y="37" type="curve"/>
      <point x="81" y="0" type="line"/>
      <point x="714" y="0" type="line"/>
      <point x="714" y="37" type="line"/>
      <point x="704" y="37" type="line" smooth="yes"/>
      <point x="655" y="38"/>
      <point x="617" y="45"/>
      <point x="590" y="56" type="curve" smooth="yes"/>
      <point x="537" y="79"/>
      <point x="515" y="126"/>
      <point x="515" y="215" type="curve" smooth="yes"/>
      <point x="515" y="696" type="line"/>
      <point x="1007" y="209" type="line"/>
      <point x="1027" y="190" type="line" smooth="yes"/>
      <point x="1057" y="160"/>
      <point x="1072" y="133"/>
      <point x="1072" y="109" type="curve" smooth="yes"/>
      <point x="1072" y="66"/>
      <point x="1028" y="37"/>
      <point x="960" y="37" type="curve" smooth="yes"/>
      <point x="949" y="37" type="line"/>
      <point x="949" y="0" type="line"/>
    </contour>
    <contour>
      <point x="735" y="777" type="line"/>
      <point x="724" y="774"/>
      <point x="711" y="766"/>
      <point x="714" y="754" type="curve" smooth="yes"/>
      <point x="716" y="746"/>
      <point x="709" y="744"/>
      <point x="707" y="744" type="curve"/>
      <point x="707" y="745" type="line"/>
      <point x="706" y="743"/>
      <point x="704" y="742"/>
      <point x="701" y="743" type="curve"/>
      <point x="699" y="743"/>
      <point x="699" y="744"/>
      <point x="699" y="745" type="curve" smooth="yes"/>
      <point x="697" y="751" type="line"/>
      <point x="692" y="738" type="line"/>
      <point x="692" y="737"/>
      <point x="692" y="737"/>
      <point x="691" y="737" type="curve"/>
      <point x="689" y="738"/>
      <point x="689" y="739"/>
      <point x="690" y="740" type="curve"/>
      <point x="694" y="752" type="line"/>
      <point x="692" y="749" type="line"/>
      <point x="689" y="746" type="line"/>
      <point x="688" y="746" type="line" smooth="yes"/>
      <point x="687" y="746"/>
      <point x="686" y="746"/>
      <point x="688" y="748" type="curve"/>
      <point x="691" y="756" type="line"/>
      <point x="690" y="755"/>
      <point x="689" y="757"/>
      <point x="690" y="758" type="curve" smooth="yes"/>
      <point x="692" y="760"/>
      <point x="694" y="763"/>
      <point x="697" y="764" type="curve" smooth="yes"/>
      <point x="704" y="766"/>
      <point x="718" y="781"/>
      <point x="724" y="788" type="curve"/>
    </contour>
    <contour>
      <point x="701" y="752" type="line"/>
      <point x="701" y="748" type="line"/>
      <point x="703" y="746" type="line"/>
      <point x="705" y="747"/>
      <point x="707" y="747"/>
      <point x="707" y="746" type="curve"/>
      <point x="707" y="748" type="line"/>
      <point x="710" y="749"/>
      <point x="711" y="752"/>
      <point x="710" y="754" type="curve"/>
      <point x="708" y="756"/>
      <point x="706" y="757"/>
      <point x="705" y="757" type="curve" smooth="yes"/>
      <point x="703" y="757" type="line"/>
    </contour>
  </outline>
</glyph>
<glyph name="L" format="2">
  <advance width="1366"/>
  <unicode hex="004C"/>
  <note>
L
</note>
  <outline>
    <contour>
      <point x="85" y="0" type="line"/>
      <point x="1209" y="0" type="line"/>
      <point x="1328" y="377" type="line"/>
      <point x="1291" y="389" type="line"/>
      <point x="1289" y="379" type="line"/>
      <point x="1236" y="258"/>
      <point x="1209" y="217"/>
      <point x="1146" y="164" type="curve"/>
      <point x="1151" y="159" type="line" smooth="yes"/>
      <point x="1154" y="156"/>
      <point x="1159" y="154"/>
      <point x="1168" y="154" type="curve"/>
      <point x="1172" y="153"/>
      <point x="1175" y="152"/>
      <point x="1177" y="151" type="curve"/>
      <point x="1178" y="150"/>
      <point x="1178" y="149"/>
      <point x="1178" y="148" type="curve" smooth="yes"/>
      <point x="1178" y="146" type="line" smooth="yes"/>
      <point x="1178" y="145"/>
      <point x="1180" y="144"/>
      <point x="1180" y="144" type="curve"/>
      <point x="1181" y="143"/>
      <point x="1181" y="141"/>
      <point x="1180" y="140" type="curve"/>
      <point x="1178" y="137" type="line"/>
      <point x="1176" y="136" type="line"/>
      <point x="1172" y="136" type="line"/>
      <point x="1184" y="131" type="line"/>
      <point x="1185" y="130"/>
      <point x="1185" y="129"/>
      <point x="1185" y="128" type="curve"/>
      <point x="1184" y="127"/>
      <point x="1184" y="127"/>
      <point x="1184" y="128" type="curve"/>
      <point x="1183" y="128"/>
      <point x="1183" y="128"/>
      <point x="1182" y="128" type="curve"/>
      <point x="1176" y="130" type="line"/>
      <point x="1170" y="132" type="line"/>
      <point x="1174" y="129" type="line"/>
      <point x="1176" y="127" type="line"/>
      <point x="1176" y="127"/>
      <point x="1176" y="127"/>
      <point x="1177" y="126" type="curve"/>
      <point x="1177" y="125"/>
      <point x="1176" y="124"/>
      <point x="1175" y="124" type="curve" smooth="yes"/>
      <point x="1175" y="124"/>
      <point x="1175" y="124"/>
      <point x="1175" y="125" type="curve"/>
      <point x="1175" y="125"/>
      <point x="1175" y="125"/>
      <point x="1174" y="125" type="curve"/>
      <point x="1167" y="130" type="line"/>
      <point x="1167" y="129" type="line" smooth="yes"/>
      <point x="1167" y="128"/>
      <point x="1165" y="127"/>
      <point x="1164" y="128" type="curve"/>
      <point x="1158" y="135" type="line"/>
      <point x="1152" y="143" type="line"/>
      <point x="1146" y="149"/>
      <point x="1142" y="152"/>
      <point x="1141" y="153" type="curve"/>
      <point x="1136" y="156" type="line"/>
      <point x="1073" y="107"/>
      <point x="1015" y="92"/>
      <point x="888" y="92" type="curve" smooth="yes"/>
      <point x="601" y="92" type="line" smooth="yes"/>
      <point x="536" y="92"/>
      <point x="515" y="113"/>
      <point x="515" y="174" type="curve" smooth="yes"/>
      <point x="515" y="1192" type="line" smooth="yes"/>
      <point x="515" y="1237"/>
      <point x="521" y="1272"/>
      <point x="533" y="1297" type="curve" smooth="yes"/>
      <point x="557" y="1347"/>
      <point x="608" y="1367"/>
      <point x="704" y="1368" type="curve" smooth="yes"/>
      <point x="718" y="1368" type="line"/>
      <point x="718" y="1407" type="line"/>
      <point x="85" y="1407" type="line"/>
      <point x="85" y="1368" type="line"/>
      <point x="99" y="1368" type="line" smooth="yes"/>
      <point x="151" y="1367"/>
      <point x="191" y="1362"/>
      <point x="219" y="1351" type="curve" smooth="yes"/>
      <point x="275" y="1330"/>
      <point x="296" y="1281"/>
      <point x="296" y="1192" type="curve" smooth="yes"/>
      <point x="296" y="215" type="line" smooth="yes"/>
      <point x="296" y="170"/>
      <point x="290" y="134"/>
      <point x="278" y="109" type="curve" smooth="yes"/>
      <point x="253" y="58"/>
      <point x="200" y="38"/>
      <point x="99" y="37" type="curve" smooth="yes"/>
      <point x="85" y="37" type="line"/>
    </contour>
    <contour>
      <point x="1174" y="147" type="line"/>
      <point x="1171" y="149"/>
      <point x="1168" y="149"/>
      <point x="1166" y="147" type="curve" smooth="yes"/>
      <point x="1165" y="146"/>
      <point x="1165" y="145"/>
      <point x="1165" y="144" type="curve"/>
      <point x="1166" y="142" type="line"/>
      <point x="1170" y="140" type="line"/>
      <point x="1175" y="140" type="line"/>
      <point x="1176" y="142" type="line"/>
      <point x="1175" y="144"/>
      <point x="1175" y="145"/>
      <point x="1176" y="146" type="curve"/>
    </contour>
  </outline>
</glyph>
<glyph name="M" format="2">
  <advance width="2027"/>
  <unicode hex="004D"/>
  <note>
M
</note>
  <outline>
    <contour>
      <point x="1808" y="1350" type="curve" smooth="yes"/>
      <point x="1835" y="1361"/>
      <point x="1873" y="1367"/>
      <point x="1922" y="1368" type="curve" smooth="yes"/>
      <point x="1936" y="1368" type="line"/>
      <point x="1936" y="1407" type="line"/>
      <point x="1510" y="1407" type="line"/>
      <point x="1020" y="338" type="line" smooth="yes"/>
      <point x="1017" y="331"/>
      <point x="1011" y="326"/>
      <point x="1004" y="321" type="curve"/>
      <point x="1003" y="320"/>
      <point x="1001" y="318"/>
      <point x="998" y="313" type="curve"/>
      <point x="992" y="306" type="line"/>
      <point x="991" y="305"/>
      <point x="989" y="306"/>
      <point x="989" y="307" type="curve" smooth="yes"/>
      <point x="989" y="308" type="line"/>
      <point x="982" y="303" type="line"/>
      <point x="981" y="302"/>
      <point x="979" y="304"/>
      <point x="980" y="305" type="curve"/>
      <point x="980" y="305"/>
      <point x="980" y="305"/>
      <point x="980" y="305" type="curve"/>
      <point x="982" y="307" type="line"/>
      <point x="986" y="310" type="line"/>
      <point x="980" y="308" type="line"/>
      <point x="974" y="306" type="line"/>
      <point x="973" y="306"/>
      <point x="973" y="306"/>
      <point x="973" y="306" type="curve"/>
      <point x="972" y="305"/>
      <point x="972" y="305"/>
      <point x="971" y="306" type="curve"/>
      <point x="971" y="307"/>
      <point x="971" y="308"/>
      <point x="972" y="309" type="curve"/>
      <point x="984" y="314" type="line"/>
      <point x="980" y="314" type="line"/>
      <point x="978" y="315" type="line"/>
      <point x="976" y="318" type="line"/>
      <point x="975" y="319"/>
      <point x="975" y="321"/>
      <point x="976" y="322" type="curve"/>
      <point x="976" y="322"/>
      <point x="978" y="323"/>
      <point x="978" y="324" type="curve" smooth="yes"/>
      <point x="978" y="326" type="line" smooth="yes"/>
      <point x="978" y="327"/>
      <point x="978" y="328"/>
      <point x="979" y="329" type="curve"/>
      <point x="981" y="330"/>
      <point x="984" y="331"/>
      <point x="989" y="332" type="curve"/>
      <point x="993" y="332"/>
      <point x="996" y="332"/>
      <point x="999" y="333" type="curve" smooth="yes"/>
      <point x="1002" y="334"/>
      <point x="1009" y="341"/>
      <point x="1010" y="346" type="curve"/>
      <point x="517" y="1407" type="line"/>
      <point x="87" y="1407" type="line"/>
      <point x="87" y="1368" type="line"/>
      <point x="235" y="1352"/>
      <point x="292" y="1295"/>
      <point x="292" y="1163" type="curve" smooth="yes"/>
      <point x="292" y="215" type="line" smooth="yes"/>
      <point x="292" y="170"/>
      <point x="286" y="135"/>
      <point x="274" y="110" type="curve" smooth="yes"/>
      <point x="250" y="59"/>
      <point x="196" y="38"/>
      <point x="101" y="37" type="curve" smooth="yes"/>
      <point x="87" y="37" type="line"/>
      <point x="87" y="0" type="line"/>
      <point x="581" y="0" type="line"/>
      <point x="581" y="37" type="line"/>
      <point x="572" y="37" type="line" smooth="yes"/>
      <point x="523" y="38"/>
      <point x="486" y="44"/>
      <point x="459" y="55" type="curve" smooth="yes"/>
      <point x="406" y="77"/>
      <point x="384" y="124"/>
      <point x="384" y="215" type="curve" smooth="yes"/>
      <point x="384" y="1180" type="line"/>
      <point x="388" y="1180" type="line"/>
      <point x="931" y="0" type="line"/>
      <point x="966" y="0" type="line"/>
      <point x="1506" y="1180" type="line"/>
      <point x="1510" y="1180" type="line"/>
      <point x="1510" y="215" type="line" smooth="yes"/>
      <point x="1510" y="167"/>
      <point x="1504" y="131"/>
      <point x="1493" y="107" type="curve" smooth="yes"/>
      <point x="1469" y="58"/>
      <point x="1417" y="40"/>
      <point x="1304" y="37" type="curve"/>
      <point x="1304" y="0" type="line"/>
      <point x="1936" y="0" type="line"/>
      <point x="1936" y="37" type="line"/>
      <point x="1922" y="37" type="line" smooth="yes"/>
      <point x="1873" y="38"/>
      <point x="1835" y="45"/>
      <point x="1808" y="56" type="curve" smooth="yes"/>
      <point x="1755" y="78"/>
      <point x="1732" y="126"/>
      <point x="1732" y="215" type="curve" smooth="yes"/>
      <point x="1732" y="1194" type="line" smooth="yes"/>
      <point x="1732" y="1283"/>
      <point x="1755" y="1329"/>
    </contour>
    <contour>
      <point x="981" y="318" type="line"/>
      <point x="986" y="318" type="line"/>
      <point x="990" y="320" type="line"/>
      <point x="991" y="322" type="line"/>
      <point x="991" y="323"/>
      <point x="991" y="324"/>
      <point x="990" y="325" type="curve" smooth="yes"/>
      <point x="988" y="327"/>
      <point x="985" y="327"/>
      <point x="982" y="325" type="curve"/>
      <point x="980" y="324" type="line"/>
      <point x="981" y="323"/>
      <point x="981" y="322"/>
      <point x="980" y="320" type="curve"/>
    </contour>
  </outline>
</glyph>
<glyph name="N" format="2">
  <advance width="1685"/>
  <unicode hex="004E"/>
  <note>
N
</note>
  <outline>
    <contour>
      <point x="1654" y="1368" type="line"/>
      <point x="1654" y="1407" type="line"/>
      <point x="1138" y="1407" type="line"/>
      <point x="1138" y="1368" type="line"/>
      <point x="1191" y="1368" type="line" smooth="yes"/>
      <point x="1280" y="1368"/>
      <point x="1315" y="1350"/>
      <point x="1331" y="1294" type="curve"/>
      <point x="1338" y="1263"/>
      <point x="1342" y="1218"/>
      <point x="1342" y="1159" type="curve" smooth="yes"/>
      <point x="1342" y="369" type="line"/>
      <point x="518" y="1308" type="line"/>
      <point x="505" y="1296" type="line"/>
      <point x="499" y="1288" type="line"/>
      <point x="493" y="1281" type="line"/>
      <point x="492" y="1280"/>
      <point x="490" y="1281"/>
      <point x="490" y="1282" type="curve" smooth="yes"/>
      <point x="490" y="1283" type="line"/>
      <point x="483" y="1278" type="line"/>
      <point x="482" y="1277"/>
      <point x="480" y="1279"/>
      <point x="481" y="1280" type="curve"/>
      <point x="481" y="1280"/>
      <point x="481" y="1280"/>
      <point x="481" y="1280" type="curve"/>
      <point x="483" y="1282" type="line"/>
      <point x="487" y="1285" type="line"/>
      <point x="481" y="1283" type="line"/>
      <point x="475" y="1281" type="line"/>
      <point x="474" y="1281"/>
      <point x="474" y="1281"/>
      <point x="474" y="1281" type="curve"/>
      <point x="473" y="1280"/>
      <point x="473" y="1280"/>
      <point x="472" y="1281" type="curve"/>
      <point x="472" y="1282"/>
      <point x="472" y="1283"/>
      <point x="473" y="1284" type="curve"/>
      <point x="485" y="1289" type="line"/>
      <point x="481" y="1289" type="line"/>
      <point x="479" y="1290" type="line"/>
      <point x="477" y="1293" type="line"/>
      <point x="476" y="1294"/>
      <point x="476" y="1296"/>
      <point x="477" y="1297" type="curve"/>
      <point x="477" y="1297"/>
      <point x="479" y="1298"/>
      <point x="479" y="1299" type="curve" smooth="yes"/>
      <point x="479" y="1301" type="line" smooth="yes"/>
      <point x="479" y="1302"/>
      <point x="479" y="1303"/>
      <point x="480" y="1304" type="curve"/>
      <point x="482" y="1305"/>
      <point x="485" y="1306"/>
      <point x="490" y="1307" type="curve"/>
      <point x="498" y="1307"/>
      <point x="503" y="1308"/>
      <point x="510" y="1317" type="curve"/>
      <point x="431" y="1407" type="line"/>
      <point x="22" y="1407" type="line"/>
      <point x="22" y="1368" type="line"/>
      <point x="28" y="1368" type="line" smooth="yes"/>
      <point x="160" y="1368"/>
      <point x="235" y="1325"/>
      <point x="308" y="1206" type="curve"/>
      <point x="308" y="250" type="line" smooth="yes"/>
      <point x="307" y="151"/>
      <point x="299" y="111"/>
      <point x="268" y="79" type="curve" smooth="yes"/>
      <point x="237" y="47"/>
      <point x="198" y="38"/>
      <point x="103" y="37" type="curve" smooth="yes"/>
      <point x="95" y="37" type="line"/>
      <point x="95" y="0" type="line"/>
      <point x="603" y="0" type="line"/>
      <point x="603" y="37" type="line"/>
      <point x="595" y="37" type="line"/>
      <point x="554" y="39" type="line" smooth="yes"/>
      <point x="513" y="40"/>
      <point x="482" y="49"/>
      <point x="460" y="65" type="curve" smooth="yes"/>
      <point x="416" y="96"/>
      <point x="398" y="160"/>
      <point x="398" y="281" type="curve" smooth="yes"/>
      <point x="398" y="1116" type="line"/>
      <point x="1406" y="-16" type="line"/>
      <point x="1435" y="-16" type="line"/>
      <point x="1435" y="1171" type="line" smooth="yes"/>
      <point x="1435" y="1242"/>
      <point x="1437" y="1272"/>
      <point x="1445" y="1300" type="curve" smooth="yes"/>
      <point x="1454" y="1332"/>
      <point x="1465" y="1345"/>
      <point x="1492" y="1356" type="curve"/>
      <point x="1516" y="1367"/>
      <point x="1537" y="1368"/>
      <point x="1598" y="1368" type="curve" smooth="yes"/>
    </contour>
    <contour>
      <point x="482" y="1293" type="line"/>
      <point x="487" y="1293" type="line"/>
      <point x="491" y="1295" type="line"/>
      <point x="492" y="1297" type="line"/>
      <point x="492" y="1298"/>
      <point x="492" y="1299"/>
      <point x="491" y="1300" type="curve" smooth="yes"/>
      <point x="489" y="1302"/>
      <point x="486" y="1302"/>
      <point x="483" y="1300" type="curve"/>
      <point x="481" y="1299" type="line"/>
      <point x="482" y="1298"/>
      <point x="482" y="1297"/>
      <point x="481" y="1295" type="curve"/>
    </contour>
  </outline>
</glyph>
<glyph name="P" format="2">
  <advance width="1236"/>
  <unicode hex="0050"/>
  <note>
P
</note>
  <outline>
    <contour>
      <point x="933" y="1363" type="curve" smooth="yes"/>
      <point x="854" y="1392"/>
      <point x="760" y="1407"/>
      <point x="650" y="1407" type="curve" smooth="yes"/>
      <point x="50" y="1407" type="line"/>
      <point x="50" y="1368" type="line"/>
      <point x="60" y="1368" type="line" smooth="yes"/>
      <point x="111" y="1367"/>
      <point x="149" y="1362"/>
      <point x="176" y="1351" type="curve" smooth="yes"/>
      <point x="229" y="1330"/>
      <point x="251" y="1281"/>
      <point x="251" y="1192" type="curve" smooth="yes"/>
      <point x="251" y="215" type="line" smooth="yes"/>
      <point x="251" y="169"/>
      <point x="245" y="134"/>
      <point x="234" y="109" type="curve" smooth="yes"/>
      <point x="210" y="59"/>
      <point x="160" y="40"/>
      <point x="60" y="37" type="curve" smooth="yes"/>
      <point x="50" y="37" type="line"/>
      <point x="53" y="36"/>
      <point x="56" y="36"/>
      <point x="61" y="36" type="curve"/>
      <point x="65" y="35"/>
      <point x="68" y="34"/>
      <point x="70" y="33" type="curve"/>
      <point x="71" y="32"/>
      <point x="71" y="31"/>
      <point x="71" y="30" type="curve" smooth="yes"/>
      <point x="71" y="28" type="line" smooth="yes"/>
      <point x="71" y="27"/>
      <point x="73" y="26"/>
      <point x="73" y="26" type="curve"/>
      <point x="74" y="25"/>
      <point x="74" y="23"/>
      <point x="73" y="22" type="curve"/>
      <point x="71" y="19" type="line"/>
      <point x="69" y="18" type="line"/>
      <point x="65" y="18" type="line"/>
      <point x="77" y="13" type="line"/>
      <point x="78" y="12"/>
      <point x="78" y="11"/>
      <point x="78" y="10" type="curve"/>
      <point x="77" y="9"/>
      <point x="77" y="9"/>
      <point x="77" y="10" type="curve"/>
      <point x="76" y="10"/>
      <point x="76" y="10"/>
      <point x="75" y="10" type="curve"/>
      <point x="69" y="12" type="line"/>
      <point x="63" y="14" type="line"/>
      <point x="67" y="11" type="line"/>
      <point x="69" y="9" type="line"/>
      <point x="69" y="9"/>
      <point x="69" y="9"/>
      <point x="70" y="8" type="curve"/>
      <point x="70" y="7"/>
      <point x="69" y="6"/>
      <point x="68" y="6" type="curve" smooth="yes"/>
      <point x="68" y="6"/>
      <point x="68" y="6"/>
      <point x="68" y="7" type="curve"/>
      <point x="68" y="7"/>
      <point x="68" y="7"/>
      <point x="67" y="7" type="curve"/>
      <point x="60" y="12" type="line"/>
      <point x="60" y="11" type="line" smooth="yes"/>
      <point x="60" y="10"/>
      <point x="58" y="9"/>
      <point x="57" y="10" type="curve"/>
      <point x="50" y="19" type="line"/>
      <point x="50" y="0" type="line"/>
      <point x="683" y="0" type="line"/>
      <point x="683" y="37" type="line"/>
      <point x="625" y="38"/>
      <point x="581" y="44"/>
      <point x="552" y="55" type="curve" smooth="yes"/>
      <point x="493" y="76"/>
      <point x="472" y="122"/>
      <point x="472" y="215" type="curve" smooth="yes"/>
      <point x="472" y="674" type="line"/>
      <point x="577" y="643"/>
      <point x="668" y="627"/>
      <point x="744" y="627" type="curve" smooth="yes"/>
      <point x="829" y="627"/>
      <point x="907" y="644"/>
      <point x="976" y="677" type="curve" smooth="yes"/>
      <point x="1115" y="744"/>
      <point x="1199" y="869"/>
      <point x="1199" y="1016" type="curve" smooth="yes"/>
      <point x="1199" y="1066"/>
      <point x="1188" y="1114"/>
      <point x="1165" y="1159" type="curve" smooth="yes"/>
      <point x="1120" y="1250"/>
      <point x="1037" y="1323"/>
    </contour>
    <contour>
      <point x="802" y="741" type="curve" smooth="yes"/>
      <point x="757" y="715"/>
      <point x="705" y="702"/>
      <point x="646" y="702" type="curve" smooth="yes"/>
      <point x="589" y="702"/>
      <point x="551" y="711"/>
      <point x="472" y="743" type="curve"/>
      <point x="472" y="1303" type="line"/>
      <point x="529" y="1320"/>
      <point x="579" y="1329"/>
      <point x="622" y="1329" type="curve" smooth="yes"/>
      <point x="684" y="1329"/>
      <point x="740" y="1316"/>
      <point x="789" y="1289" type="curve" smooth="yes"/>
      <point x="888" y="1235"/>
      <point x="945" y="1131"/>
      <point x="945" y="1006" type="curve" smooth="yes"/>
      <point x="945" y="887"/>
      <point x="893" y="793"/>
    </contour>
    <contour>
      <point x="67" y="29" type="line"/>
      <point x="64" y="31"/>
      <point x="61" y="31"/>
      <point x="59" y="29" type="curve" smooth="yes"/>
      <point x="58" y="28"/>
      <point x="58" y="27"/>
      <point x="58" y="26" type="curve"/>
      <point x="59" y="24" type="line"/>
      <point x="63" y="22" type="line"/>
      <point x="68" y="22" type="line"/>
      <point x="69" y="24" type="line"/>
      <point x="68" y="26"/>
      <point x="68" y="27"/>
      <point x="69" y="28" type="curve"/>
    </contour>
  </outline>
</glyph>
<glyph name="Q" format="2">
  <advance width="1579"/>
  <unicode hex="0051"/>
  <note>
Q
</note>
  <outline>
    <contour>
      <point x="974" y="-10" type="curve"/>
      <point x="1079" y="21"/>
      <point x="1172" y="72"/>
      <point x="1253" y="142" type="curve" smooth="yes"/>
      <point x="1413" y="282"/>
      <point x="1506" y="486"/>
      <point x="1506" y="707" type="curve" smooth="yes"/>
      <point x="1506" y="950"/>
      <point x="1397" y="1143"/>
      <point x="1252" y="1268" type="curve" smooth="yes"/>
      <point x="1123" y="1377"/>
      <point x="963" y="1438"/>
      <point x="792" y="1438" type="curve" smooth="yes"/>
      <point x="605" y="1438"/>
      <point x="419" y="1358"/>
      <point x="287" y="1223" type="curve"/>
      <point x="291" y="1219" type="line" smooth="yes"/>
      <point x="294" y="1216"/>
      <point x="299" y="1214"/>
      <point x="308" y="1214" type="curve"/>
      <point x="312" y="1213"/>
      <point x="315" y="1212"/>
      <point x="317" y="1211" type="curve"/>
      <point x="318" y="1210"/>
      <point x="318" y="1209"/>
      <point x="318" y="1208" type="curve" smooth="yes"/>
      <point x="318" y="1206" type="line" smooth="yes"/>
      <point x="318" y="1205"/>
      <point x="320" y="1204"/>
      <point x="320" y="1204" type="curve"/>
      <point x="321" y="1203"/>
      <point x="321" y="1201"/>
      <point x="320" y="1200" type="curve"/>
      <point x="318" y="1197" type="line"/>
      <point x="316" y="1196" type="line"/>
      <point x="312" y="1196" type="line"/>
      <point x="324" y="1191" type="line"/>
      <point x="325" y="1190"/>
      <point x="325" y="1189"/>
      <point x="325" y="1188" type="curve"/>
      <point x="324" y="1187"/>
      <point x="324" y="1187"/>
      <point x="324" y="1188" type="curve"/>
      <point x="323" y="1188"/>
      <point x="323" y="1188"/>
      <point x="322" y="1188" type="curve"/>
      <point x="316" y="1190" type="line"/>
      <point x="310" y="1192" type="line"/>
      <point x="314" y="1189" type="line"/>
      <point x="316" y="1187" type="line"/>
      <point x="316" y="1187"/>
      <point x="316" y="1187"/>
      <point x="317" y="1186" type="curve"/>
      <point x="317" y="1185"/>
      <point x="316" y="1184"/>
      <point x="315" y="1184" type="curve" smooth="yes"/>
      <point x="315" y="1184"/>
      <point x="315" y="1184"/>
      <point x="315" y="1185" type="curve"/>
      <point x="315" y="1185"/>
      <point x="315" y="1185"/>
      <point x="314" y="1185" type="curve"/>
      <point x="307" y="1190" type="line"/>
      <point x="307" y="1189" type="line" smooth="yes"/>
      <point x="307" y="1188"/>
      <point x="305" y="1187"/>
      <point x="304" y="1188" type="curve"/>
      <point x="298" y="1195" type="line"/>
      <point x="292" y="1203" type="line"/>
      <point x="286" y="1209"/>
      <point x="282" y="1212"/>
      <point x="281" y="1213" type="curve"/>
      <point x="279" y="1214" type="line"/>
      <point x="152" y="1079"/>
      <point x="77" y="893"/>
      <point x="77" y="702" type="curve" smooth="yes"/>
      <point x="77" y="597"/>
      <point x="98" y="498"/>
      <point x="141" y="403" type="curve" smooth="yes"/>
      <point x="226" y="213"/>
      <point x="386" y="65"/>
      <point x="587" y="0" type="curve"/>
      <point x="806" y="-367"/>
      <point x="1180" y="-437"/>
      <point x="1570" y="-334" type="curve"/>
      <point x="1570" y="-298" type="line"/>
      <point x="1146" y="-401"/>
      <point x="974" y="-209"/>
    </contour>
    <contour>
      <point x="388" y="360" type="curve" smooth="yes"/>
      <point x="350" y="459"/>
      <point x="331" y="574"/>
      <point x="331" y="707" type="curve" smooth="yes"/>
      <point x="331" y="840"/>
      <point x="350" y="955"/>
      <point x="387" y="1054" type="curve" smooth="yes"/>
      <point x="461" y="1250"/>
      <point x="603" y="1358"/>
      <point x="790" y="1358" type="curve" smooth="yes"/>
      <point x="883" y="1358"/>
      <point x="965" y="1332"/>
      <point x="1035" y="1279" type="curve" smooth="yes"/>
      <point x="1174" y="1173"/>
      <point x="1252" y="968"/>
      <point x="1252" y="709" type="curve" smooth="yes"/>
      <point x="1252" y="700" type="line" smooth="yes"/>
      <point x="1252" y="570"/>
      <point x="1233" y="456"/>
      <point x="1196" y="357" type="curve" smooth="yes"/>
      <point x="1121" y="160"/>
      <point x="978" y="49"/>
      <point x="794" y="49" type="curve" smooth="yes"/>
      <point x="607" y="49"/>
      <point x="464" y="161"/>
    </contour>
    <contour>
      <point x="314" y="1207" type="line"/>
      <point x="311" y="1209"/>
      <point x="308" y="1209"/>
      <point x="306" y="1207" type="curve" smooth="yes"/>
      <point x="305" y="1206"/>
      <point x="305" y="1205"/>
      <point x="305" y="1204" type="curve"/>
      <point x="306" y="1202" type="line"/>
      <point x="310" y="1200" type="line"/>
      <point x="315" y="1200" type="line"/>
      <point x="316" y="1202" type="line"/>
      <point x="315" y="1204"/>
      <point x="315" y="1205"/>
      <point x="316" y="1206" type="curve"/>
    </contour>
  </outline>
</glyph>
<glyph name="R" format="2">
  <advance width="1579"/>
  <unicode hex="0052"/>
  <note>
R
</note>
  <outline>
    <contour>
      <point x="1173" y="287" type="line"/>
      <point x="863" y="671" type="line"/>
      <point x="861" y="670" type="line"/>
      <point x="860" y="669"/>
      <point x="856" y="666"/>
      <point x="850" y="660" type="curve"/>
      <point x="844" y="652" type="line"/>
      <point x="838" y="645" type="line"/>
      <point x="837" y="644"/>
      <point x="835" y="645"/>
      <point x="835" y="646" type="curve" smooth="yes"/>
      <point x="835" y="647" type="line"/>
      <point x="828" y="642" type="line"/>
      <point x="827" y="641"/>
      <point x="825" y="643"/>
      <point x="826" y="644" type="curve"/>
      <point x="826" y="644"/>
      <point x="826" y="644"/>
      <point x="826" y="644" type="curve"/>
      <point x="828" y="646" type="line"/>
      <point x="832" y="649" type="line"/>
      <point x="826" y="647" type="line"/>
      <point x="820" y="645" type="line"/>
      <point x="819" y="645"/>
      <point x="819" y="645"/>
      <point x="819" y="645" type="curve"/>
      <point x="818" y="644"/>
      <point x="818" y="644"/>
      <point x="817" y="645" type="curve"/>
      <point x="817" y="646"/>
      <point x="817" y="647"/>
      <point x="818" y="648" type="curve"/>
      <point x="830" y="653" type="line"/>
      <point x="826" y="653" type="line"/>
      <point x="824" y="654" type="line"/>
      <point x="822" y="657" type="line"/>
      <point x="821" y="658"/>
      <point x="821" y="660"/>
      <point x="822" y="661" type="curve"/>
      <point x="822" y="661"/>
      <point x="824" y="662"/>
      <point x="824" y="663" type="curve" smooth="yes"/>
      <point x="824" y="665" type="line" smooth="yes"/>
      <point x="824" y="666"/>
      <point x="824" y="667"/>
      <point x="825" y="668" type="curve"/>
      <point x="827" y="669"/>
      <point x="830" y="670"/>
      <point x="835" y="671" type="curve"/>
      <point x="843" y="671"/>
      <point x="848" y="673"/>
      <point x="851" y="676" type="curve" smooth="yes"/>
      <point x="855" y="680" type="line"/>
      <point x="918" y="696"/>
      <point x="970" y="714"/>
      <point x="1009" y="735" type="curve"/>
      <point x="1136" y="796"/>
      <point x="1211" y="911"/>
      <point x="1211" y="1040" type="curve" smooth="yes"/>
      <point x="1211" y="1089"/>
      <point x="1200" y="1138"/>
      <point x="1177" y="1185" type="curve" smooth="yes"/>
      <point x="1131" y="1280"/>
      <point x="1045" y="1351"/>
      <point x="945" y="1378" type="curve"/>
      <point x="858" y="1397"/>
      <point x="781" y="1407"/>
      <point x="714" y="1407" type="curve" smooth="yes"/>
      <point x="69" y="1407" type="line"/>
      <point x="69" y="1368" type="line"/>
      <point x="114" y="1368" type="line"/>
      <point x="218" y="1364"/>
      <point x="263" y="1311"/>
      <point x="263" y="1192" type="curve" smooth="yes"/>
      <point x="263" y="215" type="line" smooth="yes"/>
      <point x="263" y="169"/>
      <point x="257" y="134"/>
      <point x="246" y="110" type="curve" smooth="yes"/>
      <point x="223" y="61"/>
      <point x="170" y="38"/>
      <point x="73" y="37" type="curve" smooth="yes"/>
      <point x="69" y="37" type="line"/>
      <point x="69" y="0" type="line"/>
      <point x="683" y="0" type="line"/>
      <point x="683" y="37" type="line"/>
      <point x="675" y="37" type="line" smooth="yes"/>
      <point x="625" y="38"/>
      <point x="587" y="45"/>
      <point x="560" y="56" type="curve" smooth="yes"/>
      <point x="507" y="79"/>
      <point x="486" y="127"/>
      <point x="486" y="215" type="curve" smooth="yes"/>
      <point x="486" y="659" type="line"/>
      <point x="620" y="659" type="line"/>
      <point x="1150" y="0" type="line"/>
      <point x="1517" y="0" type="line"/>
      <point x="1517" y="37" type="line"/>
      <point x="1404" y="49"/>
      <point x="1316" y="107"/>
      <point x="1205" y="246" type="curve" smooth="yes"/>
    </contour>
    <contour>
      <point x="486" y="729" type="line"/>
      <point x="486" y="1321" type="line"/>
      <point x="583" y="1333"/>
      <point x="599" y="1335"/>
      <point x="644" y="1335" type="curve" smooth="yes"/>
      <point x="701" y="1335"/>
      <point x="754" y="1322"/>
      <point x="803" y="1295" type="curve" smooth="yes"/>
      <point x="900" y="1242"/>
      <point x="960" y="1145"/>
      <point x="960" y="1034" type="curve" smooth="yes"/>
      <point x="960" y="834"/>
      <point x="804" y="729"/>
      <point x="511" y="729" type="curve" smooth="yes"/>
    </contour>
    <contour>
      <point x="827" y="657" type="line"/>
      <point x="832" y="657" type="line"/>
      <point x="836" y="659" type="line"/>
      <point x="837" y="661" type="line"/>
      <point x="837" y="662"/>
      <point x="837" y="663"/>
      <point x="836" y="664" type="curve" smooth="yes"/>
      <point x="834" y="666"/>
      <point x="831" y="666"/>
      <point x="828" y="664" type="curve"/>
      <point x="826" y="663" type="line"/>
      <point x="827" y="662"/>
      <point x="827" y="661"/>
      <point x="826" y="659" type="curve"/>
    </contour>
  </outline>
</glyph>
<glyph name="S" format="2">
  <advance width="1130"/>
  <unicode hex="0053"/>
  <note>
S
</note>
  <outline>
    <contour>
      <point x="850" y="688" type="curve" smooth="yes"/>
      <point x="801" y="726"/>
      <point x="708" y="785"/>
      <point x="572" y="864" type="curve" smooth="yes"/>
      <point x="496" y="909"/>
      <point x="446" y="940"/>
      <point x="423" y="958" type="curve"/>
      <point x="340" y="1015"/>
      <point x="298" y="1079"/>
      <point x="298" y="1149" type="curve" smooth="yes"/>
      <point x="298" y="1187"/>
      <point x="309" y="1222"/>
      <point x="331" y="1254" type="curve" smooth="yes"/>
      <point x="375" y="1317"/>
      <point x="453" y="1356"/>
      <point x="544" y="1356" type="curve" smooth="yes"/>
      <point x="605" y="1356"/>
      <point x="662" y="1339"/>
      <point x="717" y="1306" type="curve" smooth="yes"/>
      <point x="825" y="1238"/>
      <point x="903" y="1114"/>
      <point x="919" y="971" type="curve"/>
      <point x="955" y="971" type="line"/>
      <point x="955" y="1436" type="line"/>
      <point x="919" y="1436" type="line"/>
      <point x="902" y="1387"/>
      <point x="874" y="1362"/>
      <point x="837" y="1362" type="curve" smooth="yes"/>
      <point x="819" y="1362"/>
      <point x="796" y="1367"/>
      <point x="769" y="1378" type="curve" smooth="yes"/>
      <point x="640" y="1429"/>
      <point x="598" y="1438"/>
      <point x="517" y="1438" type="curve" smooth="yes"/>
      <point x="443" y="1438"/>
      <point x="376" y="1422"/>
      <point x="315" y="1391" type="curve" smooth="yes"/>
      <point x="194" y="1327"/>
      <point x="118" y="1208"/>
      <point x="118" y="1073" type="curve" smooth="yes"/>
      <point x="118" y="981"/>
      <point x="152" y="902"/>
      <point x="204" y="841" type="curve" smooth="yes"/>
      <point x="252" y="785"/>
      <point x="327" y="733"/>
      <point x="488" y="641" type="curve" smooth="yes"/>
      <point x="577" y="590"/>
      <point x="647" y="546"/>
      <point x="698" y="507" type="curve" smooth="yes"/>
      <point x="798" y="429"/>
      <point x="839" y="359"/>
      <point x="839" y="272" type="curve" smooth="yes"/>
      <point x="839" y="229"/>
      <point x="828" y="190"/>
      <point x="805" y="157" type="curve" smooth="yes"/>
      <point x="760" y="90"/>
      <point x="673" y="51"/>
      <point x="564" y="51" type="curve" smooth="yes"/>
      <point x="425" y="51"/>
      <point x="294" y="131"/>
      <point x="226" y="258" type="curve" smooth="yes"/>
      <point x="191" y="321"/>
      <point x="183" y="345"/>
      <point x="163" y="442" type="curve"/>
      <point x="124" y="442" type="line"/>
      <point x="124" y="-33" type="line"/>
      <point x="163" y="-33" type="line"/>
      <point x="178" y="10"/>
      <point x="201" y="35"/>
      <point x="230" y="41" type="curve"/>
      <point x="227" y="42"/>
      <point x="224" y="42"/>
      <point x="220" y="43" type="curve"/>
      <point x="216" y="43"/>
      <point x="213" y="44"/>
      <point x="211" y="45" type="curve"/>
      <point x="210" y="46"/>
      <point x="210" y="47"/>
      <point x="210" y="48" type="curve" smooth="yes"/>
      <point x="210" y="50" type="line" smooth="yes"/>
      <point x="210" y="51"/>
      <point x="208" y="52"/>
      <point x="208" y="52" type="curve"/>
      <point x="207" y="53"/>
      <point x="207" y="55"/>
      <point x="208" y="56" type="curve"/>
      <point x="210" y="59" type="line"/>
      <point x="212" y="60" type="line"/>
      <point x="216" y="60" type="line"/>
      <point x="204" y="65" type="line"/>
      <point x="203" y="66"/>
      <point x="203" y="67"/>
      <point x="203" y="68" type="curve"/>
      <point x="204" y="69"/>
      <point x="204" y="69"/>
      <point x="205" y="69" type="curve"/>
      <point x="205" y="68"/>
      <point x="205" y="68"/>
      <point x="206" y="68" type="curve"/>
      <point x="212" y="66" type="line"/>
      <point x="218" y="64" type="line"/>
      <point x="214" y="67" type="line"/>
      <point x="212" y="69" type="line"/>
      <point x="212" y="69"/>
      <point x="212" y="70"/>
      <point x="212" y="71" type="curve"/>
      <point x="211" y="72"/>
      <point x="212" y="72"/>
      <point x="213" y="72" type="curve"/>
      <point x="213" y="72"/>
      <point x="213" y="72"/>
      <point x="214" y="72" type="curve"/>
      <point x="214" y="72"/>
      <point x="214" y="72"/>
      <point x="214" y="71" type="curve"/>
      <point x="221" y="66" type="line"/>
      <point x="221" y="67" type="line" smooth="yes"/>
      <point x="221" y="68"/>
      <point x="223" y="69"/>
      <point x="224" y="68" type="curve"/>
      <point x="230" y="61" type="line"/>
      <point x="236" y="53" type="line"/>
      <point x="242" y="47"/>
      <point x="246" y="44"/>
      <point x="247" y="43" type="curve"/>
      <point x="264" y="43"/>
      <point x="285" y="39"/>
      <point x="310" y="31" type="curve" smooth="yes"/>
      <point x="372" y="11"/>
      <point x="416" y="-3"/>
      <point x="443" y="-10" type="curve"/>
      <point x="500" y="-27"/>
      <point x="533" y="-31"/>
      <point x="597" y="-31" type="curve" smooth="yes"/>
      <point x="679" y="-31"/>
      <point x="754" y="-14"/>
      <point x="822" y="20" type="curve" smooth="yes"/>
      <point x="957" y="88"/>
      <point x="1039" y="212"/>
      <point x="1039" y="356" type="curve" smooth="yes"/>
      <point x="1039" y="489"/>
      <point x="971" y="595"/>
    </contour>
    <contour>
      <point x="214" y="49" type="line"/>
      <point x="217" y="47"/>
      <point x="220" y="47"/>
      <point x="222" y="49" type="curve" smooth="yes"/>
      <point x="223" y="50"/>
      <point x="223" y="51"/>
      <point x="223" y="52" type="curve"/>
      <point x="222" y="54" type="line"/>
      <point x="218" y="56" type="line"/>
      <point x="213" y="56" type="line"/>
      <point x="212" y="54" type="line"/>
      <point x="213" y="52"/>
      <point x="213" y="51"/>
      <point x="212" y="50" type="curve"/>
    </contour>
  </outline>
</glyph>
<glyph name="T" format="2">
  <advance width="1366"/>
  <unicode hex="0054"/>
  <note>
T
</note>
  <outline>
    <contour>
      <point x="1320" y="1087" type="line"/>
      <point x="1299" y="1407" type="line"/>
      <point x="62" y="1407" type="line"/>
      <point x="46" y="1087" type="line"/>
      <point x="83" y="1087" type="line"/>
      <point x="86" y="1126"/>
      <point x="95" y="1160"/>
      <point x="110" y="1190" type="curve" smooth="yes"/>
      <point x="126" y="1225"/>
      <point x="144" y="1251"/>
      <point x="165" y="1269" type="curve" smooth="yes"/>
      <point x="205" y="1304"/>
      <point x="269" y="1317"/>
      <point x="386" y="1317" type="curve" smooth="yes"/>
      <point x="568" y="1317" type="line"/>
      <point x="568" y="215" type="line" smooth="yes"/>
      <point x="568" y="170"/>
      <point x="562" y="135"/>
      <point x="550" y="110" type="curve" smooth="yes"/>
      <point x="526" y="59"/>
      <point x="473" y="38"/>
      <point x="378" y="37" type="curve" smooth="yes"/>
      <point x="366" y="37" type="line"/>
      <point x="366" y="0" type="line"/>
      <point x="996" y="0" type="line"/>
      <point x="996" y="37" type="line"/>
      <point x="982" y="37" type="line" smooth="yes"/>
      <point x="933" y="38"/>
      <point x="895" y="45"/>
      <point x="868" y="56" type="curve" smooth="yes"/>
      <point x="815" y="78"/>
      <point x="792" y="126"/>
      <point x="792" y="215" type="curve" smooth="yes"/>
      <point x="792" y="1317" type="line"/>
      <point x="982" y="1317" type="line" smooth="yes"/>
      <point x="1090" y="1317"/>
      <point x="1126" y="1310"/>
      <point x="1179" y="1278" type="curve"/>
      <point x="1180" y="1279"/>
      <point x="1184" y="1282"/>
      <point x="1190" y="1288" type="curve"/>
      <point x="1196" y="1296" type="line"/>
      <point x="1202" y="1303" type="line"/>
      <point x="1203" y="1304"/>
      <point x="1205" y="1303"/>
      <point x="1205" y="1302" type="curve" smooth="yes"/>
      <point x="1205" y="1301" type="line"/>
      <point x="1212" y="1306" type="line"/>
      <point x="1213" y="1307"/>
      <point x="1215" y="1305"/>
      <point x="1215" y="1305" type="curve"/>
      <point x="1214" y="1304"/>
      <point x="1214" y="1304"/>
      <point x="1214" y="1304" type="curve"/>
      <point x="1212" y="1302" type="line"/>
      <point x="1208" y="1299" type="line"/>
      <point x="1214" y="1301" type="line"/>
      <point x="1220" y="1303" type="line"/>
      <point x="1221" y="1303"/>
      <point x="1221" y="1303"/>
      <point x="1222" y="1304" type="curve"/>
      <point x="1222" y="1304"/>
      <point x="1222" y="1304"/>
      <point x="1223" y="1303" type="curve"/>
      <point x="1223" y="1302"/>
      <point x="1223" y="1301"/>
      <point x="1222" y="1300" type="curve"/>
      <point x="1210" y="1295" type="line"/>
      <point x="1214" y="1295" type="line"/>
      <point x="1216" y="1294" type="line"/>
      <point x="1218" y="1291" type="line"/>
      <point x="1219" y="1290"/>
      <point x="1219" y="1288"/>
      <point x="1218" y="1287" type="curve"/>
      <point x="1218" y="1287"/>
      <point x="1216" y="1286"/>
      <point x="1216" y="1285" type="curve" smooth="yes"/>
      <point x="1216" y="1283" type="line" smooth="yes"/>
      <point x="1216" y="1282"/>
      <point x="1216" y="1281"/>
      <point x="1215" y="1280" type="curve"/>
      <point x="1213" y="1279"/>
      <point x="1210" y="1278"/>
      <point x="1206" y="1278" type="curve"/>
      <point x="1197" y="1277"/>
      <point x="1192" y="1275"/>
      <point x="1189" y="1272" type="curve"/>
      <point x="1239" y="1238"/>
      <point x="1269" y="1176"/>
      <point x="1279" y="1087" type="curve"/>
    </contour>
    <contour>
      <point x="1213" y="1291" type="line"/>
      <point x="1208" y="1291" type="line"/>
      <point x="1204" y="1289" type="line"/>
      <point x="1203" y="1287" type="line"/>
      <point x="1203" y="1286"/>
      <point x="1203" y="1285"/>
      <point x="1204" y="1284" type="curve" smooth="yes"/>
      <point x="1206" y="1282"/>
      <point x="1209" y="1282"/>
      <point x="1212" y="1284" type="curve"/>
      <point x="1214" y="1285" type="line"/>
      <point x="1213" y="1286"/>
      <point x="1213" y="1287"/>
      <point x="1214" y="1289" type="curve"/>
    </contour>
  </outline>
</glyph>
<glyph name="V" format="2">
  <advance width="1472"/>
  <unicode hex="0056"/>
  <note>
V
</note>
  <outline>
    <contour>
      <point x="1449" y="1407" type="line"/>
      <point x="1023" y="1407" type="line"/>
      <point x="1023" y="1368" type="line"/>
      <point x="1118" y="1366"/>
      <point x="1166" y="1333"/>
      <point x="1166" y="1268" type="curve" smooth="yes"/>
      <point x="1166" y="1243"/>
      <point x="1163" y="1223"/>
      <point x="1156" y="1210" type="curve"/>
      <point x="836" y="358" type="line"/>
      <point x="842" y="349"/>
      <point x="846" y="344"/>
      <point x="848" y="343" type="curve"/>
      <point x="851" y="342"/>
      <point x="854" y="342"/>
      <point x="859" y="342" type="curve"/>
      <point x="863" y="341"/>
      <point x="866" y="340"/>
      <point x="868" y="339" type="curve"/>
      <point x="869" y="338"/>
      <point x="869" y="337"/>
      <point x="869" y="336" type="curve" smooth="yes"/>
      <point x="869" y="334" type="line" smooth="yes"/>
      <point x="869" y="333"/>
      <point x="871" y="332"/>
      <point x="871" y="332" type="curve"/>
      <point x="872" y="331"/>
      <point x="872" y="329"/>
      <point x="871" y="328" type="curve"/>
      <point x="869" y="325" type="line"/>
      <point x="867" y="324" type="line"/>
      <point x="863" y="324" type="line"/>
      <point x="875" y="319" type="line"/>
      <point x="876" y="318"/>
      <point x="876" y="317"/>
      <point x="876" y="316" type="curve"/>
      <point x="875" y="315"/>
      <point x="875" y="315"/>
      <point x="875" y="316" type="curve"/>
      <point x="874" y="316"/>
      <point x="874" y="316"/>
      <point x="873" y="316" type="curve"/>
      <point x="867" y="318" type="line"/>
      <point x="861" y="320" type="line"/>
      <point x="865" y="317" type="line"/>
      <point x="867" y="315" type="line"/>
      <point x="867" y="315"/>
      <point x="867" y="315"/>
      <point x="868" y="314" type="curve"/>
      <point x="868" y="313"/>
      <point x="867" y="312"/>
      <point x="866" y="312" type="curve" smooth="yes"/>
      <point x="866" y="312"/>
      <point x="866" y="312"/>
      <point x="866" y="313" type="curve"/>
      <point x="866" y="313"/>
      <point x="866" y="313"/>
      <point x="865" y="313" type="curve"/>
      <point x="858" y="318" type="line"/>
      <point x="858" y="317" type="line" smooth="yes"/>
      <point x="858" y="316"/>
      <point x="856" y="315"/>
      <point x="855" y="316" type="curve"/>
      <point x="849" y="323" type="line"/>
      <point x="843" y="331" type="line"/>
      <point x="842" y="332"/>
      <point x="839" y="334"/>
      <point x="836" y="337" type="curve" smooth="yes"/>
      <point x="833" y="340"/>
      <point x="830" y="343"/>
      <point x="828" y="348" type="curve" smooth="yes"/>
      <point x="515" y="1124" type="line" smooth="yes"/>
      <point x="484" y="1201"/>
      <point x="468" y="1252"/>
      <point x="468" y="1278" type="curve" smooth="yes"/>
      <point x="468" y="1301"/>
      <point x="473" y="1320"/>
      <point x="482" y="1333" type="curve" smooth="yes"/>
      <point x="501" y="1359"/>
      <point x="543" y="1368"/>
      <point x="622" y="1368" type="curve"/>
      <point x="622" y="1407" type="line"/>
      <point x="26" y="1407" type="line"/>
      <point x="26" y="1368" type="line"/>
      <point x="70" y="1365"/>
      <point x="105" y="1358"/>
      <point x="132" y="1345" type="curve" smooth="yes"/>
      <point x="184" y="1319"/>
      <point x="223" y="1260"/>
      <point x="267" y="1151" type="curve" smooth="yes"/>
      <point x="280" y="1120" type="line"/>
      <point x="747" y="-33" type="line"/>
      <point x="783" y="-33" type="line"/>
      <point x="1193" y="1049" type="line" smooth="yes"/>
      <point x="1236" y="1165"/>
      <point x="1276" y="1246"/>
      <point x="1315" y="1292" type="curve" smooth="yes"/>
      <point x="1354" y="1340"/>
      <point x="1398" y="1365"/>
      <point x="1449" y="1368" type="curve"/>
    </contour>
    <contour>
      <point x="865" y="335" type="line"/>
      <point x="862" y="337"/>
      <point x="859" y="337"/>
      <point x="857" y="335" type="curve" smooth="yes"/>
      <point x="856" y="334"/>
      <point x="856" y="333"/>
      <point x="856" y="332" type="curve"/>
      <point x="857" y="330" type="line"/>
      <point x="861" y="328" type="line"/>
      <point x="866" y="328" type="line"/>
      <point x="867" y="330" type="line"/>
      <point x="866" y="332"/>
      <point x="866" y="333"/>
      <point x="867" y="334" type="curve"/>
    </contour>
  </outline>
</glyph>
<glyph name="W" format="2">
  <advance width="2027"/>
  <unicode hex="0057"/>
  <note>
W
</note>
  <outline>
    <contour>
      <point x="1055" y="883" type="line"/>
      <point x="1050" y="883" type="line"/>
      <point x="1046" y="881" type="line"/>
      <point x="1045" y="879" type="line"/>
      <point x="1045" y="878"/>
      <point x="1045" y="877"/>
      <point x="1046" y="876" type="curve" smooth="yes"/>
      <point x="1048" y="874"/>
      <point x="1051" y="874"/>
      <point x="1054" y="876" type="curve"/>
      <point x="1056" y="877" type="line"/>
      <point x="1055" y="878"/>
      <point x="1055" y="879"/>
      <point x="1056" y="881" type="curve"/>
    </contour>
    <contour>
      <point x="1605" y="1407" type="line"/>
      <point x="1605" y="1368" type="line"/>
      <point x="1686" y="1368"/>
      <point x="1754" y="1349"/>
      <point x="1754" y="1272" type="curve" smooth="yes"/>
      <point x="1754" y="1250"/>
      <point x="1749" y="1227"/>
      <point x="1740" y="1202" type="curve" smooth="yes"/>
      <point x="1445" y="371" type="line"/>
      <point x="1158" y="1120" type="line" smooth="yes"/>
      <point x="1135" y="1181"/>
      <point x="1123" y="1228"/>
      <point x="1123" y="1262" type="curve" smooth="yes"/>
      <point x="1123" y="1331"/>
      <point x="1163" y="1361"/>
      <point x="1263" y="1368" type="curve"/>
      <point x="1263" y="1407" type="line"/>
      <point x="15" y="1407" type="line"/>
      <point x="15" y="1368" type="line"/>
      <point x="98" y="1365"/>
      <point x="132" y="1351"/>
      <point x="160" y="1307" type="curve" smooth="yes"/>
      <point x="188" y="1260"/>
      <point x="215" y="1181"/>
      <point x="658" y="-29" type="curve"/>
      <point x="693" y="-29" type="line"/>
      <point x="1019" y="864" type="line"/>
      <point x="1021" y="868"/>
      <point x="1025" y="873"/>
      <point x="1032" y="880" type="curve"/>
      <point x="1038" y="888" type="line"/>
      <point x="1044" y="895" type="line"/>
      <point x="1045" y="896"/>
      <point x="1047" y="895"/>
      <point x="1047" y="894" type="curve" smooth="yes"/>
      <point x="1047" y="893" type="line"/>
      <point x="1054" y="898" type="line"/>
      <point x="1055" y="899"/>
      <point x="1057" y="897"/>
      <point x="1057" y="897" type="curve"/>
      <point x="1056" y="896" type="line"/>
      <point x="1054" y="894" type="line"/>
      <point x="1050" y="891" type="line"/>
      <point x="1062" y="895" type="line"/>
      <point x="1063" y="895"/>
      <point x="1063" y="895"/>
      <point x="1064" y="896" type="curve"/>
      <point x="1065" y="895" type="line"/>
      <point x="1065" y="894"/>
      <point x="1065" y="893"/>
      <point x="1064" y="892" type="curve"/>
      <point x="1052" y="887" type="line"/>
      <point x="1056" y="887" type="line"/>
      <point x="1058" y="886" type="line"/>
      <point x="1060" y="883" type="line"/>
      <point x="1061" y="882"/>
      <point x="1061" y="880"/>
      <point x="1060" y="879" type="curve"/>
      <point x="1060" y="879"/>
      <point x="1058" y="878"/>
      <point x="1058" y="877" type="curve" smooth="yes"/>
      <point x="1058" y="875" type="line" smooth="yes"/>
      <point x="1058" y="874"/>
      <point x="1058" y="873"/>
      <point x="1057" y="872" type="curve"/>
      <point x="1055" y="871"/>
      <point x="1052" y="870"/>
      <point x="1048" y="870" type="curve"/>
      <point x="1043" y="869"/>
      <point x="1040" y="869"/>
      <point x="1037" y="868" type="curve"/>
      <point x="1036" y="868"/>
      <point x="1035" y="868"/>
      <point x="1033" y="867" type="curve"/>
      <point x="1030" y="866"/>
      <point x="1028" y="863"/>
      <point x="1025" y="859" type="curve"/>
      <point x="1363" y="-29" type="line"/>
      <point x="1402" y="-29" type="line"/>
      <point x="1805" y="1112" type="line" smooth="yes"/>
      <point x="1840" y="1210"/>
      <point x="1872" y="1277"/>
      <point x="1901" y="1313" type="curve" smooth="yes"/>
      <point x="1930" y="1348"/>
      <point x="1967" y="1367"/>
      <point x="2012" y="1368" type="curve"/>
      <point x="2012" y="1407" type="line"/>
    </contour>
    <contour>
      <point x="744" y="371" type="line"/>
      <point x="583" y="815"/>
      <point x="504" y="1036"/>
      <point x="465" y="1150" type="curve" smooth="yes"/>
      <point x="400" y="1342"/>
      <point x="446" y="1369"/>
      <point x="670" y="1369" type="curve" smooth="yes"/>
      <point x="800" y="1369"/>
      <point x="830" y="1347"/>
      <point x="880" y="1232" type="curve" smooth="yes"/>
      <point x="901" y="1181"/>
      <point x="930" y="1108"/>
      <point x="972" y="997" type="curve"/>
    </contour>
  </outline>
</glyph>
<glyph name="X" format="2">
  <advance width="1579"/>
  <unicode hex="0058"/>
  <note>
X
</note>
  <outline>
    <contour>
      <point x="929" y="0" type="line"/>
      <point x="1551" y="0" type="line"/>
      <point x="1551" y="37" type="line"/>
      <point x="1537" y="37" type="line" smooth="yes"/>
      <point x="1481" y="37"/>
      <point x="1432" y="58"/>
      <point x="1389" y="101" type="curve" smooth="yes"/>
      <point x="1371" y="118"/>
      <point x="1352" y="139"/>
      <point x="1332" y="164" type="curve" smooth="yes"/>
      <point x="1311" y="189"/>
      <point x="1275" y="237"/>
      <point x="1224" y="309" type="curve" smooth="yes"/>
      <point x="1214" y="324"/>
      <point x="1205" y="336"/>
      <point x="1197" y="344" type="curve"/>
      <point x="882" y="784" type="line"/>
      <point x="1109" y="1061" type="line"/>
      <point x="1240" y="1217" type="line" smooth="yes"/>
      <point x="1275" y="1258"/>
      <point x="1305" y="1289"/>
      <point x="1330" y="1310" type="curve" smooth="yes"/>
      <point x="1380" y="1353"/>
      <point x="1423" y="1368"/>
      <point x="1490" y="1368" type="curve" smooth="yes"/>
      <point x="1502" y="1368" type="line"/>
      <point x="1502" y="1407" type="line"/>
      <point x="1017" y="1407" type="line"/>
      <point x="1017" y="1368" type="line"/>
      <point x="1117" y="1368"/>
      <point x="1156" y="1345"/>
      <point x="1156" y="1288" type="curve" smooth="yes"/>
      <point x="1156" y="1266"/>
      <point x="1143" y="1238"/>
      <point x="1117" y="1204" type="curve"/>
      <point x="830" y="858" type="line"/>
      <point x="827" y="854"/>
      <point x="821" y="850"/>
      <point x="817" y="847" type="curve"/>
      <point x="811" y="839" type="line"/>
      <point x="805" y="832" type="line"/>
      <point x="804" y="831"/>
      <point x="802" y="832"/>
      <point x="802" y="833" type="curve" smooth="yes"/>
      <point x="802" y="834" type="line"/>
      <point x="795" y="829" type="line"/>
      <point x="794" y="828"/>
      <point x="792" y="830"/>
      <point x="793" y="831" type="curve"/>
      <point x="793" y="831"/>
      <point x="793" y="831"/>
      <point x="793" y="831" type="curve"/>
      <point x="795" y="833" type="line"/>
      <point x="799" y="836" type="line"/>
      <point x="793" y="834" type="line"/>
      <point x="787" y="832" type="line"/>
      <point x="786" y="832"/>
      <point x="786" y="832"/>
      <point x="786" y="832" type="curve"/>
      <point x="785" y="831"/>
      <point x="785" y="831"/>
      <point x="784" y="832" type="curve"/>
      <point x="784" y="833"/>
      <point x="784" y="834"/>
      <point x="785" y="835" type="curve"/>
      <point x="797" y="840" type="line"/>
      <point x="793" y="840" type="line"/>
      <point x="791" y="841" type="line"/>
      <point x="789" y="844" type="line"/>
      <point x="788" y="845"/>
      <point x="788" y="847"/>
      <point x="789" y="848" type="curve"/>
      <point x="789" y="848"/>
      <point x="791" y="849"/>
      <point x="791" y="850" type="curve" smooth="yes"/>
      <point x="791" y="852" type="line" smooth="yes"/>
      <point x="791" y="853"/>
      <point x="791" y="854"/>
      <point x="792" y="855" type="curve"/>
      <point x="794" y="856"/>
      <point x="797" y="857"/>
      <point x="802" y="858" type="curve"/>
      <point x="810" y="858"/>
      <point x="815" y="860"/>
      <point x="818" y="863" type="curve" smooth="yes"/>
      <point x="823" y="868" type="line"/>
      <point x="591" y="1188" type="line" smooth="yes"/>
      <point x="560" y="1231"/>
      <point x="544" y="1265"/>
      <point x="544" y="1288" type="curve" smooth="yes"/>
      <point x="544" y="1339"/>
      <point x="592" y="1370"/>
      <point x="673" y="1370" type="curve"/>
      <point x="677" y="1369" type="line"/>
      <point x="678" y="1368"/>
      <point x="681" y="1368"/>
      <point x="685" y="1368" type="curve"/>
      <point x="685" y="1407" type="line"/>
      <point x="28" y="1407" type="line"/>
      <point x="28" y="1368" type="line"/>
      <point x="103" y="1365"/>
      <point x="126" y="1360"/>
      <point x="165" y="1337" type="curve" smooth="yes"/>
      <point x="225" y="1304"/>
      <point x="268" y="1258"/>
      <point x="361" y="1126" type="curve" smooth="yes"/>
      <point x="685" y="682" type="line"/>
      <point x="316" y="242" type="line" smooth="yes"/>
      <point x="249" y="160"/>
      <point x="189" y="103"/>
      <point x="136" y="70" type="curve" smooth="yes"/>
      <point x="103" y="48"/>
      <point x="67" y="37"/>
      <point x="28" y="37" type="curve"/>
      <point x="28" y="0" type="line"/>
      <point x="488" y="0" type="line"/>
      <point x="488" y="37" type="line"/>
      <point x="478" y="37" type="line" smooth="yes"/>
      <point x="390" y="40"/>
      <point x="353" y="62"/>
      <point x="353" y="115" type="curve" smooth="yes"/>
      <point x="353" y="142"/>
      <point x="363" y="162"/>
      <point x="400" y="207" type="curve" smooth="yes"/>
      <point x="734" y="610" type="line"/>
      <point x="988" y="258" type="line"/>
      <point x="1011" y="227" type="line" smooth="yes"/>
      <point x="1046" y="178"/>
      <point x="1064" y="140"/>
      <point x="1064" y="113" type="curve" smooth="yes"/>
      <point x="1064" y="65"/>
      <point x="1019" y="37"/>
      <point x="939" y="37" type="curve" smooth="yes"/>
      <point x="929" y="37" type="line"/>
    </contour>
    <contour>
      <point x="794" y="844" type="line"/>
      <point x="799" y="844" type="line"/>
      <point x="803" y="846" type="line"/>
      <point x="804" y="848" type="line"/>
      <point x="804" y="849"/>
      <point x="804" y="850"/>
      <point x="803" y="851" type="curve" smooth="yes"/>
      <point x="801" y="853"/>
      <point x="798" y="853"/>
      <point x="795" y="851" type="curve"/>
      <point x="793" y="850" type="line"/>
      <point x="794" y="849"/>
      <point x="794" y="848"/>
      <point x="793" y="846" type="curve"/>
    </contour>
  </outline>
</glyph>
<glyph name="Y" format="2">
  <advance width="1579"/>
  <unicode hex="0059"/>
  <note>
Y
</note>
  <outline>
    <contour>
      <point x="1549" y="1368" type="line"/>
      <point x="1549" y="1407" type="line"/>
      <point x="1074" y="1407" type="line"/>
      <point x="1074" y="1368" type="line"/>
      <point x="1086" y="1368" type="line" smooth="yes"/>
      <point x="1129" y="1368"/>
      <point x="1163" y="1363"/>
      <point x="1188" y="1353" type="curve" smooth="yes"/>
      <point x="1212" y="1343"/>
      <point x="1224" y="1329"/>
      <point x="1224" y="1311" type="curve" smooth="yes"/>
      <point x="1224" y="1294"/>
      <point x="1218" y="1274"/>
      <point x="1205" y="1249" type="curve" smooth="yes"/>
      <point x="1188" y="1217"/>
      <point x="1162" y="1173"/>
      <point x="1127" y="1118" type="curve" smooth="yes"/>
      <point x="866" y="709" type="line"/>
      <point x="871" y="703" type="line"/>
      <point x="874" y="700"/>
      <point x="879" y="698"/>
      <point x="888" y="698" type="curve"/>
      <point x="892" y="697"/>
      <point x="895" y="696"/>
      <point x="897" y="695" type="curve"/>
      <point x="898" y="694"/>
      <point x="898" y="693"/>
      <point x="898" y="692" type="curve" smooth="yes"/>
      <point x="898" y="690" type="line" smooth="yes"/>
      <point x="898" y="689"/>
      <point x="900" y="688"/>
      <point x="900" y="688" type="curve"/>
      <point x="901" y="687"/>
      <point x="901" y="685"/>
      <point x="900" y="684" type="curve"/>
      <point x="898" y="681" type="line"/>
      <point x="896" y="680" type="line"/>
      <point x="892" y="680" type="line"/>
      <point x="904" y="675" type="line"/>
      <point x="905" y="674"/>
      <point x="905" y="673"/>
      <point x="905" y="672" type="curve"/>
      <point x="904" y="671"/>
      <point x="904" y="671"/>
      <point x="904" y="672" type="curve"/>
      <point x="903" y="672"/>
      <point x="903" y="672"/>
      <point x="902" y="672" type="curve"/>
      <point x="896" y="674" type="line"/>
      <point x="890" y="676" type="line"/>
      <point x="894" y="673" type="line"/>
      <point x="896" y="671" type="line"/>
      <point x="896" y="671"/>
      <point x="896" y="671"/>
      <point x="897" y="670" type="curve"/>
      <point x="897" y="669"/>
      <point x="896" y="668"/>
      <point x="895" y="668" type="curve" smooth="yes"/>
      <point x="895" y="668"/>
      <point x="895" y="668"/>
      <point x="895" y="669" type="curve"/>
      <point x="895" y="669"/>
      <point x="895" y="669"/>
      <point x="894" y="669" type="curve"/>
      <point x="887" y="674" type="line"/>
      <point x="887" y="673" type="line" smooth="yes"/>
      <point x="887" y="672"/>
      <point x="885" y="671"/>
      <point x="884" y="672" type="curve"/>
      <point x="878" y="679" type="line"/>
      <point x="872" y="687" type="line"/>
      <point x="871" y="688"/>
      <point x="869" y="690"/>
      <point x="866" y="692" type="curve"/>
      <point x="863" y="693"/>
      <point x="860" y="695"/>
      <point x="859" y="698" type="curve"/>
      <point x="550" y="1163" type="line" smooth="yes"/>
      <point x="505" y="1232"/>
      <point x="482" y="1282"/>
      <point x="482" y="1313" type="curve" smooth="yes"/>
      <point x="482" y="1351"/>
      <point x="529" y="1370"/>
      <point x="622" y="1370" type="curve"/>
      <point x="644" y="1368" type="line"/>
      <point x="644" y="1407" type="line"/>
      <point x="22" y="1407" type="line"/>
      <point x="22" y="1368" type="line"/>
      <point x="28" y="1368" type="line" smooth="yes"/>
      <point x="64" y="1368"/>
      <point x="93" y="1365"/>
      <point x="115" y="1358" type="curve" smooth="yes"/>
      <point x="159" y="1344"/>
      <point x="191" y="1311"/>
      <point x="243" y="1235" type="curve" smooth="yes"/>
      <point x="292" y="1161" type="line"/>
      <point x="677" y="590" type="line"/>
      <point x="677" y="215" type="line" smooth="yes"/>
      <point x="677" y="166"/>
      <point x="671" y="130"/>
      <point x="658" y="105" type="curve" smooth="yes"/>
      <point x="633" y="56"/>
      <point x="579" y="37"/>
      <point x="460" y="37" type="curve"/>
      <point x="460" y="0" type="line"/>
      <point x="1113" y="0" type="line"/>
      <point x="1113" y="37" type="line"/>
      <point x="1054" y="37"/>
      <point x="1010" y="42"/>
      <point x="979" y="53" type="curve" smooth="yes"/>
      <point x="918" y="74"/>
      <point x="896" y="119"/>
      <point x="896" y="215" type="curve" smooth="yes"/>
      <point x="896" y="604" type="line"/>
      <point x="1237" y="1133" type="line" smooth="yes"/>
      <point x="1275" y="1191"/>
      <point x="1306" y="1235"/>
      <point x="1331" y="1264" type="curve" smooth="yes"/>
      <point x="1379" y="1322"/>
      <point x="1446" y="1370"/>
      <point x="1537" y="1370" type="curve"/>
    </contour>
    <contour>
      <point x="894" y="691" type="line"/>
      <point x="891" y="693"/>
      <point x="888" y="693"/>
      <point x="886" y="691" type="curve" smooth="yes"/>
      <point x="885" y="690"/>
      <point x="885" y="689"/>
      <point x="885" y="688" type="curve"/>
      <point x="886" y="686" type="line"/>
      <point x="890" y="684" type="line"/>
      <point x="895" y="684" type="line"/>
      <point x="896" y="686" type="line"/>
      <point x="895" y="688"/>
      <point x="895" y="689"/>
      <point x="896" y="690" type="curve"/>
    </contour>
  </outline>
</glyph>
